/* XPM */
static char *_1741379524[] = {
/* columns rows colors chars-per-pixel */
"64 64 141 2 ",
"   c #91DB69",
".  c #90DA69",
"X  c #91DB68",
"o  c #92DB68",
"O  c #93DB68",
"+  c #89D969",
"@  c #7BD56A",
"#  c #8BD969",
"$  c #7AD46A",
"%  c #4CC86E",
"&  c #4DC86E",
"*  c #7CD56A",
"=  c #95DC68",
"-  c #73D26B",
";  c #35C270",
":  c #2DC071",
">  c #5DCD6D",
",  c #7ED66A",
"<  c #8CD969",
"1  c #7ED56A",
"2  c #74D36B",
"3  c #37C270",
"4  c #1FBC72",
"5  c #2EC071",
"6  c #50C96E",
"7  c #4FC96E",
"8  c #94DB68",
"9  c #76D36B",
"0  c #38C370",
"q  c #17BA73",
"w  c #30C171",
"e  c #5ECD6D",
"r  c #5CCC6D",
"t  c #2CBF71",
"y  c #34C271",
"u  c #72D26B",
"i  c #96DC68",
"p  c #18BA73",
"a  c #19BA73",
"s  c #22BD72",
"d  c #1DBB73",
"f  c #73D36B",
"g  c #75D36B",
"h  c #67CF6C",
"j  c #4AC76F",
"k  c #32C171",
"l  c #8EDA69",
"z  c #7FD66A",
"x  c #91DA69",
"c  c #90DB68",
"v  c #90DB67",
"b  c #91DC68",
"n  c #36C270",
"m  c #6BD06C",
"M  c #63CE6C",
"N  c #39C370",
"B  c #51C96E",
"V  c #90DC67",
"C  c #91DC67",
"Z  c #62CE6D",
"A  c #4AC86F",
"S  c #2FC071",
"D  c #77D46B",
"F  c #91D86D",
"G  c #93D177",
"H  c #92CC7B",
"J  c #90C878",
"K  c #90CB73",
"L  c #90D66C",
"P  c #1EBC72",
"I  c #4BC86F",
"U  c #69D06C",
"Y  c #5FCD6D",
"T  c #93D277",
"R  c #97BF94",
"E  c #96AEA0",
"W  c #90A298",
"Q  c #8EAC88",
"!  c #90CC72",
"~  c #91D86C",
"^  c #92D276",
"/  c #93CF7B",
"(  c #93D276",
")  c #91D96C",
"_  c #7DD56A",
"`  c #8AD969",
"'  c #90DC66",
"]  c #92D375",
"[  c #96BF92",
"{  c #98B5A2",
"}  c #99B5A2",
"|  c #97C093",
" . c #90DD66",
".. c #92D275",
"X. c #95C589",
"o. c #99B2A7",
"O. c #9AA5B5",
"+. c #98A2B3",
"@. c #95AAA1",
"#. c #91BD84",
"$. c #90CC71",
"%. c #90D66B",
"&. c #96BE93",
"*. c #99B1A8",
"=. c #9BACB1",
"-. c #98A3B1",
";. c #9397A9",
":. c #8F94A0",
">. c #8E9A97",
",. c #8EAD88",
"<. c #92D176",
"1. c #96BE94",
"2. c #99B5A3",
"3. c #99B6A2",
"4. c #95B19C",
"5. c #90A594",
"6. c #8D9E91",
"7. c #8D9D92",
"8. c #90CC73",
"9. c #92D177",
"0. c #93CE7B",
"q. c #92CD79",
"w. c #90C976",
"e. c #8FC775",
"r. c #8FC676",
"t. c #3AC370",
"y. c #4EC96E",
"u. c #89D869",
"i. c #79D46B",
"p. c #93CE7C",
"a. c #92CC7A",
"s. c #99B4A3",
"d. c #96AF9E",
"f. c #90A297",
"g. c #43C66F",
"h. c #64CE6C",
"j. c #8DDA69",
"k. c #45C66F",
"l. c #34C171",
"z. c #4EC86E",
"x. c white",
/* pixels */
"                                                                                                                                ",
"                                                                                                                                ",
"                                                                                                                                ",
"                                                                                                                                ",
"                                                                                                                                ",
"                                                                                                                                ",
"                                                                                                                                ",
"                                                                                                                                ",
"                                                                                                                                ",
"                  . . X o o X . .                                                                         . . X o o X . .       ",
"                  . . X O O X . .                                                                         . . X O O X . .       ",
"                  X X + @ @ # o X . .     . . X o o X . .                                             . . X o # @ @ + X X       ",
"                  o O $ % & * = o . .     . . X O O X . .                                             . . o = * & % $ O o       ",
"                  o O - ; : > , < o X . . X o # @ @ + X X                                             X X # 1 > : ; - O o       ",
"                  o O 2 3 4 5 6 , = o . . o = * & % $ O o                                             o O * 7 5 4 3 2 O o       ",
"          . . X o 8 = 9 0 q q w e 1 # o O < , r t y u O o                                             o O 2 3 q q 0 2 O o       ",
"          . . X O = i 9 0 p a s w 7 * = i , 6 5 d ; f O o                                             o O 2 0 q q 3 2 O o       ",
"          X X + $ 2 g h j k s a p 0 g l z e 5 d 5 7 * O o                             x x c c v b X X o O 2 3 4 5 7 * O o       ",
"          o O @ % y n j m M k q q N 9 z B 5 d 5 e 1 # X X                             x x c v V C b X o O - ; : > 1 # X X       ",
"          o O @ & t d w Z m A S 4 N D 9 3 d 5 6 , = o . .         x x c c v v c c x x c c F G H J K L o O $ % & * = o . .       ",
"          X X # * r 5 P w I U Y S 3 9 g n t r , < o X . .         x x c v V V v c x x c v T R E W Q ! C b + @ @ # o X . .       ",
"          . . o = , 6 5 d 3 D z 7 & * * & & * = o . .         x x c v ~ ^ / / ( ) V c c v T R E W Q ! b c X O O X . .           ",
"          . . X o < , r t ; 2 l _ @ ` ` @ @ # o X . .         x x v ' ] [ { } | ]  .v c c F G H J K L X c X o o X . .           ",
"              . . o = * & % $ O 8 O X X O O X . .             c c ~ ..X.o.O.+.@.#.$.%.X X c v V C b X . x                       ",
"              . . X o # @ @ + o o o X X o o X . .             c v ^ &.*.=.-.;.:.>.,.! b X c c v b X X x x                       ",
"                  . . X O O X . .                             c v <.1.2.3.4.5.6.7.,.8.b X                                       ",
"                  . . X o o X . .                             c c F 9.0./ q.w.e.r.8.L X X                                       ",
"                                                              x x c v V V V C C C b X . x . . X o o X . . X o o X . .           ",
"                                                              x x c c v v v b b b X X x x . . X O O X . . X O O X . .           ",
"                                                                                          X X + @ @ # O o + @ @ + X X           ",
"                                                                                          o O $ % & * i = $ % % $ O o           ",
"                              . . X o o X . .                                             o O - ; : > z l f ; y u O o           ",
"                              . . X O O X . .                                             o O 2 3 4 5 B z g 3 ; - O o           ",
"                              X X + @ @ # o X . .     . . X o o X . .                     o O 2 0 q q N D g 3 ; - O o           ",
"                              o O $ % & * = o . .     . . X O O X . .                     o O 2 3 q q t.D g n y u O o           ",
"                              o O - ; : > , < o X . . X o # @ @ + X X                     o O * 7 5 4 N 9 _ y.% $ O o           ",
"                              o O 2 3 4 5 6 , = o . . o = * & % $ O o                     X X # 1 > : n f < _ @ + X X           ",
"                      . . X o 8 = 9 0 q q w e 1 # o O < , r t y u O o         . . X o o X . . o = * & % $ O 8 O X . .           ",
"                      . . X O = i 9 0 p a s w 7 * = i , 6 5 d ; f O o         . . X O O X . . X o # @ @ + o o o X . .           ",
"                      X X + $ 2 g h j k s a p 0 g l z e 5 d 5 7 * O o         X X + @ @ # o X . . X O O X X o o X . .           ",
"                      o O @ % y n j m M k q q N 9 z B 5 d 5 e 1 # X X         o O $ % & * = o . . X o o X X O O X . .           ",
"                      o O @ & t d w Z m A S 4 N D 9 3 d 5 6 , = o . .         o O - ; : > , < o X . . X o # @ @ + X X           ",
"                      X X # * r 5 P w I U Y S 3 9 g n t r , < o X . .         o O 2 3 4 5 6 , = o . . o = * & % $ O o           ",
"                      . . o = , 6 5 d 3 D z 7 & * * & & * = o . .     . . X o 8 = 9 0 q q w e 1 # o O < , r t y u O o           ",
"                      . . X o < , r t ; 2 l _ @ ` ` @ @ # o X . .     . . X O = i 9 0 p a s w 7 * = i , 6 5 d ; f O o           ",
"                          . . o = * & % $ O 8 O X X O O X . .         X X + $ 2 g h j k s a p 0 g l z e 5 d 5 7 * O o           ",
"                          . . X o # @ @ + o o o X X o o X . .         o O @ % y n j m M k q q N 9 z B 5 d 5 e 1 # X X           ",
"                              . . X O O X . .                         o O @ & t d w Z m A S 4 N D 9 3 d 5 6 , = o . .           ",
"                              . . X o o X . .                         X X # * r 5 P w I U Y S 3 9 g n t r , < o X . .           ",
"      . . X o o X . . X o o X . .     x x c c v v v b X X x x         . . o = , 6 5 d 3 D z 7 & * * & & * = o . .               ",
"      . . X O O X . . X O O X . .     x x c v V V V C b X . x         . . X o < , r t ; 2 l _ @ ` ` @ @ # o X . .               ",
"      X X u.i.$ ` O o + @ @ + X X     c c F 9.p.p.a.J K L X X             . . o = * & % $ O 8 O X X O O X . .                   ",
"      o O i.A I * i = $ % % $ O o     c v <.1.s.2.d.f.Q ! b X             . . X o # @ @ + o o o X X o o X . .                   ",
"      o O $ I g.h.z j.f ; y u O o     c v <.1.s.2.d.f.Q ! b X                 . . X O O X . .                                   ",
"      X X ` * M k.7 _ g 3 ; - O o     c c F 9.p.p.a.J K L X X                 . . X o o X . .                                   ",
"      . . O = 2 y ; g g 3 ; - O o     x x c v V V V C b X . x                                                                   ",
"      . . O = f l.; g g n y u O o     x x c c v v v b X X x x                                                                   ",
"          o O $ % z.* * z.% $ O o                                                                                               ",
"          X X + @ @ ` ` @ @ + X X                                                                                               ",
"          . . X O O X X O O X . .                                                                                               ",
"          . . X o o X X o o X . .                                                                                               ",
"                                                                                                                                ",
"                                                                                                                                ",
"                                                                                                                                "
};
