/* XPM */
static char *_1741459696[] = {
/* columns rows colors chars-per-pixel */
"64 64 5 1 ",
"  c #91DB69",
". c #1EBC73",
"X c #9BABB2",
"o c #8D8E9E",
"O c white",
/* pixels */
"                                                                ",
"                                                                ",
"                                                                ",
"                                                                ",
"                                                                ",
"                                                                ",
"                                                                ",
"                                                                ",
"                                                                ",
"                                                                ",
"                                                                ",
"                                                                ",
"            ..                                          ..      ",
"            ..                                          ..      ",
"            ....        ..                            ....      ",
"            ....        ..                            ....      ",
"            ......    ....                            ....      ",
"            ......    ....                            ....      ",
"        ....  ....  ....                              ..        ",
"        ....  ....  ....                              ..        ",
"          ....  ..  ..                        XXoo              ",
"          ....  ..  ..                        XXoo              ",
"            ..                      XXXX                        ",
"            ..                      XXXX                        ",
"                                  XXXXoooo                      ",
"                                  XXXXoooo                      ",
"                                                                ",
"                                                                ",
"                                                                ",
"                                                                ",
"                                                ..    ..        ",
"                                                ..    ..        ",
"                                                ....  ..        ",
"                                                ....  ..        ",
"                  ..                            ....  ..        ",
"                  ..                            ....  ..        ",
"                  ....        ..                  ..            ",
"                  ....        ..                  ..            ",
"                  ......    ....                                ",
"                  ......    ....                                ",
"              ....  ....  ....            ..                    ",
"              ....  ....  ....            ..                    ",
"                ....  ..  ..              ....        ..        ",
"                ....  ..  ..              ....        ..        ",
"                  ..                      ......    ....        ",
"                  ..                      ......    ....        ",
"                                      ....  ....  ....          ",
"                                      ....  ....  ....          ",
"                                        ....  ..  ..            ",
"                                        ....  ..  ..            ",
"                                          ..                    ",
"                                          ..                    ",
"      ..    ..        XXXXoo                                    ",
"      ..    ..        XXXXoo                                    ",
"        ..  ..                                                  ",
"        ..  ..                                                  ",
"        ..  ..                                                  ",
"        ..  ..                                                  ",
"                                                                ",
"                                                                ",
"                                                                ",
"                                                                ",
"                                                                ",
"                                                                "
};
