/* XPM */
static char *_1741362324[] = {
/* columns rows colors chars-per-pixel */
"32 32 5 1 ",
"  c #91DB69",
". c #1EBC73",
"X c #9BABB2",
"o c #8D8E9E",
"O c white",
/* pixels */
"                                ",
"                                ",
"                                ",
"                                ",
"                                ",
"                                ",
"      .                     .   ",
"      ..    .              ..   ",
"      ...  ..              ..   ",
"    .. .. ..               .    ",
"     .. . .            Xo       ",
"      .           XX            ",
"                 XXoo           ",
"                                ",
"                                ",
"                        .  .    ",
"                        .. .    ",
"         .              .. .    ",
"         ..    .         .      ",
"         ...  ..                ",
"       .. .. ..      .          ",
"        .. . .       ..    .    ",
"         .           ...  ..    ",
"                   .. .. ..     ",
"                    .. . .      ",
"                     .          ",
"   .  .    XXo                  ",
"    . .                         ",
"    . .                         ",
"                                ",
"                                ",
"                                "
};
