/* XPM */
static char *_1741459696[] = {
/* columns rows colors chars-per-pixel */
"64 64 13 1 ",
"  c #91DB69",
". c #1EBC73",
"X c #9BABB2",
"o c #5ACC6D",
"O c #8D8E9E",
"+ c #239063",
"@ c #165A4C",
"# c #233C3C",
"$ c #6A8D59",
"% c #9E4539",
"& c #B9593C",
"* c #6E2727",
"= c white",
/* pixels */
"                              ....                              ",
"                              ....                              ",
"      XXXX                  ..oooo..                            ",
"      XXXX                  ..oooo..                            ",
"    XXXXXXOO              ..oooooooo..                          ",
"    XXXXXXOO              ..oooooooo..                          ",
"                          ..oooooooo..                          ",
"                          ..oooooooo..                          ",
"                        ..oooooooooooo..                        ",
"                        ..oooooooooooo..                        ",
"                      ..oooooooooooooooo..        XXXX          ",
"                      ..oooooooooooooooo..        XXXX          ",
"                    ..oooooooooooooooooooo..                    ",
"                    ..oooooooooooooooooooo..                    ",
"                  ..oooooooooooooooooooooooo..                  ",
"                  ..oooooooooooooooooooooooo..                  ",
"                  ..oooooooooooooooooooooooo..                  ",
"                  ..oooooooooooooooooooooooo..                  ",
"                ..oooooooooooooooooooooooooooo..                ",
"                ..oooooooooooooooooooooooooooo..                ",
"              ..oooooooooooooooooooooooooooooooo..              ",
"              ..oooooooooooooooooooooooooooooooo..              ",
"            ....oooooooooooooooooooooooooooooooo....            ",
"            ....oooooooooooooooooooooooooooooooo....            ",
"          ....  ..oooo..oooooooooooooooo..oooo..  ....          ",
"          ....  ..oooo..oooooooooooooooo..oooo..  ....          ",
"              ..oooo....oooooooooooooooo....oooo..              ",
"              ..oooo....oooooooooooooooo....oooo..              ",
"            ..oo......oooooo..oooo..oooooo......oo..            ",
"            ..oo......oooooo..oooo..oooooo......oo..            ",
"          ++........oooo......oooo....oooo..........++          ",
"          ++........oooo......oooo....oooo..........++          ",
"        ++....++++..oo........oo........oo....++++++..++        ",
"        ++....++++..oo........oo........oo....++++++..++        ",
"      ++....++++................................++++++..++      ",
"      ++....++++................................++++++..++      ",
"    ++..++++++......++....................++......++++++..++    ",
"    ++..++++++......++....................++......++++++..++    ",
"  ++@@@@@@++....++++......++++....++++......++++....++@@@@@@++  ",
"  ++@@@@@@++....++++......++++....++++......++++....++@@@@@@++  ",
"      @@++++++++++++....++++++....++++++....++++++++..++@@      ",
"      @@++++++++++++....++++++....++++++....++++++++..++@@      ",
"    ++..++++++++@@....++++++++++..++++++++....@@++++++++..++    ",
"    ++..++++++++@@....++++++++++..++++++++....@@++++++++..++    ",
"  ++..++++@@@@@@++++++++@@++++@@++++++@@++++++++@@@@@@++++..++  ",
"  ++..++++@@@@@@++++++++@@++++@@++++++@@++++++++@@@@@@++++..++  ",
"  @@++++@@@@@@++++++@@@@++++++@@@@++++++@@@@++++++@@@@@@++++@@  ",
"  @@++++@@@@@@++++++@@@@++++++@@@@++++++@@@@++++++@@@@@@++++@@  ",
"  @@++@@@@@@@@++++@@@@@@++++@@@@@@@@++++++@@@@++++@@@@@@@@++@@  ",
"  @@++@@@@@@@@++++@@@@@@++++@@@@@@@@++++++@@@@++++@@@@@@@@++@@  ",
"@@++@@####@@++++@@@@@@++++@@@@####@@@@++++@@@@@@++++@@####@@++@@",
"@@++@@####@@++++@@@@@@++++@@@@####@@@@++++@@@@@@++++@@####@@++@@",
"@@####$$$$##@@@@@@####++@@@@##%%%%##@@@@++####@@@@++##$$$$####@@",
"@@####$$$$##@@@@@@####++@@@@##%%%%##@@@@++####@@@@++##$$$$####@@",
"$$$$$$$$##@@######$$##++@@##&&&&%%%%##@@++##$$######++##$$$$$$$$",
"$$$$$$$$##@@######$$##++@@##&&&&%%%%##@@++##$$######++##$$$$$$$$",
"      ######$$$$$$##@@@@##%%&&&&&&&&%%##@@@@##$$$$$$######      ",
"      ######$$$$$$##@@@@##%%&&&&&&&&%%##@@@@##$$$$$$######      ",
"      $$$$$$$$$$$$########%%&&&&&&&&%%########$$$$$$$$$$$$      ",
"      $$$$$$$$$$$$########%%&&&&&&&&%%########$$$$$$$$$$$$      ",
"              $$$$$$$$$$**%%&&&&&&&&%%**$$$$$$$$$$              ",
"              $$$$$$$$$$**%%&&&&&&&&%%**$$$$$$$$$$              ",
"                        $$**%%%%%%%%**$$                        ",
"                        $$**%%%%%%%%**$$                        "
};
