/* XPM */
static char *_1741379524[] = {
/* columns rows colors chars-per-pixel */
"64 64 174 2 ",
"   c #1C3D3D",
".  c #1B343A",
"X  c #243D3C",
"o  c #3A3E3A",
"O  c #413D3A",
"+  c #4D3736",
"@  c #583E3A",
"#  c #6A2B2C",
"$  c #772929",
"%  c #1D413E",
"&  c #2A433D",
"*  c #35423E",
"=  c #39453E",
"-  c #5D423A",
";  c #604936",
":  c #67413A",
">  c #68423A",
",  c #7B4B36",
"<  c #745236",
"1  c #1B4541",
"2  c #174D46",
"3  c #1B4A43",
"4  c #165047",
"5  c #1B5147",
"6  c #155449",
"7  c #155A4C",
"8  c #1A5D4C",
"9  c #214D44",
"0  c #215447",
"q  c #205648",
"w  c #20584A",
"e  c #335142",
"r  c #345D46",
"t  c #3B5D45",
"y  c #3A5642",
"u  c #17624F",
"i  c #18624F",
"p  c #166350",
"a  c #186551",
"s  c #1A6C54",
"d  c #166D54",
"f  c #177056",
"g  c #1B7156",
"h  c #1B7758",
"j  c #1D7959",
"k  c #2C6D4F",
"l  c #366047",
"z  c #3D6146",
"x  c #37684B",
"c  c #38664A",
"v  c #36734F",
"b  c #2D6F50",
"n  c #206F54",
"m  c #287655",
"M  c #2F7C55",
"N  c #227D5A",
"B  c #217255",
"V  c #347852",
"C  c #406446",
"Z  c #4E794D",
"A  c #517F4F",
"S  c #7E7543",
"D  c #83312D",
"F  c #8D3B35",
"G  c #903A33",
"H  c #824239",
"J  c #8C4439",
"K  c #8A4034",
"L  c #9A4236",
"P  c #9D4439",
"I  c #914839",
"U  c #9F523B",
"Y  c #A64A3A",
"T  c #A94C39",
"R  c #A54638",
"E  c #AF543B",
"W  c #B3543B",
"Q  c #BA593C",
"!  c #B7583B",
"~  c #1E835D",
"^  c #1E895F",
"/  c #20855E",
"(  c #20885F",
")  c #2F8F5F",
"_  c #2E8659",
"`  c #358256",
"'  c #308F5F",
"]  c #3A965F",
"[  c #1D8D61",
"{  c #1C9E66",
"}  c #1D9F69",
"|  c #228D62",
" . c #239364",
".. c #229966",
"X. c #219F68",
"o. c #379560",
"O. c #1DA36A",
"+. c #1EAC6D",
"@. c #1FB26F",
"#. c #1EB470",
"$. c #1DBC73",
"%. c #17BA73",
"&. c #20A269",
"*. c #21AA6C",
"=. c #33A466",
"-. c #22B46F",
";. c #25BE72",
":. c #2ABF71",
">. c #54814F",
",. c #558350",
"<. c #5F9254",
"1. c #609756",
"2. c #639B57",
"3. c #649D58",
"4. c #6E9151",
"5. c #5EA55D",
"6. c #6AA359",
"7. c #76B45E",
"8. c #78B65E",
"9. c #7BBA5F",
"0. c #53AF65",
"q. c #52B065",
"w. c #5EB564",
"e. c #60BC67",
"r. c #61B463",
"t. c #75BC62",
"y. c #7CBD60",
"u. c #3FC56F",
"i. c #2CC071",
"p. c #34C270",
"a. c #3BC370",
"s. c #43C66F",
"d. c #49C76E",
"f. c #4DC86E",
"g. c #54CA6D",
"h. c #5ACC6D",
"j. c #5FC46A",
"k. c #62CE6D",
"l. c #76C465",
"z. c #7FC061",
"x. c #7ECE67",
"c. c #7ECE68",
"v. c #69D06C",
"b. c #75D36B",
"n. c #7DD56A",
"m. c #858F4D",
"M. c #8CBE5E",
"N. c #88B35A",
"B. c #81C462",
"V. c #81CF68",
"C. c #8BD266",
"Z. c #81D369",
"A. c #8BD768",
"S. c #8CD969",
"D. c #90DB67",
"F. c #90D66C",
"G. c #91DB69",
"H. c #90D466",
"J. c #8FCC71",
"K. c #90CB74",
"L. c #93CE7B",
"P. c #92D276",
"I. c #95E16A",
"U. c #919F9B",
"Y. c #8EAD88",
"T. c #92BF85",
"R. c #93A99A",
"E. c #96BE94",
"W. c #98B4A3",
"Q. c #9BA7B7",
"!. c #9BAAB4",
"~. c #98A5AD",
"^. c #96C092",
"/. c #95C589",
/* pixels */
"G.G.G.G.G.G.D.D.D.D.D.G.G.G.G.G.G.G.G.G.G.G.G.G.G.G.A.G.G.b.u.%.%.u.n.G.G.D.G.G.G.G.G.G.G.G.G.G.G.G.G.G.G.G.S.G.G.G.G.G.G.G.G.G.",
"G.G.G.S.G.G.P.L.L.P.S.D.G.G.G.G.S.G.G.G.G.G.G.G.G.G.G.S.n.k.u.;.;.u.k.n.S.G.D.F.G.G.G.G.G.G.G.G.G.G.G.G.G.G.G.G.G.G.G.G.G.G.G.G.",
"G.G.G.D.D.P.^.W.E.^.P.D.D.F.G.G.G.G.G.G.G.G.G.S.G.G.G.Z.d.u.s.f.d.s.u.f.Z.G.G.D.F.G.G.G.G.G.G.G.G.G.S.G.G.G.G.G.G.G.G.G.G.G.G.G.",
"G.G.G.F.P./.W.Q.Q.~./.J.F.D.G.G.G.G.G.G.G.G.G.G.G.S.n.k.u.p.f.h.h.f.:.u.k.n.A.G.D.G.G.G.G.G.G.G.G.G.G.G.G.G.G.G.G.G.G.G.G.G.G.S.",
"G.G.D.P.E.W.Q.Q.Q.~.U.Y.K.D.D.G.G.G.G.G.G.G.G.G.G.n.f.a.s.f.h.h.h.h.f.s.a.f.n.G.G.G.G.G.G.G.G.G.G.G.G.G.G.G.G.G.G.G.G.G.G.G.G.G.",
"G.D.G.P.E.W.W.E.W.R.R.Y.K.D.D.G.G.G.G.G.G.G.G.G.G.b.p.;.f.h.h.h.h.h.h.d.:.p.b.G.G.G.G.G.G.G.G.G.G.G.G.G.G.G.G.G.G.G.S.G.G.G.G.G.",
"G.S.G.F.L.L.L.L.L.L.K.K.F.G.D.G.G.G.G.G.G.G.G.G.G.b.a.:.d.h.h.h.h.h.h.d.i.a.b.G.G.G.G.G.G.G.G.G.G.G.G.G.G.G.G.G.G.G.G.G.G.G.G.G.",
"G.G.G.D.D.D.D.D.D.D.D.D.G.G.G.G.G.G.G.G.F.G.G.S.Z.k.a.p.f.h.h.h.h.h.h.d.p.a.k.Z.A.G.D.F.G.G.G.G.G.G.S.G.G.S.G.G.G.G.G.G.G.G.G.G.",
"G.G.G.G.G.D.D.G.D.D.G.D.G.G.G.G.G.G.G.G.G.G.G.n.f.a.s.f.g.h.h.h.h.h.h.h.g.s.a.f.n.G.G.G.G.G.G.D.G.G.D.I.G.S.G.G.G.G.G.G.G.G.G.G.",
"G.G.G.G.G.G.G.G.G.D.G.G.G.G.G.G.G.G.G.G.G.A.n.k.a.p.f.h.h.h.g.h.h.h.g.h.h.f.p.a.k.n.S.G.G.G.F.D.G.S.P./.L.P.G.G.G.G.G.G.G.G.G.G.",
"G.G.G.G.G.G.G.G.G.G.G.G.G.G.G.G.G.G.G.G.G.n.f.a.s.f.g.h.h.h.h.h.h.h.h.h.h.g.f.s.a.f.n.G.G.G.G.D.D.P.E.W.W.^.P.G.S.G.G.G.G.G.G.G.",
"G.G.S.G.G.G.G.G.G.G.G.G.G.G.G.G.G.G.G.S.Z.k.a.p.f.k.h.h.h.h.h.h.h.h.h.h.h.h.h.f.p.a.k.Z.A.G.G.D.D.P.E.W.W.E.P.S.G.G.G.G.S.G.G.G.",
"G.G.G.G.G.G.G.G.G.G.G.G.G.G.G.S.S.I.G.n.f.a.s.f.h.h.h.h.h.h.h.h.h.h.h.h.h.h.h.h.f.s.a.f.n.G.G.D.D.G.P.L.L.P.F.G.S.G.G.G.G.G.G.G.",
"G.G.G.G.G.G.G.S.G.G.G.G.G.G.G.G.S.S.n.k.a.p.f.k.h.g.h.h.h.h.h.h.h.h.h.h.h.h.h.h.h.f.p.a.k.Z.G.G.G.S.G.G.G.G.G.G.G.G.G.G.G.G.G.G.",
"G.G.S.G.G.G.G.G.G.G.G.G.G.G.G.G.G.n.f.p.s.f.g.h.h.h.g.h.h.h.h.h.h.h.h.h.h.g.g.h.h.h.f.s.a.f.b.G.G.G.G.D.G.S.G.G.G.G.G.G.G.F.G.G.",
"G.G.G.G.F.G.G.G.G.G.G.G.G.G.G.G.I.b.p.i.f.h.h.h.h.h.h.h.h.h.h.h.h.h.h.h.h.h.h.h.h.h.h.d.:.p.b.G.G.G.S.G.G.G.G.G.G.G.G.G.G.G.G.G.",
"G.G.G.G.G.G.G.S.G.G.G.G.G.S.G.G.G.n.:.:.f.h.h.h.h.h.h.h.h.h.h.h.g.h.h.h.h.h.h.h.j.h.h.d.:.u.n.G.G.G.G.G.G.G.G.G.G.G.G.G.G.G.G.G.",
"G.G.G.G.G.G.G.G.G.G.G.G.G.G.G.S.n.k.a.u.f.h.h.h.h.h.h.h.h.h.h.h.h.h.h.h.h.h.h.h.h.h.h.f.:.:.k.n.S.G.D.G.G.G.G.G.G.G.S.G.G.G.G.G.",
"G.G.G.G.G.G.G.G.G.G.G.G.G.G.G.n.f.u.s.f.g.h.h.h.h.h.g.h.h.h.h.h.h.h.h.h.h.h.h.h.h.h.h.g.g.d.u.f.Z.G.G.F.G.G.G.G.G.G.G.G.G.G.G.G.",
"G.G.G.G.G.G.G.G.G.G.S.G.G.S.Z.k.u.:.f.h.h.h.h.h.h.h.h.g.h.h.h.h.h.h.h.h.h.h.h.h.h.h.h.h.k.f.:.u.k.n.D.G.G.A.G.G.G.G.G.G.G.G.G.G.",
"G.G.G.G.G.G.G.G.G.G.G.G.G.n.f.a.s.f.h.h.h.h.h.h.h.h.h.h.h.h.h.h.h.h.h.h.h.h.h.h.h.h.g.h.h.g.f.s.u.f.Z.G.G.G.G.G.G.G.G.G.G.G.G.G.",
"G.G.G.G.G.G.G.G.G.G.G.S.Z.h.i.;.d.j.h.h.h.h.h.h.h.h.h.h.h.h.h.h.h.h.h.h.h.h.g.h.h.h.h.h.h.h.h.f.:.:.h.n.D.G.G.G.G.G.G.G.G.G.G.G.",
"G.G.G.G.G.G.G.S.G.G.G.n.g.i.$.i.f.h.h.h.h.h.h.h.h.h.h.h.h.h.h.h.h.h.h.h.h.h.h.h.h.h.h.h.h.h.h.f.:.$.:.g.n.G.G.G.S.G.G.G.G.G.G.G.",
"G.G.G.G.G.G.G.G.G.S.n.h.i.;.p.a.d.f.g.h.h.g.f.f.g.h.h.h.h.h.h.h.h.h.h.h.h.h.h.g.g.f.g.h.h.h.f.d.u.p.$.:.h.n.G.D.G.G.G.G.G.G.G.S.",
"G.S.G.G.G.G.G.G.G.n.f.i.$.p.h.v.u.p.d.h.h.g.p.p.d.h.h.h.h.h.h.h.h.h.h.h.h.h.h.f.a.:.g.h.h.f.p.a.k.k.i.$.:.f.n.G.G.G.G.G.G.G.G.G.",
"G.G.G.G.G.G.G.G.G.n.f.p.p.d.v.v.u.p.f.h.f.u.:.:.d.h.h.h.h.h.h.h.g.h.h.h.h.h.h.f.:.;.s.f.h.f.p.a.v.v.d.u.p.f.n.G.G.G.G.G.G.G.G.G.",
"G.G.G.G.G.G.G.G.G.S.n.b.n.v.d.a.s.g.h.g.p.:.$.:.f.h.h.h.h.h.h.h.h.h.h.h.h.h.h.f.:.;.;.p.f.h.f.d.a.d.v.b.b.n.A.G.G.G.G.G.S.G.G.G.",
"G.F.G.G.G.G.G.G.G.G.G.S.n.k.a.p.s.f.d.u.:.%.:.p.g.h.h.g.f.d.h.h.h.g.g.f.g.h.h.f.:.:.$.;.s.f.f.s.p.a.k.Z.D.G.G.G.G.G.G.G.G.G.G.G.",
"G.G.G.G.G.F.G.S.S.G.G.V.g.u.s.s.p.:.:.:.$.:.u.g.h.h.h.g.p.p.f.j.h.f.p.p.f.h.h.g.f.s.;.;.:.i.i.p.s.s.a.g.n.G.G.D.S.G.G.G.G.G.G.G.",
"G.G.G.G.G.S.G.G.G.S.x.k.:.;.u.s.:.$.$.$.:.p.f.h.f.d.d.u.:.:.f.h.h.d.i.i.u.g.g.k.h.f.:.$.$.%.%.i.s.s.;.:.j.V.F.G.G.G.G.G.G.G.G.G.",
"G.G.G.G.G.G.G.G.G.V.0.=.-.$.:.i.$.$.$.:.u.g.h.g.u.:.:.:.$.:.f.h.h.f.i.%.i.p.g.h.h.f.:.$.$.$.%.$.i.i.;.-.=.0.V.G.G.G.S.G.G.G.G.G.",
"G.G.G.G.G.G.G.S.V.e.=.} @.$.@.@.@.@.%.i.d.h.f.u.:.%.%.$.$.:.d.h.g.s.i.%.%.i.u.g.h.f.:.$.$.$.#.+.#.+.#.+.} =.e.V.S.G.G.G.F.G.G.G.",
"G.G.G.D.G.G.G.n.0.=.*.#.$.#.&.....&.#.i.f.f.a.:.;.%.$.%.$.:.f.f.p.i.;.$.$.$.;.a.f.f.:.$.$.@.&.........&.+.*.=.0.V.G.G.D.D.G.G.G.",
"G.G.G.G.G.A.V.w.=.O.#.$.#.&...|  .} #.;.s.s.:.%.%.;.$.$.$.;.s.s.i.%.$.$.$.$.$.;.u.u.:.$.$.@.O...| | | ..*.+.O.=.e.V.D.D.G.G.F.G.",
"G.G.G.G.G.V.0.=.*.#.$.#.&...| ..*.#.$.;.:.;.;.%.$.$.$.$.$.;.:.:.$.$.$.$.$.$.$.;.:.:.;.$.$.$.@.*. .| | | ..&.+.*.=.0.x.G.G.G.D.G.",
"H.G.G.A.Z.e.=.O.+.#.-.&...| ..&.#.$.$.#.#.#.$.$.$.$.$.$.$.$.$.$.$.$.$.$.$.$.$.$.$.$.@.-.$.$.$.@.&... .| ( ..*.+.} =.e.V.A.G.G.D.",
"G.G.G.V.0.=.*.+.X....... ...&.#.$.$.$.#.&.X.#.$.$.$.$.$.$.$.$.$.$.$.$.$.$.$.$.$.$.@.&.&.@.$.$.$.@.*...| |  ...&.+.+.=.q.V.G.G.G.",
"G.A.c.w.) ^ { { [ / | | ..&.#.$.#.#.#.*.X.X.#.$.$.-.#.#.+.#.;.%.$.$.#.+.+.#.$.$.$.@.&.X.+.@.-.@.$.#.&... .| ( ^ { { ^ ) w.x.A.G.",
"G.c.q.) g p d s a s / ..*.#.$.#.X.....X.+.#.$.$.$.#.&.....O.#.$.$.#.X.....&.#.$.$.$.@.+.&.....O.#.$.#.*...( s u d d p g ) q.x.G.",
"G.c.q.o.` b 8 7 8 s / ..*.#.#.&...| | ..-.$.$.$.#.&...| | ..#.$.$.-...| | ..+.#.$.$.$.-...( |  .*.@.@.+.&.( g i 7 8 b ` o.q.c.G.",
"S.S.x.l.l.6.b 7 h ( |  ......... .| | ..+.$.$.#.&...| | | ..-.$.$.*... .|  ...&.-.$.$.#...| |  .......X.*.+.[ h 8 b 5.t.l.x.A.G.",
"G.G.G.G.V.r._ h ~  . .|  .| | | j | ..&.#.$.#.*...| |  .| ..&.#.$.#...| | | | ..*.#.$.#.&. .( ( | | | ..*.*...~ h _ r.Z.G.G.G.G.",
"D.G.G.V.q.=.O.O. .| | | |  .| ( g h } #.$.#.&... .| |  .|  ...} #.#...| | | | | ..&.-.$.$.} h s ( | |  ..... . .{ &.=.q.Z.G.G.G.",
"G.A.Z.e.=.{ +.+...| ( / ~ / / j s h } #.#.*...| N | | |  .| | | O.*... .| | ( | | ..*.#.@.} h s j / ~ ~ ~ ( | ..+.+.} =.e.V.A.G.",
"G.c.q.=.*.+.O... .( s s a a a s j ( ........ ./ g s | | | [ g g | .. .| | ( s g /  .....X...( j s a a a u g (  ...&.+.*.=.q.x.G.",
"G.l.o.[ O.*...| ( h p 6 6 7 i s (  .| | ( / / j a a N  .| N p i h ( |  .| ( s a j N ~ ~ | | | ( s i 7 7 6 i j ( | X.*.O.[ ] l.G.",
"I.t.` d [ ..../ g i 7 6 7 i h ( | | | ( g a i s h | | |  .| a 7 i g ( |  .| ( h s p p g ( |  .| ( h i 7 7 7 i g (  ...[ g ` l.G.",
"I.t.V p N | ( h u 7 7 7 7 a /  . .| ( j i 6 6 a [  .| | | g p 7 6 p h | | |  .| g 8 8 p h ( |  . .( a 6 7 7 6 i h (  .j u V t.I.",
"I.t.V p / ( g p 8 7 7 7 6 p ~  . .( g u 7 6 6 a /  . .( g p 7 7 7 8 i g (  . .| ( h p 8 u g ( ..| / p 6 7 7 6 7 p g ( ~ p V t.I.",
"l.6.M d j j 8 2 2 6 7 8 p g (  .( j u 7 7 8 p s ( | | h p 6 5 6 6 5 6 p h ( |  . ./ a 6 6 i h ~ | | s p 8 7 6 2 2 8 j j s M 6.t.",
"V V / j s 8 3     1 5 a h | | ( g u 7 7 7 a j ( | | s p 8 2 3 1 1 1 6 8 p s [ | | / a 7 7 7 u g ( | | h p 5 1     3 8 s j / M V ",
"6 8 g g 6 0 r C C r q 8 h ~ / j p 6 4 4 2 i / | ( h i 6 2 9 e O O * 9 6 6 p j ~ | / i 4 2 6 7 p h | | / 8 0 t z z r 0 7 g f p 6 ",
"7 6 2 9   r <.8.t.2.r 1 8 s a i 8 6 1 % % 0 N ( s p 8 6 1 & : H H : * 1 6 8 u g ( N 0 X & 1 4 8 p g | N 5 t 2.B.8.1.r   1 5 5 7 ",
"V m c t t A B.G.B.2.t 1 2 2 6 2 2 0 l y & 9 N ( s 6 6 9 = - I T R J @ * 2 6 6 d / N 9 & y l 5 4 2 8 s n q x 3.B.G.B.A t t c v M ",
"t.t.7.7.7.B.H.B.,.r 5 2 1         r 3.3.y 9 N ( p 6 1 = , Y E E R L H : * 1 6 s ( N 9 t 2.3.r     9 9 q B m c A B.F.B.7.7.7.t.t.",
"G.G.G.I.G.H.z.1.e   3 q r C z t z Z 6.3.t 5 g j i 9 * - U Q Q ! T Y T I @ o 9 8 j B 2 r 3.6.Z z t t y c m s 1 e 1.9.A.I.G.G.G.G.",
"I.G.G.G.G.y.A e X .   r 1.8.8.7.8.6.Z r 0 7 u i 2 * : J E Q Q ! W W W E J : e 1 8 u 7 5 l Z 6.8.8.8.8.1.x 1   X e A B.G.I.G.G.G.",
"G.G.G.G.G.y.A t t z t A y.I.I.I.I.8.t   3 4 4 3 % O H T W Q Q ! Q Q Q W T H O   2 4 4 3   t 8.I.I.G.I.B.A t t t y A 9.G.G.G.G.G.",
"G.G.G.G.G.C.t.7.7.8.8.B.A.G.G.I.I.7.t .     %     O H T W Q Q Q Q Q Q W R , O     %     . t 7.I.I.G.G.A.y.7.7.7.7.t.C.G.G.G.G.G.",
"G.G.G.G.G.G.G.I.G.G.G.G.G.G.G.G.G.9.>.t t l z y o + H T W Q Q ! Q Q Q W Y F + o y z z z t A t.G.G.G.G.G.G.G.I.G.G.G.G.D.G.G.G.G.",
"G.G.G.G.G.G.G.G.G.G.G.G.G.D.D.G.G.C.t.7.7.7.7.4.- # G T W Q Q ! Q ! Q ! Y F # - 4.8.8.7.7.y.C.G.G.G.G.G.G.I.G.I.G.G.G.G.G.G.G.G.",
"G.G.G.G.G.G.G.G.G.G.G.G.G.G.D.F.G.G.G.I.I.I.I.M.S , K L T W W W W W W T L F , S M.I.I.G.G.G.G.D.D.G.G.G.S.G.G.G.G.G.G.G.G.G.G.G.",
"S.G.G.G.G.G.G.G.G.G.G.G.G.G.G.D.G.G.G.G.S.I.D.D.M.m., D L Y Y Y Y Y Y L D , m.B.A.G.G.G.G.G.G.S.G.G.G.G.G.G.G.G.G.G.G.G.G.G.G.G.",
"G.G.G.G.G.G.G.G.G.G.G.G.G.G.G.G.G.G.G.G.S.D.D.I.I.N.< $ F P P P P P R G $ < N.I.I.G.G.G.G.G.G.G.G.G.G.G.G.G.G.G.G.G.G.G.G.G.G.G."
};
