/* XPM */
static char *_1741362324[] = {
/* columns rows colors chars-per-pixel */
"32 32 12 1 ",
"  c #91DB69",
". c #1EBC73",
"X c #9BABB2",
"o c #5ACC6D",
"O c #8D8E9E",
"+ c #239063",
"@ c #165A4C",
"# c #233C3C",
"$ c #9E4539",
"% c #B9593C",
"& c #6E2727",
"* c white",
/* pixels */
"               ..               ",
"   XX         .oo.              ",
"  XXXO       .oooo.             ",
"             .oooo.             ",
"            .oooooo.            ",
"           .oooooooo.    XX     ",
"          .oooooooooo.          ",
"         .oooooooooooo.         ",
"         .oooooooooooo.         ",
"        .oooooooooooooo.        ",
"       .oooooooooooooooo.       ",
"      ..oooooooooooooooo..      ",
"     .. .oo.oooooooo.oo. ..     ",
"       .oo..oooooooo..oo.       ",
"      .o...ooo.oo.ooo...o.      ",
"     +....oo...oo..oo.....+     ",
"    +..++.o....o....o..+++.+    ",
"   +..++................+++.+   ",
"  +.+++...+..........+...+++.+  ",
" +@@@+..++...++..++...++..+@@@+ ",
"   @++++++..+++..+++..++++.+@   ",
"  +.++++@..+++++.++++..@++++.+  ",
" +.++@@@++++@++@+++@++++@@@++.+ ",
" @++@@@+++@@+++@@+++@@+++@@@++@ ",
" @+@@@@++@@@++@@@@+++@@++@@@@+@ ",
"@+@##@++@@@++@@##@@++@@@++@##@+@",
"@##  #@@@##+@@#$$#@@+##@@+#  ##@",
"    #@### #+@#%%$$#@+# ###+#    ",
"   ###   #@@#$%%%%$#@@#   ###   ",
"         ####$%%%%$####         ",
"            &$%%%%$&            ",
"             &$$$$&             "
};
