/* XPM */
static char *c1741379524[] = {
/* columns rows colors chars-per-pixel */
"64 64 206 2 ",
"   c #3F262F",
".  c #41262F",
"X  c #4C292F",
"o  c #4E2A30",
"O  c #532731",
"+  c #532B30",
"@  c #543F2E",
"#  c #6C2526",
"$  c #742A29",
"%  c #7A2929",
"&  c #752327",
"*  c #7D372F",
"=  c #6D2A33",
"-  c #7A2C33",
";  c #673030",
":  c #753331",
">  c #793431",
",  c #7F3930",
"<  c #58432E",
"1  c #56412E",
"2  c #4E4734",
"3  c #504934",
"4  c #73592D",
"5  c #644135",
"6  c #794633",
"7  c #784A34",
"8  c #744E35",
"9  c #765337",
"0  c #7D612D",
"q  c #696639",
"w  c #73713A",
"e  c #716F3A",
"r  c #3F7A52",
"t  c #4F734E",
"y  c #7B7443",
"u  c #6A6A4A",
"i  c #9D1E2F",
"p  c #AC1E32",
"a  c #84332F",
"s  c #81382F",
"d  c #853731",
"f  c #893731",
"g  c #8B3932",
"h  c #813A30",
"j  c #923B33",
"k  c #9D3933",
"l  c #9B3B3A",
"z  c #91262D",
"x  c #AC2233",
"c  c #A7213B",
"v  c #BD2434",
"b  c #BB2835",
"n  c #B52637",
"m  c #A13136",
"M  c #A33934",
"N  c #BD3538",
"B  c #B83436",
"V  c #C01F32",
"C  c #C82635",
"Z  c #C72B38",
"A  c #C53638",
"S  c #CC3639",
"D  c #CD393A",
"F  c #C33937",
"G  c #DC3438",
"H  c #D63A39",
"J  c #DE393A",
"K  c #E6393A",
"L  c #EA3B3B",
"P  c #E13438",
"I  c #994134",
"U  c #8D523C",
"Y  c #A84B3C",
"T  c #B2453D",
"R  c #B2483E",
"E  c #BC4D39",
"W  c #B3543A",
"Q  c #82642D",
"!  c #CE4139",
"~  c #962156",
"^  c #9C214C",
"/  c #AD284F",
"(  c #AC3561",
")  c #CD3244",
"_  c #D53541",
"`  c #D53947",
"'  c #EB3F41",
"]  c #A44E40",
"[  c #A55041",
"{  c #9F734A",
"}  c #866B4D",
"|  c #A0714A",
" . c #A06E49",
".. c #E8474D",
"X. c #E94D53",
"o. c #F37E58",
"O. c #F46E52",
"+. c #D75E79",
"@. c #F26469",
"#. c #EB6472",
"$. c #1BBA73",
"%. c #30AD6A",
"&. c #50B666",
"*. c #73B661",
"=. c #7FAB51",
"-. c #1BC275",
";. c #2EC171",
":. c #36C471",
">. c #4DC86E",
",. c #58CB6E",
"<. c #4CCB70",
"1. c #7DCC65",
"2. c #7DD56A",
"3. c #75D66C",
"4. c #AB852C",
"5. c #B6A13A",
"6. c #FA9F19",
"7. c #FA9618",
"8. c #FAA61C",
"9. c #FCAA1E",
"0. c #C79B2B",
"q. c #E39720",
"w. c #F8932E",
"e. c #D3A52B",
"r. c #DEA52A",
"t. c #DEA929",
"y. c #CAB23A",
"u. c #CDA933",
"i. c #E6A827",
"p. c #E5A928",
"a. c #E1A528",
"s. c #EDB92B",
"d. c #EDB729",
"f. c #F4B125",
"g. c #FAB624",
"h. c #FAB926",
"j. c #F9BD2B",
"k. c #F7AC39",
"l. c #F7A73D",
"z. c #F8BC30",
"x. c #FAC32A",
"c. c #FCC429",
"v. c #FBCC38",
"b. c #838E4C",
"n. c #959740",
"m. c #9F8C52",
"M. c #83914E",
"N. c #A08C52",
"B. c #9CB34F",
"V. c #97B44F",
"C. c #87AE55",
"Z. c #98AD5B",
"A. c #8ABD5E",
"S. c #89B35A",
"D. c #98BD55",
"F. c #95B45E",
"G. c #A4AA45",
"H. c #AEB446",
"J. c #A7BA4D",
"K. c #A9B94C",
"L. c #B6BC45",
"P. c #BBBF46",
"I. c #B3B847",
"U. c #B2A851",
"Y. c #94BC60",
"T. c #8DBB60",
"R. c #CEBE58",
"E. c #F7AF40",
"W. c #E4A779",
"Q. c #E58F72",
"!. c #9AC75A",
"~. c #9ACA5B",
"^. c #95C85E",
"/. c #BECA4A",
"(. c #B9C147",
"). c #A9CA54",
"_. c #A1CF5B",
"`. c #A7CB57",
"'. c #94CE60",
"]. c #94C061",
"[. c #8FD366",
"{. c #8EDC6A",
"}. c #93D364",
"|. c #92D866",
" X c #91DB69",
".X c #81C862",
"XX c #8FE26B",
"oX c #91E26B",
"OX c #CBD449",
"+X c #CAD648",
"@X c #D4DE4B",
"#X c #DACE5A",
"$X c #DBC65F",
"%X c #DAD754",
"&X c #F9D142",
"*X c #F8C642",
"=X c #D5E14A",
"-X c #D9E44B",
";X c #DEE659",
":X c #F4D777",
">X c #F6F477",
",X c #F3ED67",
"<X c #DEC960",
"1X c #ED7386",
"2X c #E8928A",
"3X c #ECAC85",
/* pixels */
" X X X X X X X X X X X X X{.{.{.|.|. X X X X X X X X X X X X X X X X X X X X X X X|. X{. X{.{. X X X X X X X X X X X X X X X X X",
" X X X X X X X X X X X}._.).)._.|.{. X X|. X X X X X X X X X X X X X X X X X X X X X X|.}.'.'.'.}.{. X X|. X X X X X X X X X X X",
" X X X X X X X X X X{._.y.a.a.y._.XXXXoX X X X X X X X X X X X X X X X X X X X|. X X X}.D.B.B.D.}.{. X X X X X X X X X X X X X X",
" X X X X X X X X X}._.P.i.6.6.p.(._.|.XX X|. X X X X X X X X X X X X X X X X X X X}.}.!.K.I.H.K.!.}.}.{.{.|. X X X X X X X X X X",
" X X X X X X X X X_.y.p.f.g.g.f.i.y._.oX{.|.|.{. X X X X X X X X X X X X X X X X{.}.D.K.OXOXOX/.K.D.}.{.{.}. X X X X X X X X X X",
" X X X X X X X X X_.y.q.f.h.j.h.8.i.5._.|.{.XX|. X X X X X X X X X X X X X X X X X}.D.K./.OX=XOXP.J.!.}. X{. X X X X X X X X X X",
" X X X X X X X X X|._.OXp.8.h.x.h.f.i.y._.{.{.|. X X X X|. X X X X X X X X X X X{.}.}.~.J.I.OX@XOX/.J.D.}. X{. X|. X X X X X X X",
" X X X X X|. X X X|.'.P.p.8.h.x.c.h.8.i.(._.|.{. X X X X X X X X X X X X X|. X X X X}.^.J.L.OX=X-XOXP.J.!.}.}. X X X X X X X X X",
" X X X X X X X X X_.y.p.f.j.j.j.x.j.j.f.a.y._.{.{. X X X X X X X X X X X X X X{. X}.D.J./.OX@X@X=X@XOX/.J.D.}. X X|. X X X X X X",
" X X X|. X X X|._.P.p.9.g.x.x.x.j.x.x.g.8.i.R._.|.{. X|. X X X X X X X|. X X X}.}.!.J.L.OX=X-X@X@X=X=XOXL.J.!.}.|. X X|. X X X X",
" X X X X X{.{._.y.p.f.g.j.x.x.j.x.x.x.j.h.f.a.y._.{. X X|. X X X X X X X X X{.}.D.J./.OX@X@X=X@X@X=X=X@XOXOXJ.D.}. X X X X X X X",
" X X X X X|._.P.p.8.g.x.x.x.j.x.x.j.x.x.x.h.8.i.P._.|.{. X X|. X X X X X{.}.}.!.J.(.OX-X-X@X@X=X=X@X@X@X@XOXL.J.].}.|. X X|. X X",
" X|. X{.{._.y.i.f.h.j.x.x.x.x.x.x.j.x.x.x.j.h.f.i.y._.{. X X X X X X X X X}.D.J./.OX@X=X=X@X@X=X=X@X@X=X=X@XOX/.K.D.}. X X X X X",
" X X X|._.P.i.8.h.x.x.x.x.j.x.j.x.j.x.x.x.x.x.h.8.i.P._.|. X X X X X X X}.].J.I.OX-X=X=X=X@X@X=X@X=X=X=X=X@X=XOXP.K.!.}.|. X X X",
" X X X_.y.i.f.h.j.x.x.x.x.x.x.z.x.x.x.x.x.j.x.j.g.f.i.y.`.{.{. X X X X}.D.K.OXOX@X-X-X=X=X@X@X@X=X=X-X-X@X=X@X@XOX/.J.F.'. X X X",
" X{. X).a.6.h.x.x.s.e.e.s.x.x.x.x.s.e.e.s.x.x.x.x.g.6.a.).{.{. X X X X].B.I.OX%X-XOXI.I.OX-X=X=X=XOXI.I.OX-X-X@X-XOXH.B.'. X X X",
" X{.{.).r.6.g.x.c.e.Q 0 e.c.x.c.c.e.0 0 e.c.x.x.x.g.6.r.`.{. X X X X X'.V.H.+X-X-X5.e e (.-X-X-X;XL.e e L.-X=X=X=X+XH.B.^. X X X",
" X X{.`.r.6.g.s.e.4.9 4 4.e.s.z.t.4.4 4 4.e.s.x.x.g.6.r.`.{.{. X X X X'.V.H.+X+X/.n.q q n.(.+X+X(.n.q q n.).+X=X=X+XH.B.}.{.{.|.",
"|.{.{.`.a.6.h.e.Q 4 4.4.4 Q e.e.Q 4 4.4.4 Q e.x.x.g.6.r.`.{.{. X X X X'.B.I.+XL.w q n.n.q w ).(.w q n.n.q w L.-X=X+XH.B.'.{. X X",
"{.|._.P.p.9.h.0.@ @ e.0.< < 0.0.< < 0.e.< 2 0.c.x.j.9.i.P._.}.{.{.|.}.~.J.(.=XB.2 3 ).5.3 3 5.J.2 3 H.G.3 3 5.-X=X+X(.J.!.}.|. X",
"XX~.y.i.f.j.c.0.@ < 0.e.@ @ 0.0.< < 0.0.< @ 0.x.x.j.h.f.i.y._.{.XX}.D.J./.+X=X5.2 3 5.).3 3 H.5.2 3 H.H.3 2 K.-X=X@XOX/.J.D.}.{.",
"`.P.p.8.h.c.x.e.Q Q e.e.Q Q e.e.Q Q e.e.Q Q e.x.x.x.x.h.8.i.P._.^.~.J.(.+X=X-XL.e e L.L.w w (.L.w w L.P.w e 5.-X=X=X=XOX(.J.!.'.",
"r.i.f.h.j.x.x.s.e.e.s.s.e.e.f.f.e.e.d.s.e.e.s.x.x.x.x.j.h.f.i.u.H.J./.+X@X=X=X+XL.L.+X/.).(.+X).L.L.+XOXL.L.+X=X=X=X@X@XOX/.J.B.",
"7.8.g.z.k.E.l.k.z.x.x.x.c.c.v.v.v.c.j.j.k.E.l.k.z.x.x.x.x.g.6.q.5.K.+X@X#X$X#X%X=X-X=X-X-X-X;X=X-X-X=X@X#X<X$X#X@X=X=X-X=X+XH.G.",
"7.6.g.k.o.@.@.o.k.x.x.x.c.v.,X,Xv.c.x.k.o.@.@.o.k.x.x.x.x.h.6.q.5.H.+X#XW.2X2XW.#X=X=X=X=X-X>X>X-X=X=X#XW.2X2XW.#X@X=X=X=XOXK.G.",
"7.7.g.k.o.@.@.o.k.x.x.x.j.&X>X>X&Xc.x.k.o.@.@.o.k.x.x.x.x.g.6.q.5.K.OX#XW.2X2XW.#X@X=X@X=X;X>X>X;X@X=X#XW.2X2XW.#X=X=X=X=XOXK.n.",
"7.8.g.x.k.l.l.k.s.x.x.h.j.&X>X,Xv.x.h.j.k.l.l.k.j.x.x.x.x.g.6.q.5.H.OX@X#X$X$X#X%X=X@X@X=X;X>X>X;X=X=X@X#X$X$X#X@X=X=X@X@XOXH.G.",
"r.p.f.d.x.x.x.x.x.x.x.x.j.z.:X:X*Xx.x.x.x.x.x.x.x.x.x.s.h.f.i.u.H.J./.OX=X=X=X@X=X=X@X@X=X;X:X:X;X=X=X=X=X=X=X=X@X@X=X@XOX/.J.B.",
"`.L.i.9.h.x.c.x.x.x.x.x.x.k.Q.o.E.x.x.x.x.x.x.x.x.x.x.g.8.i.P._.'.^.J.P.+X=X=X=X@X@X@X@X@X<X3X3X#X=X=X=X@X@X@X@X=X=X=XOXP.J.~.'.",
"{._.y.i.f.g.g.g.g.g.g.g.f.l.O.O.l.h.g.g.g.g.g.g.g.g.g.f.i.y._.XX X'.D.J./.+X+X+XOXOXOXOXOXP.W.Q.R.+XOXOXOXOXOXOXOXOXOX/.J.D.|. X",
"{.|._.(.i.6.6.6.6.6.6.8.6.7.w.w.7.6.6.6.6.6.6.6.6.6.6.a.P._.|.{.{. X}.!.J.H.H.H.H.H.K.K.K.U.U.U.I.5.H.H.H.H.H.H.H.H.I.K.!.}.|. X",
"|.{.{._.y.r.a.r.r.r.r.r.r.t.r.r.r.r.r.r.r.r.r.r.r.r.r.y._.{. X|. X X{.'.D.B.V.V.B.B.J.B.B.V.V.V.C.=.C.C.V.V.C.C.V.B.B.F.}.{. X X",
" X X X|._.).).).`.).`.`.`.`.`.`.).).).).).).).).).).)._.|. X X X X X{.|.}.^.}.^.'.'.'.'.}.}.|..X>.%.&.>..X.X&.>..X'.'.}.|. X X|.",
" X X X X X{.{.{.{.{.{.[.A.C.S.A.[.XX2.3.{. X{.{.{.{. X{. X X X X|. X|.{.{.|. XXX X XoX[.Y.Z.Z.*.%.-.$.:.3.3.:.:.3. X X X X X X X",
" X|. X X{. X{. X{. XXXA.y 8 7 y .X2.>.<.3. X X{.{. X{. X X X|. X X{.|.|.|.{.{. X X XoXY.| B ] y %.$.-.:.3.3.:.%.3. X X X X|.|.{.",
" X X X X X X X X X[.A.b.7 & & 6 b.*.;.;.,.2.{.|. X|.|. X X|.2.3.{.|.{.{. X X X X X}.Y.N.] C V / u %.$.:.3.2.<.<.2.|. X X X X X X",
" X X X X X X X X XA.y 6 * a a a 6 u %.-.;.>.2. X X{.{.|.oX{.<.>.2. X X X X X X X XF.| D S G G S Y u %.:.3.{.[.3.[. X X X X X X X",
" X X X X X X X X XA.w 6 h h f a % 5 r %.$.%.,.{.{. X|.{.2.,.;.;.3. X X X X X X XoXF.| ] S G K P Z ^ u &.2. X X X{. X X X X X X X",
" X X X X X X X X{.[.T.b.7 % a g a * @ t %.$.;.>.2.|. X2.,.%.$.;.3.|. X X X X X{. X}.Y.N.] C G L P F I } T.{. X X X{. X X X X X X",
" X X X X X X X X X[.].b.7 % d g g a & ; r %.$.;.3.{.{.,.;.$.;.>.2.|. X X X X X X X|.].N.] C G L L P C R m.Y. X X{.|. X X X X X X",
" X X X X X|.{. X XA.y 7 , f f g g f a s 5 t %.%.3.2.>.;.$.:.,.{.|. X X|. X X|.XXXXY.{ R D G K L L K P S T | Y.oX X X X X X X X X",
" X X X|.{. X X[.A.b.7 % a g g f g g g a a ; r &.3.3.:.$.%.>.2. X|.{.{. X X{. X}.Y.m.T C J L L K L L L G C T N.Y.[. X X X|. X X X",
" X X X X{.{.oXT.y 6 a a f g g g f g g f a * 1 u A.3.:.;.,.2.{.|. X X X|. X XXXF.{ T S G K K K K K L L K P S T  .Y.XX X X X X X X",
" X|. X X X[.T.b.6 % a g g g g g g g g g f a $ 6 b.*.>.<.{.oX X{.{. X|.{.XX}.Y.m.T C P L L K L L L K K L L P C T N.Y.|.{. X|. X X",
" X X{. XoXA.y 7 * a g g g g g g g g g g g f a s 6 y *.2.{. X X X X|. XoXXXF.| T S G K L L K K L K K L L L K G Z ]  .Y.XX X X X X",
" X X X}.A.b.6 % d g g g g g g g g g g g g g j a % 6 b.A.[. X X X X{.{.}.Y.m.T C P L L L L L K L L K L L K ' K P C ] N.Y.[. X X X",
" X X XA.y 6 * a f g g g g g g g g g g g g g f f a a 6 y A. X X X X X XF.| T D G K L L L L K K K K K L L L L L K P G B { Y.XX X X",
" X X XC.8 & a g g f > > f g g g g a > > d g g g g a & 8 C.oX X X X XXXZ.Y v G L L J A A G L L L L G A A P L L L L G v ] Z. X X X",
" X XoXS.8 & a g g , O + > g g g g > + + > g g g g a & 8 C. X X X X X{.Z.] v G L L A - - A L L L ' A - - A L L L L G v ] Z. X X X",
" X X XS.9 $ a g > ; X X ; > f g * ; X X ; , f g g a & 9 S.oX X{. X{.oXZ.] v G P S k = = m S K P S m = = k S P ' L G V ] Z. X X X",
"{. XoXS.4 & a : + X ; ; X + > > + o ; ; X + > g g a & 9 S.oX X X|.oXoXF.] v P A - = m m = - A A - = m m = - S L L G v ] F.XX X X",
"oX[.A.b.7 % a :   . : > .   : : . . > : . . : g g f $ 7 M.A.[.{.{.}.Y.N.T C P B O O N A O O N B O O N N O O B L L G C ] m.Y.|.XX",
"oXA.} 8 , s g :     : > . . > :   . : : .   : g g f a s 6 y A.XXXXY.{ T S K K B O O N N + O N B O O N N O O B L L K P S ] | !.oX",
"S.b.7 & a g f > + + > > + + > > + + > > + + : g g g g a % 6 b.S.F.m.T Z P L L A - - A A - % S S - - S A - - A L L L L J C / N.F.",
"9 7 , a f g f d > > d d > > h f > > d d : > h g g g g g a , 7 U U T D J K L L J A A G J F A J J A S J J A A J L L L K K G D E [ ",
"# % a g k M M k j g g g g g I j j g g j k M M k g g g g g a $ & p v G K _ ) ) _ ' L L L L ' ....' L L P _ _ ) _ K K L L L G v p ",
"# $ s k F H ! N k g f g f I Y Y I g d k F H H F k f g g g a & & i b G _ / ~ ~ / _ L L L K ..#.#...K K _ / ~ ~ / _ K K L L G b x ",
"# $ a k F H H F k f f f f I W W I d g k F H H F k f f g g d % & i C G _ / ~ ~ / ` K L K K X.1X1XX.K L _ / ~ ~ / _ L L L L G b p ",
"# & a j k M M k g g g g f I W W I d g g k M M k g g g g g a $ & i C P K _ _ ) _ K K L K L ..1X1XX.L L K _ ) ) _ J K L L L P b p ",
"9 6 h a f g g g g g g g f I E E k g g f d g g d g g g g a h 8 U U [ D P K L L L L L K L L ..+.+...L L L L L L K L L L K P S ] [ ",
"C.=.> & a f g g g g g g g M D ! M g g g g g g g g g g d % 7 b.S.F.m.T C P L L L L L K K L ` ( ( _ L L L K L L K L L L P C ] N.Z.",
"oX].y 7 s a a a s a s s s j B B j h d a d a h h a a a h 7 y A.oXXXY.{ T D G G G H G G G G Z ^ ^ A G G G G G G G G G P S ]  .]. X",
" X[.].=.6 % $ $ $ $ $ $ $ $ a z % $ $ $ $ $ $ $ $ & & 7 M.A.[.oXXX[.Y.m.R b b b b b b b b n c c n b b b b b b b v v C ] N.Y.}. X",
"{.}.{.C.4 # # # # # # # # # # # # # # # # # # # # # # 9 S.oX X{. X XXXF.] p p x x x x x x x x x x x x x x x x x c p n [ Z.oXoX X"
};
