/* XPM */
static char *c1741362324[] = {
/* columns rows colors chars-per-pixel */
"32 32 17 1 ",
"  c #91DB69",
". c #F79617",
"X c #A2A947",
"o c #F9C22B",
"O c #D5E04B",
"+ c #2E222F",
"@ c #F04F78",
"# c #FBFF86",
"$ c #ED8099",
"% c #1EBC73",
"& c #6E2727",
"* c #AE2334",
"= c #8B3932",
"- c #E83B3B",
"; c #BF5B3C",
": c #831C5D",
"> c white",
/* pixels */
"                                ",
"      ..              XX        ",
"     .oo.            XOOX       ",
"      .oo.            XOOX      ",
"     .oooo.          XOOOOX     ",
"    .oooooo.        XOOOOOOX    ",
"   .oooooooo.      XOOOOOOOOX   ",
"  .oooooooooo.    XOOOOOOOOOOX  ",
"  .oo+ooo+ooo.    XOO+OOO+OOOX  ",
"  .o+o+o+o+oo.    XO+O+O+O+OOX  ",
" .oo+o+o+o+ooo.  XOO+O+O+O+OOOX ",
".oooooooooooooo.XOOOOOOOOOOOOOOX",
".o@@ooo#oo@@ooo.XO$$OOO#OO$$OOOX",
".oooooo#ooooooo.XOOOOOO#OOOOOOOX",
" .ooooo@oooooo.  XOOOOO$OOOOOOX ",
"  ............    XXXXXXXXXXXX  ",
"                        %% %    ",
"      && %            **%% %    ",
"     &==&%%    %     *--*%      ",
"      &==&%%  %%      *--*      ",
"     &====&% %%      *----*     ",
"    &======& %      *------*    ",
"   &========&      *--------*   ",
"  &==========&    *----------*  ",
"  &==+===+===&    *--+---+---*  ",
"  &=+=+=+=+==&    *-+-+-+-+--*  ",
" &==+=+=+=+===&  *--+-+-+-+---* ",
"&==============&*--------------*",
"&=--===;==--===&*-::---$--::---*",
"&======;=======&*------$-------*",
" &=====-======&  *-----:------* ",
"  &&&&&&&&&&&&    ************  "
};
