/* XPM */
static char *c_11741434677[] = {
/* columns rows colors chars-per-pixel */
"64 64 12 1 ",
"  c #91DB69",
". c #A2A947",
"X c #1EBC73",
"o c #D5E04B",
"O c #9BABB2",
"+ c #8D8E9E",
"@ c #2E222F",
"# c #ED8099",
"$ c #FBFF86",
"% c #6A8D59",
"& c #2D7D5E",
"* c white",
/* pixels */
"                                                                ",
"                                                                ",
"                                                                ",
"                                                                ",
"                                                                ",
"                                                                ",
"                                                                ",
"                                                                ",
"                                                                ",
"                                                                ",
"                            ....                                ",
"                            ....                                ",
"            XX            ..oooo..                      XX      ",
"            XX            ..oooo..                      XX      ",
"            XXXX        XX  ..oooo..                  XXXX      ",
"            XXXX        XX  ..oooo..                  XXXX      ",
"            XXXXXX    XXXX..oooooooo..                XXXX      ",
"            XXXXXX    XXXX..oooooooo..                XXXX      ",
"        XXXX  XXXX  XXXX..oooooooooooo..              XX        ",
"        XXXX  XXXX  XXXX..oooooooooooo..              XX        ",
"          XXXX  XX  XX..oooooooooooooooo..    OO++              ",
"          XXXX  XX  XX..oooooooooooooooo..    OO++              ",
"            XX      ..oooooooooooooooooooo..                    ",
"            XX      ..oooooooooooooooooooo..                    ",
"                    ..oooo@@oooooo@@oooooo..                    ",
"                    ..oooo@@oooooo@@oooooo..                    ",
"                    ..oo@@oo@@oo@@oo@@oooo..                    ",
"                    ..oo@@oo@@oo@@oo@@oooo..                    ",
"                  ..oooo@@oo@@oo@@oo@@oooooo..                  ",
"                  ..oooo@@oo@@oo@@oo@@oooooo..                  ",
"                ..oooooooooooooooooooooooooooo..XX    XX        ",
"                ..oooooooooooooooooooooooooooo..XX    XX        ",
"                ..oo####oooooo$$oooo####oooooo..XXXX  XX        ",
"                ..oo####oooooo$$oooo####oooooo..XXXX  XX        ",
"                ..oooooooooooo$$oooooooooooooo..XXXX  XX        ",
"                ..oooooooooooo$$oooooooooooooo..XXXX  XX        ",
"                %%..oooooooooo##oooooooooooo..%%  XX            ",
"                %%..oooooooooo##oooooooooooo..%%  XX            ",
"                  &&........................%%                  ",
"                  &&........................%%                  ",
"              XXXX  &&&&%%&&&&%%%%%%%%%%%%&&                    ",
"              XXXX  &&&&%%&&&&%%%%%%%%%%%%&&                    ",
"                XXXX  XX  XX%%%%%%%%      XXXX        XX        ",
"                XXXX  XX  XX%%%%%%%%      XXXX        XX        ",
"                  XX                      XXXXXX    XXXX        ",
"                  XX                      XXXXXX    XXXX        ",
"                                      XXXX  XXXX  XXXX          ",
"                                      XXXX  XXXX  XXXX          ",
"                                        XXXX  XX  XX            ",
"                                        XXXX  XX  XX            ",
"                                          XX                    ",
"                                          XX                    ",
"      XX    XX        OOOO++                                    ",
"      XX    XX        OOOO++                                    ",
"        XX  XX                                                  ",
"        XX  XX                                                  ",
"        XX  XX                                                  ",
"        XX  XX                                                  ",
"                                                                ",
"                                                                ",
"                                                                ",
"                                                                ",
"                                                                ",
"                                                                "
};
