/* XPM */
static char *exit1741379524[] = {
/* columns rows colors chars-per-pixel */
"64 64 256 2 ",
"   c black",
".  c #010101",
"X  c #020202",
"o  c gray1",
"O  c #040404",
"+  c gray2",
"@  c #060606",
"#  c #070707",
"$  c gray3",
"%  c #090909",
"&  c gray4",
"*  c #0B0B0B",
"=  c #0C0C0C",
"-  c gray5",
";  c #0E0E0E",
":  c gray6",
">  c #101010",
",  c #111111",
"<  c gray7",
"1  c #131313",
"2  c gray8",
"3  c #151515",
"4  c #161616",
"5  c gray9",
"6  c #181818",
"7  c #191919",
"8  c gray10",
"9  c #1B1B1B",
"0  c gray11",
"q  c #1D1D1D",
"w  c #1E1E1E",
"e  c gray12",
"r  c #202020",
"t  c gray13",
"y  c #222222",
"u  c #232323",
"i  c gray14",
"p  c #252525",
"a  c gray15",
"s  c #272727",
"d  c #282828",
"f  c gray16",
"g  c #2A2A2A",
"h  c gray17",
"j  c #2C2C2C",
"k  c #2D2D2D",
"l  c gray18",
"z  c #2F2F2F",
"x  c gray19",
"c  c #313131",
"v  c #323232",
"b  c gray20",
"n  c #343434",
"m  c #353535",
"M  c gray21",
"N  c #373737",
"B  c gray22",
"V  c #393939",
"C  c #3A3A3A",
"Z  c gray23",
"A  c #3C3C3C",
"S  c gray24",
"D  c #3E3E3E",
"F  c #3F3F3F",
"G  c gray25",
"H  c #414141",
"J  c gray26",
"K  c #434343",
"L  c #444444",
"P  c gray27",
"I  c #464646",
"U  c gray28",
"Y  c #484848",
"T  c #494949",
"R  c gray29",
"E  c #4B4B4B",
"W  c #4C4C4C",
"Q  c gray30",
"!  c #4E4E4E",
"~  c gray31",
"^  c #505050",
"/  c #515151",
"(  c gray32",
")  c #535353",
"_  c gray33",
"`  c #555555",
"'  c #565656",
"]  c gray34",
"[  c #585858",
"{  c gray35",
"}  c #5A5A5A",
"|  c #5B5B5B",
" . c gray36",
".. c #5D5D5D",
"X. c gray37",
"o. c #5F5F5F",
"O. c #606060",
"+. c gray38",
"@. c #626262",
"#. c gray39",
"$. c #646464",
"%. c #656565",
"&. c gray40",
"*. c #676767",
"=. c #686868",
"-. c DimGray",
";. c #6A6A6A",
":. c gray42",
">. c #6C6C6C",
",. c #6D6D6D",
"<. c gray43",
"1. c #6F6F6F",
"2. c gray44",
"3. c #717171",
"4. c #727272",
"5. c gray45",
"6. c #747474",
"7. c gray46",
"8. c #767676",
"9. c #777777",
"0. c gray47",
"q. c #797979",
"w. c gray48",
"e. c #7B7B7B",
"r. c #7C7C7C",
"t. c gray49",
"y. c #7E7E7E",
"u. c gray50",
"i. c #808080",
"p. c #818181",
"a. c gray51",
"s. c #838383",
"d. c #848484",
"f. c gray52",
"g. c #868686",
"h. c gray53",
"j. c #888888",
"k. c #898989",
"l. c gray54",
"z. c #8B8B8B",
"x. c gray55",
"c. c #8D8D8D",
"v. c #8E8E8E",
"b. c gray56",
"n. c #909090",
"m. c gray57",
"M. c #929292",
"N. c #939393",
"B. c gray58",
"V. c #959595",
"C. c gray59",
"Z. c #979797",
"A. c #989898",
"S. c gray60",
"D. c #9A9A9A",
"F. c #9B9B9B",
"G. c gray61",
"H. c #9D9D9D",
"J. c gray62",
"K. c #9F9F9F",
"L. c #A0A0A0",
"P. c gray63",
"I. c #A2A2A2",
"U. c gray64",
"Y. c #A4A4A4",
"T. c #A5A5A5",
"R. c gray65",
"E. c #A7A7A7",
"W. c gray66",
"Q. c #A9A9A9",
"!. c #AAAAAA",
"~. c gray67",
"^. c #ACACAC",
"/. c gray68",
"(. c #AEAEAE",
"). c #AFAFAF",
"_. c gray69",
"`. c #B1B1B1",
"'. c #B2B2B2",
"]. c gray70",
"[. c #B4B4B4",
"{. c gray71",
"}. c #B6B6B6",
"|. c #B7B7B7",
" X c gray72",
".X c #B9B9B9",
"XX c gray73",
"oX c #BBBBBB",
"OX c #BCBCBC",
"+X c gray74",
"@X c gray",
"#X c gray75",
"$X c #C0C0C0",
"%X c #C1C1C1",
"&X c gray76",
"*X c #C3C3C3",
"=X c gray77",
"-X c #C5C5C5",
";X c #C6C6C6",
":X c gray78",
">X c #C8C8C8",
",X c gray79",
"<X c #CACACA",
"1X c #CBCBCB",
"2X c gray80",
"3X c #CDCDCD",
"4X c #CECECE",
"5X c gray81",
"6X c #D0D0D0",
"7X c gray82",
"8X c #D2D2D2",
"9X c LightGray",
"0X c gray83",
"qX c #D5D5D5",
"wX c gray84",
"eX c #D7D7D7",
"rX c #D8D8D8",
"tX c gray85",
"yX c #DADADA",
"uX c gray86",
"iX c gainsboro",
"pX c #DDDDDD",
"aX c gray87",
"sX c #DFDFDF",
"dX c gray88",
"fX c #E1E1E1",
"gX c #E2E2E2",
"hX c gray89",
"jX c #E4E4E4",
"kX c gray90",
"lX c #E6E6E6",
"zX c #E7E7E7",
"xX c gray91",
"cX c #E9E9E9",
"vX c #EAEAEA",
"bX c gray92",
"nX c #ECECEC",
"mX c gray93",
"MX c #EEEEEE",
"NX c #EFEFEF",
"BX c gray94",
"VX c #F1F1F1",
"CX c gray95",
"ZX c #F3F3F3",
"AX c #F4F4F4",
"SX c gray96",
"DX c #F6F6F6",
"FX c gray97",
"GX c #F8F8F8",
"HX c #F9F9F9",
"JX c gray98",
"KX c #FBFBFB",
"LX c gray99",
"PX c #FDFDFD",
"IX c #FEFEFE",
"UX c white",
/* pixels */
"*X*X*X&X&X*X*X*X*X*X*X&X&X*X*X*X*X*X*X*X*X*X*X*X*X&X&X*X-X.XL.M.M.L..X-X*X&X&X*X*X*X*X*X*X*X*X*X*X*X*X*X*X*X*X*X*X*X*X*X*X*X*X*X",
"*X&X&X*X*X%X@XOXOX@X&X*X*X&X&X*X*X*X*X*X*X*X*X&X&X*X*X%XoX_.P.S.S.P._.oX%X*X*X&X&X*X*X*X*X*X*X*X*X*X*X*X*X*X*X*X*X*X*X*X*X*X*X*X",
"*X&X&X*X*X@X[././.[.@X=X*X&X&X*X*X*X*X*X*X*X*X&X&X*X-XoXW.L.Y.E.E.Y.L.W.oX-X*X&X&X*X*X*X*X*X*X*X*X*X*X*X*X*X*X*X*X*X*X*X*X*X*X*X",
"*X*X*X%X@X}.^.R.R.!.`. X#X*X*X*X*X*X*X*X*X*X*X*X*X$XoX_.L.H.W././.W.H.L._.oX$X*X*X*X*X*X*X*X*X*X*X*X*X*X*X*X*X*X*X*X*X*X*X*X*X*X",
"*X*X*X@X'.~.W.E.E.U.G.Y..X=X*X*X*X*X*X*X*X*X*X*X*XXXW.L.Y.W.^././.^.W.Y.L.W.XX*X*X*X*X*X*X*X*X*X*X*X*X*X*X*X*X*X*X*X*X*X*X*X*X*X",
"*X*X*X+X'././.(.).W.J.U..X=X*X*X*X*X*X*X*X&X&X*X-X|.J.A.R././.^.^././.R.A.J.|.-X*X&X&X*X*X*X*X*X*X*X*X*X*X*X*X*X*X*X*X*X*X*X*X*X",
"*X*X*X%X+XoXOXOXOXXX}. X#X*X*X*X*X*X*X*X*X&X&X*X-X XJ.A.R././.^.^././.R.A.J. X-X*X&X&X*X*X*X*X*X*X*X*X*X*X*X*X*X*X*X*X*X*X*X*X*X",
"*X&X&X*X*X*X*X*X*X*X=X=X*X&X&X*X*X*X*X&X&X*X*X%XoX_.P.J.E././././././.E.J.P._.oX%X*X*X&X&X*X*X&X&X*X*X*X*X*X*X&X&X*X*X*X*X*X*X*X",
"*X&X&X*X*X*X*X*X*X*X=X*X*X&X&X*X*X*X*X&X&X*X-XoXE.L.Y.W.~././././././.~.W.Y.L.E.oX-X*X&X&X*X*X&X&X*X*X*X*X*X*X&X&X*X*X*X*X*X*X*X",
"*X*X*X*X*X*X*X*X*X*X*X*X*X*X*X*X*X&X&X*X*X%XoX_.L.H.W././.^.^././.^.^././.W.H.L._.oX%X*X*X&X&X*X*X%X+XOXOX+X%X*X*X*X*X*X*X*X*X*X",
"*X*X*X*X*X*X*X*X*X*X*X*X*X*X*X*X*X&X&X*X-XoXW.L.Y.W.^././.^.^././.^.^././.^.W.Y.L.W.oX-X*X&X&X*X*X+X'././.'.+X*X*X*X*X*X*X*X*X*X",
"*X*X*X*X*X*X*X*X*X*X*X*X*X*X*X&X&X*X*X%XoX_.L.H.W././.^.^././././././.^.^././.W.H.L._.oX%X*X*X*X*X+X'././.'.+X*X*X*X*X*X*X*X*X*X",
"*X*X*X*X*X*X*X*X*X*X*X*X*X*X*X&X&X*X-XoXW.L.Y.W.^././.^.^././././././.^.^././.^.W.Y.L.W.oX-X*X*X*X%X+XOXOX+X%X*X*X*X*X*X*X*X*X*X",
"*X*X*X*X*X*X*X*X*X*X*X*X*X*X*X*X*X$XoX_.L.H.W././.^.^././././././././././.^.^././.W.H.L._.oX$X*X*X*X*X*X*X*X*X&X&X*X*X*X*X*X*X*X",
"*X*X*X*X*X*X*X*X*X*X*X*X*X*X*X*X*XXXW.L.Y.W.^././.^.^././././././././././.^.^././.^.W.Y.L.W.XX*X*X*X*X*X*X*X*X&X&X*X*X*X*X*X*X*X",
"*X*X*X*X*X*X*X*X*X*X*X*X*X&X&X*X-X|.J.A.R././.^.^././././././././././././././.^.^././.R.A.J.|.-X*X&X&X*X*X*X*X*X*X*X*X*X*X*X*X*X",
"*X*X*X*X*X*X*X*X*X*X*X*X*X&X&X*X-X XJ.A.R././.^.^././././././././././././././.^.^././.R.A.J. X-X*X&X&X*X*X*X*X*X*X*X*X*X*X*X*X*X",
"*X*X*X*X*X*X*X*X*X*X*X&X&X*X*X%XoX_.P.J.E././././././././././././././././././././././.E.J.P._.oX%X*X*X&X&X*X*X*X*X*X*X*X*X*X*X*X",
"*X*X*X*X*X*X*X*X*X*X*X&X&X*X-XoXE.L.Y.W.~././././././././././././././././././././././.~.W.Y.L.E.oX-X*X&X&X*X*X*X*X*X*X*X*X*X*X*X",
"*X*X*X*X*X*X*X*X*X&X&X*X*X%XoX_.L.H.W././.^.^././././././././././././././././././.^.^././.W.H.L._.oX%X*X*X&X&X*X*X*X*X*X*X*X*X*X",
"*X*X*X*X*X*X*X*X*X&X&X*X-XoXW.L.Y.W.^././.^.^././././././././././././././././././.^.^././.^.W.Y.L.W.oX-X*X&X&X*X*X*X*X*X*X*X*X*X",
"*X*X*X*X*X*X*X&X&X*X*X%XoX(.F.A.R././.^.^././././.^.^././././././././././.^.^././././.^.^././.R.A.F.(.oX%X*X*X&X&X*X*X*X*X*X*X*X",
"*X*X*X*X*X*X*X&X&X*X-XoXQ.F.V.S.E././.^.^././././.^.^././././././././././.^.^././././.^.^././.E.S.V.F.Q.oX-X*X&X&X*X*X*X*X*X*X*X",
"*X*X*X*X*X*X*X*X*X$XXX/.F.V.H.I.T.W.~././.~.W.W.~././././././././././././././.~.W.W.~././.~.W.T.I.H.V.F./.XX$X*X*X*X*X*X*X*X*X*X",
"*X*X*X*X*X*X*X*X*XXXE.D.B.G._.'.P.J.E././.W.J.J.W././././././././././././././.W.J.J.W././.E.J.P.'._.G.B.D.E.XX*X*X*X*X*X*X*X*X*X",
"*X*X*X*X*X*X*X*X*XXXE.J.K.E.].`.P.J.W.^.Q.P.A.S.R././././././.^.^././././././.R.S.A.P.Q.^.W.J.P.`.].E.K.J.E.XX*X*X*X*X*X*X*X*X*X",
"*X*X*X*X*X*X*X*X*X$X.X|..X].R.P.Y.Q.^.Q.K.A.B.D.R././././././.^.^././././././.R.D.B.A.K.Q.^.Q.Y.P.R.]..X|..X$X*X*X*X*X*X*X*X*X*X",
"*X*X*X*X*X*X*X&X&X*X=X*XOX_.P.H.Y.W.E.I.A.B.A.K.W././.~.W.W.~././.~.W.W.~././.W.K.A.V.A.I.E.W.Y.H.P._.OX*X=X*X&X&X*X*X*X*X*X*X*X",
"*X*X*X*X*X*X*X&X&X*X-XOXQ.P.Y.Y.J.D.D.A.V.A.I.Q.^././.W.J.J.W././.W.J.J.W././.^.Q.I.A.V.S.D.D.J.Y.Y.P.Q.OX-X*X&X&X*X*X*X*X*X*X*X",
"*X*X*X*X*X&X&X*X=X#X{.W.S.A.U.Y.S.B.B.V.A.K.Q.^.Q.E.E.I.A.D.R././.E.D.A.P.Q.^././.E.D.B.B.B.B.S.Y.U.S.D.W.{.#X=X*X&X&X*X*X*X*X*X",
"*X*X*X*X*X&X&X=X-X}.V.j.n.C.D.D.C.B.B.S.I.Q./.Q.K.D.D.A.V.D.E././.E.D.V.A.K.Q././.E.D.B.B.B.V.C.D.D.Z.n.k.V.{.-X=X&X&X*X*X*X*X*X",
"*X*X*X&X&X*X=X$X}.I.h.i.v.N.b.x.x.v.M.F.E./.Q.I.A.B.B.B.B.D.E.^.Q.U.S.B.B.A.I.Q.^.E.D.B.V.N.b.x.x.c.c.j.u.h.I.}.$X=X*X&X&X*X*X*X",
"*X*X*X&X&X=X-X}.C.h.l.b.N.b.a.e.e.a.v.G.W.Q.L.A.V.B.B.B.B.F.E.Q.L.A.V.B.B.V.A.L.Q.E.F.V.V.v.a.e.r.t.t.p.k.z.h.C.}.-X=X&X&X*X*X*X",
"*X&X&X*X=X$X}.I.h.p.b.V.n.h.w.7.q.a.v.D.U.U.S.B.B.V.V.B.B.S.U.U.S.B.B.V.V.B.B.S.U.U.D.V.V.v.a.w.7.5.5.e.j.k.u.h.I.}.$X=X*X&X&X*X",
"*X&X&X=X-X}.C.h.l.b.B.n.s.w.7.w.g.b.N.C.D.D.C.B.B.V.V.B.B.C.S.S.C.B.B.V.V.B.B.C.S.S.C.V.V.N.b.h.w.5.6.8.e.a.k.z.h.C.}.-X=X&X&X*X",
"&X*X=X$X|.U.j.u.k.b.b.h.w.7.w.s.n.C.C.N.v.c.N.V.V.V.V.V.V.V.B.B.B.V.V.V.V.V.V.V.B.M.v.b.N.C.C.n.s.e.8.6.6.e.k.l.u.j.U.|.$X=X*X&X",
"&X=X-X}.Z.k.x.l.a.y.t.e.7.w.h.n.B.C.C.v.a.p.v.V.V.V.V.C.C.V.V.B.B.V.V.C.C.V.V.V.V.v.a.a.v.C.C.B.n.h.e.6.6.9.e.a.l.x.k.Z.}.-X=X&X",
"*X#X}.H.9.,.r.y.2.:.3.8.e.d.n.B.b.c.c.k.i.a.v.C.C.N.b.x.x.v.N.V.V.N.v.x.x.b.N.C.C.v.a.i.k.c.c.b.B.n.d.e.9.4.:.2.y.r.,.9.H.}.#X*X",
"=X{.C.9. .( { } ` } >.e.j.m.V.n.s.r.r.i.k.v.N.C.C.b.a.r.r.a.v.C.C.v.a.r.r.a.b.C.C.N.v.k.i.r.r.s.n.V.m.j.e.:.} ` } { (  .9.C.{.=X",
"=X[.C.t.<.o.! T ~ | ,.r.j.v.v.h.e.5.5.r.c.C.C.B.b.h.e.5.5.t.c.C.C.c.r.5.5.e.h.b.B.C.C.c.r.5.5.e.h.v.v.l.a.5...~ T ! o.<.t.C.[.=X",
"*X@X].(.!.b...Q O.,.5.0.e.t.t.e.0.7.5.r.c.C.C.b.s.e.8.6.6.t.v.C.C.c.t.6.6.8.e.s.b.C.C.c.r.5.7.0.e.t.t.a.l.g.6.o.Q ..b.!.(.].@X*X",
"&X*X-X&X.XH.2.+.1.8.8.8.8.7.8.4.>.<.0.d.n.B.n.h.e.7.7.7.7.e.h.m.B.v.t.6.7.7.7.e.h.n.B.n.d.0.<.>.4.7.7.e.k.l.t.<.+.2.H..X&X-X*X&X",
"&X=X;X|.A.g.d.i.q.8.8.8.8.8.8.,.} +.u.m.V.n.s.e.9.8.8.7.7.9.e.d.m.v.t.6.7.8.8.9.e.s.n.V.m.u.+.} ,.8.8.0.r.r.0.q.i.d.g.A.|.;X=X&X",
"*X#X|.U.h.u.l.l.r.4.,.;.;.:.:.$.] +.u.b.b.j.e.4.>.,.4.8.8.4.>.4.g.k.e.7.7.4.,.>.4.e.j.b.b.u.+.] $.:.:.;.;.>.4.r.l.l.u.h.U.|.#X*X",
"=X{.A.j.z.k.a.r.q.,..._ _ _ ) { $.1.q.y.y.r.q.,.} } ,.8.8.,.| ..5.t.0.8.8.,.} } ,.q.r.y.y.q.1.$.{ ) _ _ )  .,.q.r.a.k.z.j.A.{.=X",
"-X/.y.2.d.k.r.4.,.@./ Y Y E ^  .,.9.8.4.,.;.:.%.[ | ,.9.9.;.) ^ +.<.5.8.8.,.| [ $.;.;.,.4.8.9.,. .^ E Y Y / @.,.4.r.k.d.2.y./.-X",
";XW.<.| 3.t.q.,.../ E T T / @.,.5.8.8.,. .) ) } %.,.5.8.9.:._ E ^ ..<.9.8.5.,.$.{ ( (  .,.8.8.5.,.@./ T T E / ..,.q.t.3.| <.W.;X",
">XR.*.^ -.6.1.@./ T R R T _ :.9.9.6.<.@./ U U ) :.9.9.6.<.@.( T Y / @.<.6.8.9.,. .~ E / @.<.6.9.9.:._ T R R T / @.1.6.-.^ *.R.>X",
",XE.*./ -.1.../ W R R T Y _ :.9.9.<.../ E Y U ) :.9.9.<...( Q R R W / ..<.9.8.5.,.@./ E / ..<.9.9.:._ Y T R R W / ..1.-./ *.E.,X",
"W.M.-.{ %.@.Q J J P Y Q ( ..<.7.<.@./ T R W ( ..<.7.<.@./ U P P P P U / @.<.6.9.9.>.` T Y / @.<.7.<...( Q Y P J J Q @.%.{ -.M.W.",
"*.-.:.*.| Q D M N A P ) $.1.7.<.../ W R R ( @.<.7.<.../ W I D C C D I W / ..<.9.9.:.` R T W / ..<.7.<.#.( P A N M D Q | *.:.-.*.",
"L Q X...R U ( { } ` T ! @.,.,.#./ U L K K / ;.7.1.@./ U P K F S S F K I U / @.<.6.;./ K K L U / @.2.8.;.^ Y _ } { ( U R ..X.Q L ",
"I P L D B ^ h.T.E.l._ D Q ' ` ( Q P A N V R -.1.../ Q P S D T ~ ~ R F S I Q / ..1.=.R V N A P Q / X.2.=.I ( k.E.T.h.^ B D L P I ",
"*.#.| ` ` 6.(.*X`.k._ C F K K J J T ` / S P *.>.` U P L J Y '  .{ ^ K F K P U ` >.*.P S / ` T J J R .. .E | x.`.*X(.6.` ` | #.*.",
"R.Y.P.K.K.~.%X).8.( T H C N N M m ) x.z.^ K &.,.' L S J ` +.&.#.| _ ^ T F S P ' ,.&.K ^ z.x.) m m V F E o.#.| 7.(.%X~.K.K.P.Y.R.",
";X;X;X:X:X@X!.s.R b S T ) [ [ ' ' >.B.x.` P o.#.~ J D Y +.,.,.*.o. ...` P D J ~ #.o.P ` x.B.>.' ' ] ] | #.] Z T s.!.@X:X:X;X;X;X",
"=X-X-X;X:X!.3.T B x b / j.I.I.I.I.n.>.) T T ( ~ H D T ' %.,.>.;.*.&.*.+.` T D H ~ ( T T ) >.n.I.I.I.I.l.} A b B T 3.!.:X;X-X-X=X",
"*X*X*X=X-XW.1.) ' ' ` 4.~.>X:X>X,XI.` v S L K F B S ~ ..*.:.:.:.:.>.>.*...~ S B F K L S v ` I.,X>X:X>X~.3._ ' ' ) 1.W.-X=X*X*X*X",
"*X*X*X*X*XXXW.J.L.L.L.Q.OX;X-X:X>XP.` z n B N M m S ~ ..*.:.:.:.:.:.>.*...~ S m M N B n z ` P.>X:X-X;XOXQ.K.L.L.J.W.XX*X*X*X*X*X",
"*X*X*X&X&X*X-X;X;X;X;X-X*X&X&X=X-XW.4.` ' [ [ ~ A A ! ..*.>.:.:.:.:.>.*...! A A ~ [ [ ' ` 4.W.-X=X&X&X*X-X;X;X;X;X-X*X&X&X*X*X*X",
"*X*X*X&X&X*X=X-X-X-X-X=X*X&X&X*X*XXXW.L.L.I.U.f.Q B W ..*.>.>.:.:.>.>.*...W B Q f.U.I.L.L.W.XX*X*X&X&X*X=X-X-X-X-X=X*X&X&X*X*X*X",
"*X*X*X*X*X*X*X*X*X*X*X*X*X*X*X&X&X*X-X;X;X:X>X^.5.) ~ _ O.&.&.%.%.&.&.O._ ~ ) 5.^.>X:X;X;X-X*X&X&X*X*X*X*X*X*X*X*X*X*X*X*X*X*X*X",
"*X*X*X*X*X*X*X*X*X*X*X*X*X*X*X&X&X*X=X-X-X-X-X@X^.j.` J )  . .| |  . .) J ` j.^.@X-X-X-X-X=X*X&X&X*X*X*X*X*X*X*X*X*X*X*X*X*X*X*X",
"*X*X*X*X*X*X*X*X*X*X*X*X*X*X*X*X*X*X*X*X*X&X&X;X,XU.] C W ] ' ' ' ' ] W C ] U.,X;X&X&X*X*X*X*X*X*X*X*X*X*X*X*X*X*X*X*X*X*X*X*X*X"
};
