/* XPM */
static char *exit1741434677[] = {
/* columns rows colors chars-per-pixel */
"64 64 30 1 ",
"  c #91DB69",
". c #C32454",
"X c #1EBC73",
"o c white",
"O c #E3EEE8",
"+ c #C7DCD0",
"@ c #F7FBF9",
"# c #ACF0A2",
"$ c #70B9F4",
"% c #9AEA9C",
"& c #6B8DAD",
"* c #8FD3FF",
"= c #F5FAF7",
"- c #8FE9EE",
"; c #9BABB2",
": c #8D8E9E",
"> c #831C5D",
", c #8FF8E2",
"< c #CADED3",
"1 c #F9FCFB",
"2 c #AEACB6",
"3 c #8C8C9D",
"4 c #CD683D",
"5 c #D87A44",
"6 c #E6904E",
"7 c #4D7ECB",
"8 c #4D9BE6",
"9 c #DB7E46",
"0 c #6B9353",
"q c #E4DDD5",
/* pixels */
"                          ....                                  ",
"                          ....                                  ",
"                        ........                                ",
"                        ........                                ",
"                      ............                              ",
"                      ............                              ",
"                      ............                              ",
"                      ............                              ",
"                    ................                            ",
"                    ................                            ",
"                  ....................                          ",
"                  ....................                          ",
"            XX  ..oooooooooooooooooooo..                XX      ",
"            XX  ..oooooooooooooooooooo..                XX      ",
"            XXXX..ooOOOO++++++++OOOOoo..              XXXX      ",
"            XXXX..ooOOOO++++++++OOOOoo..              XXXX      ",
"            XX..ooOO@@####$$$$####@@OOoo..            XXXX      ",
"            XX..ooOO@@####$$$$####@@OOoo..            XXXX      ",
"        XXXX..ooOOOOOO%%%%&&**%%%%OOOOOOoo..          XX        ",
"        XXXX..ooOOOOOO%%%%&&**%%%%OOOOOOoo..          XX        ",
"          ..ooOO@@@@==####----####==@@@@OOoo..;;::  >>          ",
"          ..ooOO@@@@==####----####==@@@@OOoo..;;::  >>          ",
"          ..ooOOOOOOOO%%%%,,,,%%%%OOOOOOOOoo..>>>>>>>>          ",
"          ..ooOOOOOOOO%%%%,,,,%%%%OOOOOOOOoo..>>>>>>>>          ",
"        ..ooOO@@@@@@@@@@<<++++<<@@@@@@@@@@OOoo..>>>>>>>>        ",
"        ..ooOO@@@@@@@@@@<<++++<<@@@@@@@@@@OOoo..>>>>>>>>        ",
"      ..ooOOOOOOOOOOOOOOOOOOOOOOOOOOOOOOOOOOOOoo..>>>>>>        ",
"      ..ooOOOOOOOOOOOOOOOOOOOOOOOOOOOOOOOOOOOOoo..>>>>>>        ",
"    ..ooOO111111111111111111111111111111111111OOoo..>>>>>>      ",
"    ..ooOO111111111111111111111111111111111111OOoo..>>>>>>      ",
"    ..;;;;22;;;;22;;;;22;;;;;;;;22;;;;22;;;;22;;;;..>>>>>>      ",
"    ..;;;;22;;;;22;;;;22;;;;;;;;22;;;;22;;;;22;;;;..>>>>>>      ",
"  ..  OO;;OO33OOOO33OOOO33OOOO33OOOO33OOOO33OO;;OO44..>>>>>>    ",
"  ..  OO;;OO33OOOO33OOOO33OOOO33OOOO33OOOO33OO;;OO44..>>>>>>    ",
"..    @@;;@@******@@******@@@@******@@******@@;;@@4455..>>>>>>  ",
"..    @@;;@@******@@******@@@@******@@******@@;;@@4455..>>>>>>  ",
"      OO;;OOOOOOOOOOOOOOOOOOOOOOOOOOOOOOOOOOOO;;OO5555555555    ",
"      OO;;OOOOOOOOOOOOOOOOOOOOOOOOOOOOOOOOOOOO;;OO5555555555    ",
"      @@;;@@++++++++++++++@@@@++++++++++++++@@;;@@55@@55@@66    ",
"      @@;;@@++++++++++++++@@@@++++++++++++++@@;;@@55@@55@@66    ",
"      OO;;OO++7777++7777++OOOO++7777++7777++OO;;OO5555666666    ",
"      OO;;OO++7777++7777++OOOO++7777++7777++OO;;OO5555666666    ",
"      @@;;@@++8888++8888++@@@@++8888++8888++@@;;@@66@@66@@66    ",
"      @@;;@@++8888++8888++@@@@++8888++8888++@@;;@@66@@66@@66    ",
"      OO;;OO++++++++++++++OOOO++++++++++++++OO;;OO6666666666    ",
"      OO;;OO++++++++++++++OOOO++++++++++++++OO;;OO6666666666    ",
"      @@;;@@++$$$$++$$$$++@@@@++$$$$++$$$$++@@;;@@66@@66@@66    ",
"      @@;;@@++$$$$++$$$$++@@@@++$$$$++$$$$++@@;;@@66@@66@@66    ",
"      OO;;OO++****++****++OOOO++****++****++OO;;OO6666666666    ",
"      OO;;OO++****++****++OOOO++****++****++OO;;OO6666666666    ",
"      @@;;@@++++++++++++++@@@@++++++++++++++@@;;@@66@@66@@66    ",
"      @@;;@@++++++++++++++@@@@++++++++++++++@@;;@@66@@66@@66    ",
"      OO;;OO++----++----++OOOO++----++----++OO;;OO9999999999    ",
"      OO;;OO++----++----++OOOO++----++----++OO;;OO9999999999    ",
"      @@;;@@++,,,,++,,,,++oooo++,,,,++,,,,++@@;;@@6666666666    ",
"      @@;;@@++,,,,++,,,,++oooo++,,,,++,,,,++@@;;@@6666666666    ",
"  0000OO;;OO++++++++++++++OOOO++++++++++++++OO;;OO444444444400  ",
"  0000OO;;OO++++++++++++++OOOO++++++++++++++OO;;OO444444444400  ",
"000000qq;;qqqqqqqqqqqqqqqqqqqqqqqqqqqqqqqqqqqq;;qq00440044000000",
"000000qq;;qqqqqqqqqqqqqqqqqqqqqqqqqqqqqqqqqqqq;;qq00440044000000",
"  000000000000000000000000000000000000000000000000000000000000  ",
"  000000000000000000000000000000000000000000000000000000000000  ",
"                000000000000000000000000                        ",
"                000000000000000000000000                        "
};
