/* XPM */
static char *h_down1741362324[] = {
/* columns rows colors chars-per-pixel */
"32 32 24 1 ",
"  c #91DB69",
". c #C32454",
"X c #D93965",
"o c #FCA790",
"O c #1EBC73",
"+ c #FCB79E",
"@ c #FDCBB0",
"# c #7A3045",
"$ c #C7DCD0",
"% c #45293F",
"& c white",
"* c #AE2334",
"= c #F9C22B",
"- c #F68181",
"; c #9BABB2",
": c #8D8E9E",
"> c #831C5D",
", c #A24B6F",
"< c #2E222F",
"1 c #625565",
"2 c #3E3546",
"3 c #404775",
"4 c #323353",
"5 c #6A8D59",
/* pixels */
"             .....              ",
"           XXX....XX            ",
"          XXX......XX           ",
"         XXXXXX..XXXXX          ",
"         XX.XX....XXX.X         ",
"         X.X.o.o..oXX.X         ",
"      O ..X.+@.@.@o.XX.     O   ",
"      OO..X###.@@###.X.X   OO   ",
"      OOO..#$%@@@%$#....   OO   ",
"    OO OO..+&*@@@*&o...    O    ",
"     OO O=.-@@@@@@@-.= ;:       ",
"      O  .>,+@@@@@o,>.          ",
"           >,-ooo-,>:           ",
"           <1222221<            ",
"          <112222211<           ",
"         <@112222211@<  O  O    ",
"        <oo@2<<<<<2@oo< OO O    ",
"       <oooo<22222<oooo<OO O    ",
"       <oooo<22222<oooo< O      ",
"        <oo<2333332<oo<         ",
"       OO<<233=3=332<<          ",
"        OO 23=333=32 OO    O    ",
"         O 2333<3332 OOO  OO    ",
"           <33< <33<O OO OO     ",
"           <43< <34<OO O O      ",
"           <44< <44< O          ",
"   O  O    <44<5<44<            ",
"    O O  55<44<5<44<5           ",
"    O O5555<22<5<22<555         ",
"       55555<<555<<5555         ",
"         555555555555           ",
"           55555555             "
};
