/* XPM */
static char *h_down1741459696[] = {
/* columns rows colors chars-per-pixel */
"64 64 24 1 ",
"  c #91DB69",
". c #C32454",
"X c #D93965",
"o c #FCA790",
"O c #1EBC73",
"+ c #FCB79E",
"@ c #FDCBB0",
"# c #7A3045",
"$ c #C7DCD0",
"% c #45293F",
"& c white",
"* c #AE2334",
"= c #F9C22B",
"- c #F68181",
"; c #9BABB2",
": c #8D8E9E",
"> c #831C5D",
", c #A24B6F",
"< c #2E222F",
"1 c #625565",
"2 c #3E3546",
"3 c #404775",
"4 c #323353",
"5 c #6A8D59",
/* pixels */
"                          ..........                            ",
"                          ..........                            ",
"                      XXXXXX........XXXX                        ",
"                      XXXXXX........XXXX                        ",
"                    XXXXXX............XXXX                      ",
"                    XXXXXX............XXXX                      ",
"                  XXXXXXXXXXXX....XXXXXXXXXX                    ",
"                  XXXXXXXXXXXX....XXXXXXXXXX                    ",
"                  XXXX..XXXX........XXXXXX..XX                  ",
"                  XXXX..XXXX........XXXXXX..XX                  ",
"                  XX..XX..oo..oo....ooXXXX..XX                  ",
"                  XX..XX..oo..oo....ooXXXX..XX                  ",
"            OO  ....XX..++@@..@@..@@oo..XXXX..          OO      ",
"            OO  ....XX..++@@..@@..@@oo..XXXX..          OO      ",
"            OOOO....XX######..@@@@######..XX..XX      OOOO      ",
"            OOOO....XX######..@@@@######..XX..XX      OOOO      ",
"            OOOOOO....##$$%%@@@@@@%%$$##........      OOOO      ",
"            OOOOOO....##$$%%@@@@@@%%$$##........      OOOO      ",
"        OOOO  OOOO....++&&**@@@@@@**&&oo......        OO        ",
"        OOOO  OOOO....++&&**@@@@@@**&&oo......        OO        ",
"          OOOO  OO==..--@@@@@@@@@@@@@@--..==  ;;::              ",
"          OOOO  OO==..--@@@@@@@@@@@@@@--..==  ;;::              ",
"            OO    ..>>,,++@@@@@@@@@@oo,,>>..                    ",
"            OO    ..>>,,++@@@@@@@@@@oo,,>>..                    ",
"                      >>,,--oooooo--,,>>::                      ",
"                      >>,,--oooooo--,,>>::                      ",
"                      <<11222222222211<<                        ",
"                      <<11222222222211<<                        ",
"                    <<111122222222221111<<                      ",
"                    <<111122222222221111<<                      ",
"                  <<@@111122222222221111@@<<    OO    OO        ",
"                  <<@@111122222222221111@@<<    OO    OO        ",
"                <<oooo@@22<<<<<<<<<<22@@oooo<<  OOOO  OO        ",
"                <<oooo@@22<<<<<<<<<<22@@oooo<<  OOOO  OO        ",
"              <<oooooooo<<2222222222<<oooooooo<<OOOO  OO        ",
"              <<oooooooo<<2222222222<<oooooooo<<OOOO  OO        ",
"              <<oooooooo<<2222222222<<oooooooo<<  OO            ",
"              <<oooooooo<<2222222222<<oooooooo<<  OO            ",
"                <<oooo<<22333333333322<<oooo<<                  ",
"                <<oooo<<22333333333322<<oooo<<                  ",
"              OOOO<<<<223333==33==333322<<<<                    ",
"              OOOO<<<<223333==33==333322<<<<                    ",
"                OOOO  2233==333333==3322  OOOO        OO        ",
"                OOOO  2233==333333==3322  OOOO        OO        ",
"                  OO  22333333<<33333322  OOOOOO    OOOO        ",
"                  OO  22333333<<33333322  OOOOOO    OOOO        ",
"                      <<3333<<  <<3333<<OO  OOOO  OOOO          ",
"                      <<3333<<  <<3333<<OO  OOOO  OOOO          ",
"                      <<4433<<  <<3344<<OOOO  OO  OO            ",
"                      <<4433<<  <<3344<<OOOO  OO  OO            ",
"                      <<4444<<  <<4444<<  OO                    ",
"                      <<4444<<  <<4444<<  OO                    ",
"      OO    OO        <<4444<<55<<4444<<                        ",
"      OO    OO        <<4444<<55<<4444<<                        ",
"        OO  OO    5555<<4444<<55<<4444<<55                      ",
"        OO  OO    5555<<4444<<55<<4444<<55                      ",
"        OO  OO55555555<<2222<<55<<2222<<555555                  ",
"        OO  OO55555555<<2222<<55<<2222<<555555                  ",
"              5555555555<<<<555555<<<<55555555                  ",
"              5555555555<<<<555555<<<<55555555                  ",
"                  555555555555555555555555                      ",
"                  555555555555555555555555                      ",
"                      5555555555555555                          ",
"                      5555555555555555                          "
};
