/* XPM */
static char *h_down1741379524[] = {
/* columns rows colors chars-per-pixel */
"64 64 228 2 ",
"   c #2D2235",
".  c #2E243B",
"X  c #312634",
"o  c #342B3B",
"O  c #392F3F",
"+  c #30263D",
"@  c #3A3837",
"#  c #3A343A",
"$  c #3D3C38",
"%  c #40323F",
"&  c #29433C",
"*  c #3B453A",
"=  c #444D3C",
"-  c #42463E",
";  c #47503C",
":  c #48513F",
">  c #2F2C49",
",  c #342D44",
"<  c #322E4C",
"1  c #3C3344",
"2  c #3A334A",
"3  c #3F3A42",
"4  c #323353",
"5  c #3D3852",
"6  c #3A3858",
"7  c #3A3E69",
"8  c #3A3C64",
"9  c #383F73",
"0  c #443A4A",
"q  c #583A43",
"w  c #4A2642",
"e  c #71314C",
"r  c #743B60",
"t  c #3A4451",
"y  c #316A4C",
"u  c #3D416C",
"i  c #3D4474",
"p  c #3E4678",
"a  c #464D41",
"s  c #4E474F",
"d  c #5B4445",
"f  c #4A5247",
"g  c #575A49",
"h  c #5A4D5D",
"j  c #564756",
"k  c #62594B",
"l  c #684857",
"z  c #794957",
"x  c #6A5158",
"c  c #62474C",
"v  c #536E45",
"b  c #596F4D",
"n  c #5B734E",
"m  c #5F7951",
"M  c #607B51",
"N  c #5F5263",
"B  c #4A4E72",
"V  c #404877",
"C  c #625E68",
"Z  c #645965",
"A  c #735162",
"S  c #72676A",
"D  c #E47E39",
"F  c #8E2D4B",
"G  c #B82A54",
"H  c #AD3056",
"J  c #8E3667",
"K  c #BF1C50",
"L  c #C41E53",
"P  c #C91C54",
"I  c #C53B4B",
"U  c #C32454",
"Y  c #C82557",
"T  c #C62957",
"R  c #CB2B5A",
"E  c #CC2759",
"W  c #D12E5E",
"Q  c #D2265D",
"!  c #CB375C",
"~  c #D1305E",
"^  c #D0395F",
"/  c #CC344C",
"(  c #D72E61",
")  c #CB3B61",
"_  c #D53461",
"`  c #DA3564",
"'  c #D43D64",
"]  c #D93965",
"[  c #824D5B",
"{  c #954758",
"}  c #855859",
"|  c #98535C",
" . c #BA4659",
".. c #AC4957",
"X. c #8A7857",
"o. c #AE6E59",
"O. c #934C68",
"+. c #AC5272",
"@. c #A94C67",
"#. c #A66D67",
"$. c #A67468",
"%. c #BA7F66",
"&. c #B26E76",
"*. c #CA4D63",
"=. c #D44666",
"-. c #CA5765",
";. c #D85870",
":. c #D96975",
">. c #CA727A",
",. c #D27779",
"<. c #CA656B",
"1. c #EA747A",
"2. c #E46F76",
"3. c #D2515A",
"4. c #349A5F",
"5. c #1C9763",
"6. c #309D62",
"7. c #17BB73",
"8. c #1CBC73",
"9. c #1AAA6B",
"0. c #27BD72",
"q. c #2FAE6C",
"w. c #668554",
"e. c #678956",
"r. c #6A8D59",
"t. c #6A8B55",
"y. c #6C915A",
"u. c #6D9255",
"i. c #729D5C",
"p. c #729755",
"a. c #668D4F",
"s. c #79AE5C",
"d. c #74A35B",
"f. c #7EBA5D",
"g. c #7CB35C",
"h. c #63A85B",
"j. c #4B996B",
"k. c #50AD65",
"l. c #70B061",
"z. c #5B975E",
"x. c #2EC171",
"c. c #20C175",
"v. c #35C271",
"b. c #39C370",
"n. c #39C972",
"m. c #16C174",
"M. c #4DC96E",
"N. c #47C76F",
"B. c #50C96E",
"V. c #5DCD6D",
"C. c #5ED16E",
"Z. c #4ACB70",
"A. c #65CD6C",
"S. c #69D16C",
"D. c #74D36B",
"F. c #7CD56A",
"G. c #7BD96C",
"H. c #76D96D",
"J. c #71C166",
"K. c #D9AB3E",
"L. c #AE9149",
"P. c #B09148",
"I. c #BD9A42",
"U. c #A68B5E",
"Y. c #81BB5E",
"T. c #AB9264",
"R. c #B09467",
"E. c #B3846F",
"W. c #82B761",
"Q. c #9BBA65",
"!. c #96AE6A",
"~. c #A2B568",
"^. c #A0B565",
"/. c #A39F5B",
"(. c #CC867A",
"). c #CD8A7C",
"_. c #D78D7E",
"`. c #DA917F",
"'. c #D99460",
"]. c #89CB65",
"[. c #87C865",
"{. c #9CC068",
"}. c #8CD266",
"|. c #8CDB69",
" X c #8CD869",
".X c #93D469",
"XX c #91DB69",
"oX c #92D767",
"OX c #90CB75",
"+X c #90D377",
"@X c #8EE169",
"#X c #93E26B",
"$X c #A7D25A",
"%X c #885C85",
"&X c #E77A80",
"*X c #91888C",
"=X c #AC908B",
"-X c #91AC90",
";X c #96B0A0",
":X c #B7BBB9",
">X c #DB9486",
",X c #D08984",
"<X c #EB998D",
"1X c #F3958A",
"2X c #EF9E95",
"3X c #F08D89",
"4X c #D9A493",
"5X c #CFA191",
"6X c #FBA68F",
"7X c #F4A18C",
"8X c #EDA898",
"9X c #FFAC93",
"0X c #FAA795",
"qX c #FDB29A",
"wX c #FAB49E",
"eX c #E5B39F",
"rX c #FBB8A5",
"tX c #EBB3A2",
"yX c #95C195",
"uX c #FCC1A7",
"iX c #FEC4AA",
"pX c #FFCAAD",
"aX c #FDCCB1",
"sX c #FCCAB6",
"dX c #FFD1B4",
"fX c #D2C7C6",
"gX c #FAE6DD",
"hX c #EFD5D1",
/* pixels */
"XXXXXXXXXXXXXXXXXXXXXXXXXXXXXXXXXXXXXXXXoX|.@X@X@XQ. .U U U U U U K L ..Q.@X@X#XXXoXXXXXXXXXXXXXXXXXXXXXXXXXXXXXXXXXXXXXXXXXXXXX",
"XXXXXXXXXXXX|.XXXXXXXXXXXXXXXXXXXXXXXXXXXX.X{.~.~.T. .T U L K T T U L  .T.^.^.{.oXXXXXXXXXXXXXXXXXXXXXXXXXXXXXXXXXXXXXXXXXXXXXXX",
"XXXXXXXXXXXXXXXXXXXXXXXXXXXXXXXXXXXXXXXX@X{.E.-.<.-.=.R T U U U U T K ! 3.<.<.E.{.@X@XXXXXXXXXXXXXXXXXXXXXXXXXXXXXXXXXXXXXXXXX+X",
"XXXXXXXXXXXXXXXXXXXXXXXXXXXXXXXXXXXX|.oX{.R.3.` ` ` _ ~ T L L U U K G Y W W ~ 3.R.Q.oXXX|.XXoXXXXXXXXXXXXXXX|.XXXXXXXXXX|.XXXXXX",
"XXXXXXXXXXXXXXXXXXXXXXXXXX+XXXXXoXXX@X{.%.-.' ` ` ~ R T Y U U U U U U U Y E _ ' *.(.Q.@XXXXXXXXXXXXXXXXXXXXXXXXXXXXXXXXXXXXXXXXX",
"XXXXXXXXXXXXXXXXXXXXXXXXXXXXXX|.XXoX{.R.*.` ` ] ] _ R T T T U U G Y T T Y R _ ` ` -.T.{.oXXXXXXXXXXXXXXXXXXXXXXXXXXXXXXXXXXXXXXX",
"XX|.XXXXXXXXXXXXXXXXXXXXXXXXXXXX|.Q.(.*.=.` ] ] ] ] ~ ~ _ ~ Y U L E ~ _ ~ _ ] ] ` ' 3.E.{.@XXXoXXXXXXXXXXXXXXXXXXXXXXXXXXXXXXXXX",
"XXXXXXXXXXXXXXXXXXXXXXXXXXXXXX|.oXQ.-.` ` ` _ ^ ] ] ] ] _ ~ Y G U Y ~ _ ] ] ] ] ] ` W *.R.{.oXXX|.XXXXXXXXXXXXXXXXXXXXXXXXXXXXXX",
"XXXXXXXXXXXXXXXXXXXXXXXXXXXXXXXX|.~.-.` ` _ R R ^ ` ] ~ R T U L G U T R ` ` ` ] ] ` W / -.E.^.XXXXXXXXXXXXXXXXXXXXXXXXXXXXXXXXXX",
"XXXXXXXXXXXXXXXXXXXXXXXXXXXXXX|.@X~.<._ _ ~ R R W ` ;.=.R T ) ) Y L L R ] ;.] ] ] ` Y E ~ -.^.#X|.XXXXXXXX|.oXXXXXXXXXXXXXXXXXXX",
"XXXXXXXXXXXXXXXXXX|.XX|.XXXXXX@X@XQ.<._ E R ~ ~ E ^ 1.1.) ) &X:.) K K ! 1.1.;.^ ] ~ Y E W -.^.@X@XXXXXXXXXXX|.XXXXXXXX|.|.XXXXXX",
"XXXXXXXXXXXXXXXXXXXXXX|.F.F.|..XQ.T.*.R E R ~ _ ' 2.2X3X=.=.3X3X*.U =.:.1X3X;.^ ] ~ R E W -.^.|.XXXXXX|.oXXX|. XG.F.|.XXXXXXXXXX",
"XXXXXXXXXXXXXXXXXXXXXXF.M.M.G.Q.o. ./ R ~ ~ T =.1.0XuX2X*.=.2X2X=.^ 3X8X0X3X=.W ^ ] ` W E  .^.@X@XXXXXXX|.XXXXF.B.B.F.XXXXXXXXXX",
"XXXXXXXXXXXXXXXXXXXXXXD.b.x.V.!. .P L T ^ ~ G ..,.4X8X,X) =.8XtX:.<.,X8X>X:.H / R ` ] ` R  .T.{..XXXXXXXXX|. XV.0.0.D.XXXXXXXXXX",
"XXXXXXXXXXXXXX.XXXXXXXD.v.8.x.z...L U R ~ ^ H F { | | { G =.8XpXrX>X&.| { { F F G R ^ ~ T T *.E.Q.XXXXoXXX XB.0.0.b.D.XXXXXXXXXX",
"XXXXXXXXXXXXXXXXXX.XXXD.b.7.7.q.S H G T ~ T F e [ z e F  .2.8XdXdX4X[ e z [ e F G Y ~ ~ T Y E -.~.@X|.XXXXG.q.7.8.b.D.XXXXXXXXXX",
"XXXXXXXXXX|.XXXXoXXXXXD.b.8.7.0.6.S ..P E G F z =X*Xh z >.wXiXaXdX5Xz h *X=X[ e G U Y / U U T  .^.@XXXXXXXD.b.7.7.b.D.XXXXXXXXXX",
"XXXXXXXXXXXXXX|.F.D.F.A.N.v.0.m.m.6.{ L L G { &.fX:XA [ 5XdXdXaXpX5Xz A :XfX&.H G L K L L T  .o.Q.|.XXXXXXD.b.8.0.B.F.XXoXXXXXXX",
"XXXXXXXXXXXXXXF.M.b.b.N.S.A.v.7.m.j.O.L U ! ,.tXgXfX....4XdXaXpXdX<X{ ..fXgXtX:.I G L L L  .U.{.oXXXXXXXXXD.v.x.A.F.@XXXXXXXXXXX",
"XXXXXXXXXXXXXXF.B.0.8.x.A.S.N.x.c.j.o.I U =.3XaXgXhX,.<.8XpXpXdXdX8X<.&XhXgXrX&X^ Y I 3. .#.~.+XOXOXXXXXXXF.M.B.F.oXoXoXXXXXXXXX",
"XXXXXXXXXXXXXX|. XV.x.8.x.M.S.V.c.k.I.D I ! 1.0XsXsXtX8XrXaXaXpXaXuX8XeXsXsX0X;.^ I K.K./.~.yX;X-X-XOXXXXX|.F.F.oXXXXXXXXXXXXXXX",
"XXXXXXXXXXXXXXXXXXF.M.x.8.v.F.F.M.V.K.D I ! ;.3XwXpXaXaXaXaXaXaXaXaXdXpXrXtX3X&XG I D K.$X+XyX;X-X-XOX@X@XXXoXXX|.|.oXXXXXXXXXXX",
"XXXXXXXXXXXX XXXXXXXF.V.0.b.D.|.F.Y.o.I H J @.&X8XuXaXdXaXaXpXpXaXaXpXpXwX3X&X@.J F / 3.^.XX+X+X!.OX+XXXoXXXXXXXXXXXXXXXXXXXXXXX",
"|.XXXXXXXXXXXXXXXXXX.XF.M.M.F.XXoXQ.#.H J O.J O.,X8XwXrXuXuXiXiXiXiXrXwX>X&X+.J J J ..o.Q.@XXXXX|.|.|.XXoXXXXXXXXXXX|.XXXXXXXXXX",
"XXXXXXXXXXXXXXXX|.XXXX|.F.F.|.XXoXoXQ.^.!.U.z J +.&X&X2X9XqXqXqXqX9X1X3X>.+.J J %X%X!.{.oX|.XX|.XXXXXXoXXXXXXXXXXXXXXXXXXXXXXXXX",
"XXXXXXXXXXXXXXXXXXXXXXXXXXXXXXXXXXXXoX@X#XW.z e J O.+.&X(.).).).).(.:.&.+.J e r *X-X+X@XXXoXoXXXXXXXXXXXXXXXXXXXXXXXXXXXXXXXXXXX",
"XXXXXXXXXXXXXXXXXXoX|.XXXXXXXX|.XXXX@XXX#Xg.f w l A l l l x x x x l l l N r w s W.OXXXXXXXXXXXXXXXXXXXXXXXXXXXXXXXXXXXXXXX|.XXXX",
"XXXXXXXXXXXXXXXXXXXXXXXXXXXXXXXX@XXXXX}.Y.w.a 0 j h 5 < 1 1 , 1 1 1 # 0 h j 1 a a.f. XXXXX|.XXXXXXXXXX|.XXXXoXXXXX|.XXXXXXXXXXXX",
"XXXXXXXXXXXXXXXXXXXXXXXXXXXXXXXXoXXX#XY.v - s h N h 0 2 1 1 1 1 1 1 0 0 h h h s = v f.@X@XoXoX|.XXXXXXXX|.XXXXXXXX|.oXXXXXXXXXXX",
"XXXXXXXXXXXXXXXXXXXXXXXXXXXXXXXX@X}.f.u.k d N C N h 0 1 1 1 1 1 2 1 1 0 h Z Z h h k p.f.}.@XXX XF.F.oXXXoX|.F.F.|.XXXXXXXXXXXXXX",
"XXXXXXXXXXXXXX|.XXXXXXXXXX|.XXXX#XY.v k =X=XS N N h 0 1 2 1 0 0 0 1 2 0 h N N S =XE.k v f.#X@XF.M.N.F.XXXXF.M.M.F.oXXXXXXXXXXXXX",
"XXXXXXXX+XXXXXXXXXXXXX|.oXXXXX}.f.a.k } 4XeX=X} C j 2 1 1 # , O , O , 2 j A S =XeX4X} k u.Y.oXD.v.x.V. X|.D.v.v.D.XXXXXXXXXXXXXX",
"XXXXXXXXXXXXXXXXXXXXXXXXoXXXXXY.v k $.`.6XqXeX=XZ 1 X X X X X X X X X X 0 Z =XtXwX6X`.$.g v Y.F.n.0.x.B. XD.v.v.D.oXoXXXXXXXXXXX",
"XXXXXXXXXXXXXXXXXXXXXXXXXX}.Y.t.g z `.9X9XqXuX5Xx o X X X X X X X X X X X x 5XuX9X6X9X`.} k p.l.q.m.7.b.D.D.v.v.D.XXXXXXXXXXXXXX",
"XX|.XXXXXXXXXXXXXXXXXXXX#Xf.v k o.`.7X9X6X9XqX).c X o O # 1 # , O O O o X c ).qX9X6X9X7X_.$.k y 5.8.7.b.F.D.v.v.D.XXXXXXXXXXXXXX",
"XXXXXXXXXXXXXXXXXXXXXXXXXXs.- q (.qX6X6X6X9X9X(.d   O 1 1 0 1 0 0 1 0 o X d (.9X6X6X6X9X9X(.% * 4.v.c.b.D.F.M.M.D.XXXXXXXXXXXXXX",
"XXXXXXXXXXXXXXXXXXXXXXXX#Xs.* q (.9X9X6X6X9X9X(.q X O 1 3 1 1 1 0 1 1 #   c ).9X9X6X6X9X9X(.q * h.A.v.v.D.|. XD.|.XXXXXXXXXXXXXX",
"XXXXXXXXXXXXXXXXXXXXXXXXXXf.v k $._.7X9X0X7X`.$.q o 2 0 5 2 5 5 5 5 5 1 X % #.`.7X9X9X1X>X$.k v Y.G.B.M.F.XXXXXX|.oXXXXXXXXXXXXX",
"XXXXXXXXXX|.XXXXXXXXXXXX@X}.Y.p.k } _.9X9X`.} q % 2 8 u u u u u 7 7 V 6 0 % % } `.9X9X_.} g u.W.}.|.F.F.|.XXXXoXXXXX|.XXXXXXXXXX",
"XXXXXXXXXXXXXXXXXXXXXXXX|.|.|.h.y f $.).).#.q X 2 6 u B C C B B C C B i 6 w X : #.(.(.#.k v f.#X@XXXXXXX|.XXXXXX|.oXXXXXXXXXXXXX",
"XXXXXXXXXX|.XXXXXXXXXXXXXXF.M.0.5.y f q q q % 2 6 u p C P.P.C C P.P.C i V 5 2 O % q q k p.f. XXXXXXXXXXXXXXXXXoXXXXXXXXXXXXXXXXX",
"XXXXXXXXXXXXXXXXXXXXXXXXXXF.N.x.c.9.y & * - 3 5 u B C X.I.P.C C L.I.X.C B 7 5 0 ; - @ v l.G.|.|.XXXXXXXXXXoXF.F.|.XXXXXXXXXXXXXX",
"XXXXXXXXXXXXXXXXXXXXXXXXXX|.F.V.n.7.5.4.h.u.f 5 u C P.I.X.C B V C X.I.L.C V 6 f u.h.6.5.q.C.G.XXXXXX|.XXXXF.B.M.F.|.XXXXXXXXXXXX",
"XXXXXXXXXXXXXXXXXXXXXXXXXXXXXX XM.x.c.n.H.W.g 4 u C P.P.N i 7 7 9 C P.P.Z 7 4 g f.H.n.m.8.0.V. X|.XX|. X XV.0.v.D.oXXXXXXXXXXXXX",
"XX|.XXXXXXXXXXXXXXXXXX|.|.XXXX|.F.V.x.n.H.W.g 5 u B Z C B 7 > > 7 B C C B u 5 v Y.F.n.8.7.0.0.B.F.XXoXF.M.x.8.b.D.XXXXXXXX|.XXXX",
"XXXXXXXXXXXXXXXXXXXXXXXXXXoXXXXXXXF.M.M.G.g.f 2 u p i i u 6 a a t 7 i p V 8 2 : h.S.Z.v.0.7.7.v.D.oXF.A.v.8.0.B.F.XXXXXXXXXXXXXX",
"XXXXXXXXXXXXXXXXXXXXXXXXXXXXoXXXXX|.F.F.|.s.f , 8 p p 7 < a a.u.s > 7 p V 8 , t 6.Z.S.C.v.7.7.b.D. XB.x.7.x.V. X|.XXXXXXXXXXXXXX",
"XXXXXXXXXXXXXXXXXXXXXXXXXXXXXXXXoXXXXX#XXXs.= + 6 i p 8 + a f.g.; . 8 p i 6 + & 5.v.S.S.N.0.0.b.D.D.b.8.x.M.F.XXXXoXoXXXXXXXXXXX",
"XXXXXXXXXXXXXXXXXXXXXXXXXXXXXXXXXXXXXXXX#Xs.=   < 8 i 8 + ; g.g.= > 8 i 8 < X & 5.c.v.M.S.V.0.v.D.D.v.x.V.F.oXXXXXXXXXXXXXXXXXXX",
"XXXXXXXXXXXXXXoXXX|.XXoXXXXXoX|.XXXXXXXXXXs.=   > 6 7 6 + ; g.g.= . 6 u 6 < . & 4.v.8.b.D. XB.Z.F.F.M.M.F.XXXX|.XXXX|.XXXXXXXXXX",
"XXXXXX+XXXXXXXXXXXXXXX|.XXoXXXXXXXXXXXXX#Xs.=   > 4 4 4   : g.g.;   > 6 4 >   - h.C.0.b.D.|. XD.|.|.F.F.|.XXXX|.oXXXXXXXXXXXXXXX",
"XXXXXXXX|. XF.D.|.oXXX|.F.F.|.XXXXXXXX#X#Xs.=   > 4 4 >   = d.d.=   > 4 4 >   = s.|.Z.M.F.XXXXXXoXXXXXXXXXXXoXXXXXXXXXXXXXXXXXXX",
"XXXXXXXXXXF.Z.M.F.oXXXF.N.M.F.XXXXXXXXXX@Xs.=   > 4 4 >   * e.w.*   > 4 4 >   = s.|.G.G.|.XXXXXX@XoXXXXXXXoXXXXXXXXXXXXXXXXXXXXX",
"XXXXXXXXXXF.M.N.A. X|.D.v.v.D.XXXXoX].].].d.-   > 4 4 >   $ n n @   > 4 4 <   - d.}.XXXXXXXXXXXX|.oXXXXXXXXXXXXXXXXXXXXXXXXXXXXX",
"XXXXXXXXXX|.F.A.N.N.F.D.b.b.D.#XXX}.s.i.d.M *   > 4 4 >   $ n n $   > 4 4 < . * M g.}.XXXXXXXX|.|.XXXXXXXXXXXXXXXXXXXXXXXXXXXXXX",
"|.XXXXXXXXXXXXD.v.b.D.F.b.0.J.].].W.i.r.r.n @   > 4 4 <   $ n n $   < 4 4 ,   # n i.W.].].]. XXXXXXXXXXXXXXXXXXXXXXXXXXXXXXX|.XX",
"XXXXXX|.XXXXXXD.v.v.D.D.b.0.h.i.i.i.r.r.r.n @   , 2 2 ,   $ n n $   , 2 2 , X @ b y.i.i.i.s.].XXXXXXXXXXXXXXXXXXXXXXXXXXXXXXXXXX",
"XXXXXXXXXXXXXXF.M.N.F.F.M.k.z.r.r.e.r.r.r.m f # # O # O @ a M m a @ # O # O # : m r.r.e.r.i.[.XX@XXXXXXXXXXXXXXXXXXXXXXX|.XXXXXX",
"XXXXXXXXXXoXXX XF.F.|.|.G.J.i.w.e.r.r.r.r.w.M g # X   @ g m r.e.M g @     # g m e.r.r.r.e.i.[.XXXXXX|.XX+XXXXXXXXXXXXXXXXXXXXXXX",
"XXXXXXXXXXXXXXXXoXXXXXXXXX].l.i.i.i.r.r.r.r.y.M = @ $ a m y.r.r.y.M a @ @ ; m y.r.r.i.i.i.s.].XXXXXXXXXXXXXXXXXXXXXXXXXXXXXXXXXX",
"XXXXXXXXXXXX|.XXXXXXXXXXXXoX].[.].W.i.r.r.r.r.w.M n b M r.r.r.r.r.e.m n n m e.r.r.i.W.].].]. XXXXXXXXXXXXXXXXXXXXXXX|.XXXXXXXXXX",
"XXXXXXXXXXXXXXXXXXXXXXXXXXXXXXXX#X].s.i.i.i.r.r.r.r.r.r.r.r.r.r.r.r.r.r.r.y.i.d.i.g.].XXXXXXXX|.XXXXXXXXXXXXXXXXXXXXXXXXXXXXXXXX",
"XXXXXXXXXXXXXXXXXXXXXX|.XXXXXXXXXX X].].].W.i.r.r.y.r.r.r.r.r.r.r.r.r.r.r.i.f.[.].]. XXXXXXXXXXXXXXXXXXXXXXXXXXXXXXXXXXXXXXXXXXX",
"XXXXXXXXXXXXXXXXXXXXXXXXXXXXXXXXXXXXXX#XXX].d.r.r.r.r.r.r.r.r.r.r.r.r.r.r.d.].XXXXXXXXXXXXXXXXXXXXXXXXXXXXXXXXXXXXXXXXXXXXXXXXXX"
};
