/* XPM */
static char *h_left1741379524[] = {
/* columns rows colors chars-per-pixel */
"64 64 230 2 ",
"   c #2A1C2D",
".  c #2C1F33",
"X  c #2D222F",
"o  c #2D2334",
"O  c #2E263C",
"+  c #302533",
"@  c #33263B",
"#  c #342B3C",
"$  c #392E3E",
"%  c #362735",
"&  c #3B3A36",
"*  c #3B3B38",
"=  c #3A3439",
"-  c #4D303F",
";  c #2B433B",
":  c #3C443A",
">  c #434C3B",
",  c #43493D",
"<  c #2F2C49",
"1  c #2E2A42",
"2  c #322C42",
"3  c #392F40",
"4  c #312E4A",
"5  c #3C3344",
"6  c #34314C",
"7  c #3B3747",
"8  c #323354",
"9  c #3A3A5C",
"0  c #3B3955",
"q  c #3B3D64",
"w  c #3A3F69",
"e  c #443B4B",
"r  c #433545",
"t  c #5D3E45",
"y  c #543C47",
"u  c #453E58",
"i  c #593550",
"p  c #753152",
"a  c #3C4069",
"s  c #3F4573",
"d  c #2B6449",
"f  c #464B41",
"g  c #4A484A",
"h  c #5C444A",
"j  c #51584B",
"k  c #4E4353",
"l  c #524656",
"z  c #584C5C",
"x  c #544A59",
"c  c #4C5744",
"v  c #694E4F",
"b  c #536747",
"n  c #5B724E",
"m  c #577146",
"M  c #5F7951",
"N  c #557454",
"B  c #607A52",
"V  c #6A6351",
"C  c #404268",
"Z  c #5D5261",
"A  c #404878",
"S  c #404877",
"D  c #625565",
"F  c #645768",
"G  c #725963",
"H  c #6D7476",
"J  c #5F6466",
"K  c #96275D",
"L  c #8B2E49",
"P  c #AA224D",
"I  c #A52359",
"U  c #B82756",
"Y  c #8D3564",
"T  c #A53965",
"R  c #BF1F51",
"E  c #C31D52",
"W  c #C32354",
"Q  c #C42955",
"!  c #CB2B5A",
"~  c #C72758",
"^  c #D12F5E",
"/  c #CE355D",
"(  c #D0305E",
")  c #D23B5D",
"_  c #D53461",
"`  c #D93965",
"'  c #D43963",
"]  c #C73261",
"[  c #824C5A",
"{  c #8E5257",
"}  c #BA4257",
"|  c #B74D58",
" . c #BB485A",
".. c #B65059",
"X. c #A94A57",
"o. c #AC745D",
"O. c #B2685C",
"+. c #B54A61",
"@. c #A66C68",
"#. c #BB7968",
"$. c #B0756C",
"%. c #8D686F",
"&. c #D1484E",
"*. c #CB4453",
"=. c #CD4265",
"-. c #D24968",
";. c #C55A75",
":. c #CD516D",
">. c #E15970",
",. c #D56A72",
"<. c #EC7B67",
"1. c #32995F",
"2. c #2E865C",
"3. c #309762",
"4. c #17BA73",
"5. c #1CBB73",
"6. c #1CAA6C",
"7. c #2CBF71",
"8. c #23BC72",
"9. c #2EB46D",
"0. c #199D66",
"q. c #59965E",
"w. c #56865A",
"e. c #6A8D59",
"r. c #678855",
"t. c #6C915A",
"y. c #61995E",
"u. c #719B5B",
"i. c #729355",
"p. c #678B4E",
"a. c #74A25D",
"s. c #76AC59",
"d. c #7AAE5C",
"f. c #73A357",
"g. c #7DB75D",
"h. c #63A85B",
"j. c #6D8667",
"k. c #49AF6B",
"l. c #78A962",
"z. c #69B561",
"x. c #7FB862",
"c. c #62B06A",
"v. c #559D5E",
"b. c #2EC071",
"n. c #20C074",
"m. c #34C271",
"M. c #39C471",
"N. c #38CA73",
"B. c #31C46F",
"V. c #4DC86E",
"C. c #49C66E",
"Z. c #50C96E",
"A. c #5DCD6D",
"S. c #4BCB70",
"D. c #5FD36F",
"F. c #64CE6C",
"G. c #6CC668",
"H. c #69D16C",
"J. c #74D36B",
"K. c #7CD56A",
"L. c #7CD96C",
"P. c #77DA6D",
"I. c #75C667",
"U. c #E3833A",
"Y. c #A68D5F",
"T. c #81BC5E",
"R. c #98856B",
"E. c #AB936D",
"W. c #9DAE63",
"Q. c #9AAF68",
"!. c #81B961",
"~. c #9BBC66",
"^. c #9AB766",
"/. c #92B178",
"(. c #AFB878",
"). c #EE9743",
"_. c #CC887A",
"`. c #D8917E",
"'. c #D88E7F",
"]. c #CFA575",
"[. c #8ACD66",
"{. c #86C765",
"}. c #98C268",
"|. c #8FD768",
" X c #8CDA69",
".X c #8BD667",
"XX c #93D369",
"oX c #91DB69",
"OX c #92D967",
"+X c #90CD73",
"@X c #91CB7A",
"#X c #92D677",
"$X c #85CE74",
"%X c #A7CF70",
"&X c #8FE26A",
"*X c #94E16A",
"=X c #C0C17B",
"-X c #A87C80",
";X c #D37383",
":X c #7C9A82",
">X c #8D958F",
",X c #AA8D88",
"<X c #90AA8E",
"1X c #96AFA0",
"2X c #B3BCA1",
"3X c #CD9889",
"4X c #D79487",
"5X c #D18886",
"6X c #E6868B",
"7X c #EC9C8F",
"8X c #CAA191",
"9X c #D6A88D",
"0X c #F8A48E",
"qX c #EBA697",
"wX c #FFAB93",
"eX c #F5A898",
"rX c #E5BB95",
"tX c #FBB29B",
"yX c #DEB3A2",
"uX c #FBBBA3",
"iX c #F1B5AA",
"pX c #97C495",
"aX c #FFC9AE",
"sX c #FEC2A9",
"dX c #FECDB1",
"fX c #FACDB9",
"gX c #FFD2B5",
"hX c #E5C2B3",
"jX c #D2C7C5",
"kX c #F4DFD9",
/* pixels */
"oXoXoXoXoXoXoXoXoXoXoXoXoXoXoXoXoXoXoXoXoX&X&X^...E E R W W W ~ ) ` ` ` ` ^ ~ | ^.&X&XOXoXoXoXoX XoXoXoXoXoXoXoXoXoXoXoXoXoX#X X",
"oXoXoXoXoXoXoXoXoXoXoXoXoXoXoXoXoXOXoX XoXXX~.Y.} W ~ Q ~ ~ W Q ( _ ` ` ` _ ! *.Y.~.|. XoXOXoXoXoXoXoXoXoXoXoXoXoXoXoXoXoXoXoXoX",
"oXoXoXoXoXoXoXoXoXoXoXoXoXoX#X XoXoXOX X&X~.o.} Q ~ ( ) _ ( ~ W ~ ! ) ` ` ` _ ]  .o.}.&XoXoXOXoXoXoXoXoXoXoXoX XoXoXoXoXoXoXoXoX",
"oXoXoXoX XoXoXoXoXoXoXoXoXoXoXoXoXoXoXXX~.Y.} E W ~ ( _ ` _ ! ! ~ ! ^ _ ` ` ` _ ! *.Y.}.XX&XoXoXoXoXoXoXoXoXoXoXoXoXoXoXoXoXoXoX",
"oXoXoXoXoXoXoXoXoXoXoX XoXoXoXoXoX&XoX~.o.T ~ E W W Q ! ) ` _ ( _ ( ~ ! _ ` ` ` ` ( *.o.~.&XoXoXoXoXoXoXoXoXoXoXoXoXoXoXoXoXoXoX",
" XoXoXoXoXoXoXoXoXoXoXoXoXoXoXoXoXoX&XW.*.E E U W W E ~ ^ _ ` ` ` ' ! ! ( _ ` ` ` ^ ~ U Y.~.XX XoXoXoXoXoXoXoXoXoXoXoXoXoXoXoXoX",
"oXoXoXoXoXoXoXoXoXoXoXoXoXoXoXoXoXoX*XW...W E ~ W W U W ~ ! ) ` ` ' _ ( ! ! _ ` ` ) ~ U } o.~.oX XoXoXoXoXoXoXoXoXoXoXoXoXoXoXoX",
"oXoXoXoXoXoXoXoXoXoXoXoXoXoXoXoXOX&X XW...~ ' ` Q Q =.=.! ~ ^ _ ` ` ` _ ~ ~ ( _ ` ^ ~ E E | W.&XoXoXoXoXoXoXoXoXoXoX XoXoXoXoXoX",
"oXoXoXoXoXoXoXoXoXoXoXoXoXoXoXoXoXoX&XW.| ) ;X6X=.=.6X6X-.~ ~ ( _ ` ` _ ~ W Q ! _ ) ~ E E | W. XoXoXoXoXoXoXoXoXoXoXoXoXoXoXoXoX",
"oXoXoXoXoXoXoXoXoXoX XoXoXoXoXoXOXoX&XW...:.iXqX:.' 5X5X*.P P U ! _ ` _ Q E W Q ( ( ! E E ..W.*X XoXoXoXoXoX XoXoXoXoXoX XoXoXoX",
"oXoXoXoXoXoXoXoXoX XoXoXoXoXoXoX X&X X^.@.$.iXeX-.U X.{ L L L L U ! _ _ ~ W U W Q Q Q E W | W.&X*XoXoXoXoXoXoXoXoXoXoXoXoXoXoXoX",
"oXoXoXoXoXoXoXoXoXoXoX XK.K. XXXoX X X~.R.-XqXeX,.} L p G [ L L  .-.' _ ) / W W W W W E E ..W.&X XoXoXXX XoX X XK.K. XoXoXoXoXoX",
"oXoXoXoXoXoXoXoXoXoXoXK.V.V.K.oXoXOXoX|.}.%XrXuXtX;Xv z >X,XG Y 5X6X-./ >.>./ W E W W W E ..W.*XoXoXoXoX XOXoXK.Z.Z.K.oXoXoXoXoX",
"oXoXoXoXoXoXoXoXoXoXoXJ.m.7.A..XOXOXOX&X&X%XrXuXfX9XY G jXjX-X@.4X6X=.) <.<.) E W W W W E | W.&X*X XoXoXoX|..XA.7.7.J.oXoXoXoXoX",
"oXoXoXoXoXoXoXoXoXOXoXJ.M.5.b.V.K.*XOXOX X%XrXuXaX9XX.X.jXkXhX4X,.=.~ &.).).&.U U W W E E | W.&X XoXoXoXoXK.Z.7.8.7.J.oXoXoXoXoX",
"oXoXoXoXoXoXoXOXoXoXoXJ.M.4.4.b.A.K. XOX%X=XrXsXaXqX,.,.kXkXiX6X' E R *.U.U.&.~ E W W Q } O.Y.}.XXoXoXoXOXK.M.4.5.M.J.oXoXoXoXoX",
"oXoXoXoX#XoXoXoXoXoXoXJ.M.4.5.8.7.V.P.%X].0XuXaXdXuXqXiXfXiX;X' ~ E W W ) &.) ^ Q E E *.Y.E.o.#.~.oXoXoXoXJ.M.4.4.m.J.OXOXoXoXoX",
"oXoXoXoX XoX X XK.J.K.H.V.7.8.5.4.m.P.}.E.4XiXaXdXdXgXdXdXqX-.E U U U U W ! ^ ^ ~ Q } Y.}.}.#.,.~.oXoXoXoXJ.m.8.b.Z.K.oXoXoXoXoX",
"oXoXoXoXoXOXOXK.V.m.m.C.H.F.7.5.4.M.J.[.A.:XrXsXdXdXdXdXdXqX-.U T T K I Q ( ! E E } Y.}.OXOX~.~.XXoXoXOXoXJ.m.m.A..X XoXoXoXoXoX",
"oXoXoXoXoXoXoXK.V.7.5.m.F.H.Z.7.8.M.J.J.m.k.pXrXrXqXsXsXaX7X:.U T Y K K ! )  ...| O.Y.}.OXOX#X#X@X+XoXoXOXK.V.V.K.OX X XoXoXoXoX",
"oXoXoXoXoXoXoX XK.A.7.5.7.V.H.A.7.m.J.J.m.N.$X(.,X;X7XtXiX7X;X+.Y K I R U *.Y.^.W.E.#.#.~.#X1X1X<X<X+XOXoX XK.K. XoXoXoXoXoXoXoX",
"oXoXoXoXoXoXoXoXoX.XV.7.8.M.J.K.Z.V.K.K.V.V.J.}.R.$.3X9X5X$.[ p p K K I P X./.#X&X}.#.#.~.#XpX1X>X<X+XoXoXoXoXOXoX XoXoXoXoXoXoX",
"oXoXoXoXoX XoXOXoX|.K.A.7.m.J.|.K.K. X XK.K. X.X~.~.%XW.V t y i r i p v - v >XpX#XXX~.~.XXoX#X@X@X+XoXoXoXOXoXoXoXoX XoXoXoXoXoX",
"oXoXoXoXoXoXoXoXoXoXoXK.V.V.K.oXOXOXoXoXoXoXoX XoX|.T.r.f $ 3 5 6 u Z z 7 k H >X/.XXOXOXoX XOXoXoXoXoXoX XoXoXoXoXoXoXoXoXoXoXoX",
"oXoXoXoXoXoXoXoX XoXoX XK.K. XoXOXoXOX*XoXoXOXoX*Xg.m > k u r 5 3 u z Z z k g Z >X<X|.oXoX X XOXoXoXoXoXoXoXoXoXoXoXoXoXoXoXoXoX",
"oXoXoXoXoXoXoXoXoXoXoXoXoXoXoXoXOXoXoXoXoXOXoX.XT.e.f r z Z l r r e z F F x % 7 H <X+XoXoXoXoXoXoXoXoXoXoXoXoXoXoXoXoXoXoXoXoXoX",
"oXoXoXoXoXoX#XoXoXoXXXoXoXoXoXoXoXoXoXoXoX*XoXg.m f k z D D Z l e e z F F l # > l.#XoXoXoXoXoXoXoXoXoXoXoXoXoXoXoXoXoXoXoXoXoXoX",
"oXoXoXoXoXoX XoXoX XoXoXoXoXoXoXoXoXoXoXoXoX*Xs., % k Z Z D Z l e e i z D z r f p.g.|.oXoXoXoXoXoXoXoXXXoXoXoXoXoXoX|.oXoX XoXoX",
" XoXoXoXoXoXoXoXoXoXoXoXoXoXoXoXoXoXoXoXoXoX*Xs.> . 5 l Z Z l e r = $ r z Z z k f m T.*XoXoXoX XoXoXOXoXoXoXoXoXoX|.oXoXoXoXoXoX",
"oXoXoXoXoXoXoXoXoXoXoXoXoXoXoXoXoXoXoXoXoXoX*Xs.> + 3 e l l e 5 7 $ + $ l D D l # : s.oXoXoXOX XK.K. XoXoX|.K.K. XoXoXoXoXoXoXoX",
"oXoXoXoXoXoXoXoXoXoXoXoXoXoX XoXoXoXoXoXoXoX*Xd.> + $ r e e r 5 7 $ + $ x J D l + > d.*XoXoXoXK.V.V.K.oXoXK.V.V.J.oXoXoXoXoXoXoX",
"oXoXoXoXoXoXoXoXoXoXoXoXoXoXoXoXoXoXoXoXoX*X*Xd.> X @ 3 3 3 3 5 r 3 o 7 G %.%.G - > s.*XoXoX XJ.m.b.A..XoXJ.7.m.J.oXoXoXoXoXoXoX",
"oXoXoXoXoXoXoXoXoXoXoXoXoXoXoXoXoX XoXoXOX&X*Xs.:   X o + + + % 5 $ o h ,XyXyXE.h > s.oXoXoXOXK.N.8.7.Z.K.J.M.m.J.OXoXoXoXoXoXoX",
"oXoXoXoXoXoXoXoXoXoXoXoXoXoXoXoXoX XK.K. X|.g.i.V y % X + + + # 5 $ o h 8XgXfX8Xh : s.*X&XoXOXJ.m.4.4.M.K.J.m.m.J.oXoXoXoXoXoXoX",
"oXoXoXoXoXoXoXoXoXoXoXoXoXoXoXoXoXK.V.V.K.T.m V E.,Xh X # $ $ 5 5 $ X j 8XgXgX8Xh > s.*XoXOX*XJ.M.4.4.M.J.J.m.m.J.oXOXoXoXoXoXoX",
"oXoXoXoXoX XoXoXoXoXoXoXoXoXoXOXOXJ.M.B.A.h.: h 8X8Xv X $ 7 r 7 2 $ y { 9XdXfX8Xh > s.oXoXOXOXL.V.7.8.M.J.K.V.V.K.OXoXoXoXoXoXoX",
"oXoXoXoXoXoXoXoXoXoXoXoXoXoXoXoXoXJ.M.n.b.1.; t 4X4Xh X $ 5 7 $ o y @.`.0XuXaX8Xh > s.*XoXoXoX XK.F.b.m.J. X.XP. XoXoXoXoXoXoXoX",
"oXoXoXoXoXoXoXoXoXoXoXoXoXOXoXoXOXK.M.4.0.2.j G $.@.h + 5 5 5 $ y { `.wXwXwXuX3Xh > s.*XoXoXoXOXOXK.V.V.K.OXOXOXoXoX XoXoXoXoXoX",
"oXoXoXoXoXoXoXoXoXoXoX X XoXoXoXOXJ.M.0.d g $.#.v y - = 7 $ % - @.`.0XwX0XwXtX5Xt : d.*XoXoXoXoXOX XK.K. XOXoXoXoX XoXoXoXoXoXoX",
"oXoXoXoXoXoXoXoXoXoXoXoXoX XK.J.J.H.V.1.; y $.@.h o # 5 e 7 + h _.wXwX0X0XwX0X_.t : h.L. XoXoXoXoXOXoXOXoXoXoXoXoXoXoXoXoXoXoXoX",
"#X XoXoXoXoXoXoXoXoXoXoXoXK.V.m.M.V.H.h.: % - h 7 1 O 2 q 9 o h _.tXwX0X0XwXwX_.t ; 1.S.L.oXoXoXoXoXoXoXoXoXoXoXoXXXoXoXoXoXoXoX",
"oXoXoXoXoXoXoXoXoXoXoXoXoXK.V.8.5.b.D.s.m : + o 4 4 O 1 9 9 6 g @.`.0XwXwX0X`.o.v d 0.B.F.L. XoXoXoXXXoXoX XK.K. XoXoXoXoXoXoXoX",
"oXoXoXoX XoXoXoXoXoXoXoXoX|.K.A.b.n.b.C.z.p.: . < 8 8 1 O 4 9 9 g { `.wXwX`.G v p.z.7.b.b.V..XOXOXoX XoXoX.XV.V.K.oXoXoXoXoXoXoX",
"oXoXoXoXoXoXoXoXoXoXoX XoXoXoX.XV.b.5.N.K.T.> o < 8 8 < o # a a 4 g @._._.o.v m T.L.M.4.4.b.A.K. XoXoX XK.A.7.m.J. XOXoXoXoXoXoX",
"oXoXoXoXoXoXoXoXoXoXoXoXXXoXoX|.K.A.7.N.P.d.> o < 8 8 < o # a s a 0 h t t V i.T.OXL.M.4.4.8.m.V.K.oXoX.XV.7.5.m.J.oXoXoXoXoXoXoX",
"oXoXoXoXoXoXoXoXoXoXoXoXoXoX XoXoXK.V.Z.K.d.> o < 8 8 4 O # 9 a S a 6 o   : h.P.L.F.C.B.8.5.4.m.J. XK.A.m.5.7.Z.K.oXoXoX XoXoXoX",
"oXoXoXoXoXoXoXoXoXoXoXoXoX XoXoXoXoXK.L. Xd.> . 1 8 8 8 8 1 1 6 a s a 8 o ; 1.M.M.V.H.F.B.4.4.M.J..XZ.b.5.7.A..X|.oXoXoXoXoXoXoX",
"oXoXoXoXoXoXoXoXoXoXoXoXoXoXoXoXoXoXoXoXoXg.m f 7 4 8 8 8 4 o O 9 A A q O ; 3.8.5.B.A.H.V.b.8.M.J.J.M.5.b.V.K.oXoX XoXoXoXoXoXoX",
"#XoXoXoXoXoXoXoXoXoXoXoXoXoXoXoXOXoXoXoX*X.XT.e., O < 8 8 4 o # a s s q O & N k.9.8.7.Z.H.F.m.M.J.J.m.b.A..X.XoXoXoX|.oXoXoXoXoX",
" XoXoXoXXXoXoXoXOXoX XoXoXOXoXoX XoX[.{.{.[.[.a.> . < 8 8 4 o # a A S q O & n y.1.9.6.9.I.I.C.Z.K.K.V.V.K.oX X XoXoXoXoXoXoXoX X",
"oXoXoXoX XoXoXoXoX XoXoXoXoXoXoX*X[.l.u.u.a.a.r.* o < 8 8 4 o # q S A a O * n t.y.v.0.3.y.l.I.K. X XK.K. XoXoX XoXoXoXoXoXoXoXoX",
"oXoXoXoX|. XK.P. XoXOX XK.K. XOX[.x.u.r.r.e.j.n * o < 8 8 8 O # 0 a a a 6 7 b B j.w.N w.w.u.!.|.|.oXoXoXoXoXoXoXoXoXoXoXoXoXoXoX",
"oX XoXoXoXJ.C.V.L.OXoXK.V.Z.K.[.l.u.t.e.e.j.j.J 5 o 4 8 8 8 8 1 1 6 a s w 9 7 > B e.r.w.r.t.u.l.[.oXoXoXoXoXoXoXoX XoXoXoXoXoXoX",
"oXoXoXoXoXK.C.C.H.$XoXJ.m.7.G.!.u.e.e.e.t.j.J z $ o 1 6 8 8 8 4 o # a s A q @ & n e.t.t.e.e.r.u.x.[. XoXoXoXoXoXoX#XoXoXoXoXoXoX",
"oXoXoXoXoX|.K.F.C.V.K.J.m.9.h.u.t.r.e.e.t.M g $ + X o O 4 8 8 4 o 2 q s A w @ & n t.e.e.e.e.r.t.u.l.[.oXoXoXoXoXoXoXoXoXoXoXoXoX",
"oXoXoXoXoXoXoXK.m.B.J.J.m.9.q.r.e.e.e.r.M b = + + % + # 4 6 6 1 o # 9 C C 9 4 7 b B r.e.e.e.e.e.r.u.[.oXoXoXoXoXoXoXoXoXoXoXoXoX",
"oXoXoXoXoXOXoXJ.m.m.J.J.N.9.q.r.r.e.t.M f * $ 3 5 $ $ $ 5 5 @ + X + 7 0 e 0 q 9 7 > B e.e.e.e.r.r.u.{.oXoXoXoX XoXoXoXoXoXoXoXoX",
"oXoXoXoXoXoXoXK.V.V.K.K.V.k.h.u.t.e.e.n = o # 3 $ $ 5 $ 2 # + X + # $ r 7 7 C 9 O & n t.e.e.e.e.u.d.[.oXoXoXoX#XoXoXoXoXoXoXoX X",
"oXoXoXoXoXoXoX XK.K. X XK.K.K.x.u.r.e.n &   o o + + + + + + X + $ 5 5 7 5 r e 7 + & n t.t.e.r.u.!.[.oXoXoXoXoXoXoXoXoXoXoXoXoXoX",
"oXoXoXoXoXoX XoXOXOXoXoXoXoXoX[.d.u.t.M f & & & * * * * & = + + # $ $ $ 3 3 3 @ . & n e.e.e.u.d.[.oXoX XoXoXoXoXoXoXoXoXoXoXoXoX",
"oXoXoXoXoXoXoXoXOXoXoXoXoXoXoXXX[.!.u.r.M n n n n n n n n b =   + + + + + + + .   = n r.e.u.!.[. XoXoXoXoXoXoXoXoXoXoXoXoXoXoXoX",
"oXoXoXoXoXoXoXoXoXoXoXoXoXOXoXoXoX[.l.a.a.a.a.u.t.t.t.t.t.B > * * * * * * * : - , b r.a.a.l.[.oXoXoXoXoXoXoXoXoXoX XoXoXoXoXoXoX",
"oXoX XoX XoXoXoXoXoXoXoXoXoXoX XoX|.[.[.[.{.[.!.u.e.e.t.e.r.B n n n N n N m m r.f.g.{.{.{.[. XoXoX XoXoXoXoXoXoXoXoXoXoXoXoXoXoX",
"oXoXoXoXoXoXoXoXoXoXoXoXoXoXoXOXoXoXoXoXoXoXoX[.a.e.r.e.e.e.t.t.t.t.t.t.t.e.e.a.[.*XoX*XoXoXoXXXoXoXoXoXoXoXoXoXoXoXoXoXoXoXoXoX"
};
