/* XPM */
static char *h_left1741459696[] = {
/* columns rows colors chars-per-pixel */
"64 64 26 1 ",
"  c #91DB69",
". c #C32454",
"X c #D93965",
"o c #FDCBB0",
"O c #A24B6F",
"+ c #7A3045",
"@ c #1EBC73",
"# c #FCB79E",
"$ c #45293F",
"% c #C7DCD0",
"& c #F68181",
"* c #AE2334",
"= c white",
"- c #F9C22B",
"; c #831C5D",
": c #FCA790",
"> c #9BABB2",
", c #8D8E9E",
"< c #2E222F",
"1 c #3E3546",
"2 c #625565",
"3 c #323353",
"4 c #404775",
"5 c #6A8D59",
"6 c #2D7D5E",
"7 c #707480",
/* pixels */
"                        ........XXXXXX..                        ",
"                        ........XXXXXX..                        ",
"                      ....XXXX....XXXXXX..                      ",
"                      ....XXXX....XXXXXX..                      ",
"                    ........XXXXXX..XXXXXX..                    ",
"                    ........XXXXXX..XXXXXX..                    ",
"                    ..........XXXXXX..XXXX....                  ",
"                    ..........XXXXXX..XXXX....                  ",
"                    ..oo..oo....XXXX....XX....                  ",
"                    ..oo..oo....XXXX....XX....                  ",
"                    OOoo..++++++..XX..........                  ",
"                    OOoo..++++++..XX..........                  ",
"            @@        ##oo$$%%++oo..&&........          @@      ",
"            @@        ##oo$$%%++oo..&&........          @@      ",
"            @@@@      ##oo**==oo....--........        @@@@      ",
"            @@@@      ##oo**==oo....--........        @@@@      ",
"            @@@@@@  &&oooooooo........XX....  XX      @@@@      ",
"            @@@@@@  &&oooooooo........XX....  XX      @@@@      ",
"        @@@@  @@@@  @@##oooooo..OO;;XX....            @@        ",
"        @@@@  @@@@  @@##oooooo..OO;;XX....            @@        ",
"          @@@@  @@  @@  OO::::OO;;....    XX  >>,,              ",
"          @@@@  @@  @@  OO::::OO;;....    XX  >>,,              ",
"            @@              <<111122<<>>                        ",
"            @@              <<111122<<>>                        ",
"                          <<2211112222<<,,                      ",
"                          <<2211112222<<,,                      ",
"                        <<222222112222<<                        ",
"                        <<222222112222<<                        ",
"                        <<11221111<<2222<<                      ",
"                        <<11221111<<2222<<                      ",
"                        <<11111111<<2222<<      @@    @@        ",
"                        <<11111111<<2222<<      @@    @@        ",
"                        <<<<<<<<11<<oooo<<      @@@@  @@        ",
"                        <<<<<<<<11<<oooo<<      @@@@  @@        ",
"                  @@  <<oo<<111111<<oooo<<      @@@@  @@        ",
"                  @@  <<oo<<111111<<oooo<<      @@@@  @@        ",
"                  @@@@<<::<<1111<<::::oo<<        @@            ",
"                  @@@@<<::<<1111<<::::oo<<        @@            ",
"                  @@<<::<<1111<<::::::::<<                      ",
"                  @@<<::<<1111<<::::::::<<                      ",
"              @@@@  <<<<33<<44<<::::::::<<@@                    ",
"              @@@@  <<<<33<<44<<::::::::<<@@                    ",
"                @@@@  <<3333<<44<<::::<<  @@@@        @@        ",
"                @@@@  <<3333<<44<<::::<<  @@@@        @@        ",
"                  @@  <<3333<<4444<<<<    @@@@@@    @@@@        ",
"                  @@  <<3333<<4444<<<<    @@@@@@    @@@@        ",
"                      <<333333<<4444<<@@@@  @@@@  @@@@          ",
"                      <<333333<<4444<<@@@@  @@@@  @@@@          ",
"                        <<3333<<4444<<55@@@@  @@  @@            ",
"                        <<3333<<4444<<55@@@@  @@  @@            ",
"                  555555<<3333<<4444<<55556655                  ",
"                  555555<<3333<<4444<<55556655                  ",
"      @@    @@  55555577<<333333<<4444<<55555555                ",
"      @@    @@  55555577<<333333<<4444<<55555555                ",
"        @@  @@55555555<<<<<<3333<<4444<<5555555555              ",
"        @@  @@55555555<<<<<<3333<<4444<<5555555555              ",
"        @@  @@555555<<11111111<<<<111144<<55555555              ",
"        @@  @@555555<<11111111<<<<111144<<55555555              ",
"                5555<<<<<<<<<<<<11111111<<555555                ",
"                5555<<<<<<<<<<<<11111111<<555555                ",
"                  555555555555<<<<<<<<<<<<5555                  ",
"                  555555555555<<<<<<<<<<<<5555                  ",
"                        5555555555555555                        ",
"                        5555555555555555                        "
};
