/* XPM */
static char *h_left1741362324[] = {
/* columns rows colors chars-per-pixel */
"32 32 26 1 ",
"  c #91DB69",
". c #C32454",
"X c #D93965",
"o c #FDCBB0",
"O c #A24B6F",
"+ c #7A3045",
"@ c #1EBC73",
"# c #FCB79E",
"$ c #45293F",
"% c #C7DCD0",
"& c #F68181",
"* c #AE2334",
"= c white",
"- c #F9C22B",
"; c #831C5D",
": c #FCA790",
"> c #9BABB2",
", c #8D8E9E",
"< c #2E222F",
"1 c #3E3546",
"2 c #625565",
"3 c #323353",
"4 c #404775",
"5 c #6A8D59",
"6 c #2D7D5E",
"7 c #707480",
/* pixels */
"            ....XXX.            ",
"           ..XX..XXX.           ",
"          ....XXX.XXX.          ",
"          .....XXX.XX..         ",
"          .o.o..XX..X..         ",
"          Oo.+++.X.....         ",
"      @    #o$%+o.&....     @   ",
"      @@   #o*=o..-....    @@   ",
"      @@@ &oooo....X.. X   @@   ",
"    @@ @@ @#ooo.O;X..      @    ",
"     @@ @ @ O::O;..  X >,       ",
"      @       <112<>            ",
"             <21122<,           ",
"            <222122<            ",
"            <1211<22<           ",
"            <1111<22<   @  @    ",
"            <<<<1<oo<   @@ @    ",
"         @ <o<111<oo<   @@ @    ",
"         @@<:<11<::o<    @      ",
"         @<:<11<::::<           ",
"       @@ <<3<4<::::<@          ",
"        @@ <33<4<::< @@    @    ",
"         @ <33<44<<  @@@  @@    ",
"           <333<44<@@ @@ @@     ",
"            <33<44<5@@ @ @      ",
"         555<33<44<5565         ",
"   @  @ 5557<333<44<5555        ",
"    @ @5555<<<33<44<55555       ",
"    @ @555<1111<<114<5555       ",
"        55<<<<<<1111<555        ",
"         555555<<<<<<55         ",
"            55555555            "
};
