/* XPM */
static char *h_right1741459696[] = {
/* columns rows colors chars-per-pixel */
"64 64 26 1 ",
"  c #91DB69",
". c #C32454",
"X c #D93965",
"o c #FDCBB0",
"O c #7A3045",
"+ c #A24B6F",
"@ c #1EBC73",
"# c #F68181",
"$ c #C7DCD0",
"% c #45293F",
"& c #FCB79E",
"* c #F9C22B",
"= c white",
"- c #AE2334",
"; c #831C5D",
": c #8D8E9E",
"> c #9BABB2",
", c #FCA790",
"< c #2E222F",
"1 c #625565",
"2 c #3E3546",
"3 c #404775",
"4 c #323353",
"5 c #6A8D59",
"6 c #2D7D5E",
"7 c #707480",
/* pixels */
"                        ..XXXXXX........                        ",
"                        ..XXXXXX........                        ",
"                      ..XXXXXX....XXXX....                      ",
"                      ..XXXXXX....XXXX....                      ",
"                    ..XXXXXX..XXXXXX........                    ",
"                    ..XXXXXX..XXXXXX........                    ",
"                  ....XXXX..XXXXXX..........                    ",
"                  ....XXXX..XXXXXX..........                    ",
"                  ....XX....XXXX....oo..oo..                    ",
"                  ....XX....XXXX....oo..oo..                    ",
"                  ..........XX..OOOOOO..oo++                    ",
"                  ..........XX..OOOOOO..oo++                    ",
"      @@          ........##..ooOO$$%%oo&&        @@            ",
"      @@          ........##..ooOO$$%%oo&&        @@            ",
"      @@@@        ........**....oo==--oo&&      @@@@            ",
"      @@@@        ........**....oo==--oo&&      @@@@            ",
"      @@@@      XX  ....XX........oooooooo##  @@@@@@            ",
"      @@@@      XX  ....XX........oooooooo##  @@@@@@            ",
"        @@            ....XX;;++..oooooo&&@@  @@@@  @@@@        ",
"        @@            ....XX;;++..oooooo&&@@  @@@@  @@@@        ",
"              ::>>  XX    ....;;++,,,,++  @@  @@  @@@@          ",
"              ::>>  XX    ....;;++,,,,++  @@  @@  @@@@          ",
"                        >><<112222<<              @@            ",
"                        >><<112222<<              @@            ",
"                      ::<<1111222211<<                          ",
"                      ::<<1111222211<<                          ",
"                        <<111122111111<<                        ",
"                        <<111122111111<<                        ",
"                      <<1111<<22221122<<                        ",
"                      <<1111<<22221122<<                        ",
"        @@    @@      <<1111<<22222222<<                        ",
"        @@    @@      <<1111<<22222222<<                        ",
"        @@  @@@@      <<oooo<<22<<<<<<<<                        ",
"        @@  @@@@      <<oooo<<22<<<<<<<<                        ",
"        @@  @@@@      <<oooo<<222222<<oo<<  @@                  ",
"        @@  @@@@      <<oooo<<222222<<oo<<  @@                  ",
"            @@        <<oo,,,,<<2222<<,,<<@@@@                  ",
"            @@        <<oo,,,,<<2222<<,,<<@@@@                  ",
"                      <<,,,,,,,,<<2222<<,,<<@@                  ",
"                      <<,,,,,,,,<<2222<<,,<<@@                  ",
"                    @@<<,,,,,,,,<<33<<44<<<<  @@@@              ",
"                    @@<<,,,,,,,,<<33<<44<<<<  @@@@              ",
"        @@        @@@@  <<,,,,<<33<<4444<<  @@@@                ",
"        @@        @@@@  <<,,,,<<33<<4444<<  @@@@                ",
"        @@@@    @@@@@@    <<<<3333<<4444<<  @@                  ",
"        @@@@    @@@@@@    <<<<3333<<4444<<  @@                  ",
"          @@@@  @@@@  @@@@<<3333<<444444<<                      ",
"          @@@@  @@@@  @@@@<<3333<<444444<<                      ",
"            @@  @@  @@@@55<<3333<<4444<<                        ",
"            @@  @@  @@@@55<<3333<<4444<<                        ",
"                  55665555<<3333<<4444<<555555                  ",
"                  55665555<<3333<<4444<<555555                  ",
"                55555555<<3333<<444444<<77555555  @@    @@      ",
"                55555555<<3333<<444444<<77555555  @@    @@      ",
"              5555555555<<3333<<4444<<<<<<55555555@@  @@        ",
"              5555555555<<3333<<4444<<<<<<55555555@@  @@        ",
"              55555555<<332222<<<<22222222<<555555@@  @@        ",
"              55555555<<332222<<<<22222222<<555555@@  @@        ",
"                555555<<22222222<<<<<<<<<<<<5555                ",
"                555555<<22222222<<<<<<<<<<<<5555                ",
"                  5555<<<<<<<<<<<<555555555555                  ",
"                  5555<<<<<<<<<<<<555555555555                  ",
"                        5555555555555555                        ",
"                        5555555555555555                        "
};
