/* XPM */
static char *h_right1741379524[] = {
/* columns rows colors chars-per-pixel */
"64 64 230 2 ",
"   c #2A1C2D",
".  c #2C1F33",
"X  c #2D222F",
"o  c #2D2334",
"O  c #2E263C",
"+  c #302533",
"@  c #33263B",
"#  c #342B3C",
"$  c #392E3E",
"%  c #362735",
"&  c #3B3A36",
"*  c #3B3B38",
"=  c #3A3439",
"-  c #4D303F",
";  c #2B433B",
":  c #3C443A",
">  c #434C3B",
",  c #43493D",
"<  c #2F2C49",
"1  c #2E2A42",
"2  c #322C42",
"3  c #392F40",
"4  c #312E4A",
"5  c #3C3344",
"6  c #34314C",
"7  c #3B3747",
"8  c #323354",
"9  c #3A3A5C",
"0  c #3B3955",
"q  c #3B3D64",
"w  c #3A3F69",
"e  c #443B4B",
"r  c #433545",
"t  c #5D3E45",
"y  c #543C47",
"u  c #453E58",
"i  c #593550",
"p  c #753152",
"a  c #3C4069",
"s  c #3F4573",
"d  c #2B6449",
"f  c #464B41",
"g  c #4A484A",
"h  c #5C444A",
"j  c #51584B",
"k  c #4E4353",
"l  c #524656",
"z  c #584C5C",
"x  c #544A59",
"c  c #4C5744",
"v  c #694E4F",
"b  c #536747",
"n  c #5B724E",
"m  c #577146",
"M  c #5F7951",
"N  c #557454",
"B  c #607A52",
"V  c #6A6351",
"C  c #404268",
"Z  c #5D5261",
"A  c #404878",
"S  c #404877",
"D  c #625565",
"F  c #645768",
"G  c #725963",
"H  c #6D7476",
"J  c #5F6466",
"K  c #96275D",
"L  c #8B2E49",
"P  c #AA224D",
"I  c #A52359",
"U  c #B82756",
"Y  c #8D3564",
"T  c #A53965",
"R  c #BF1F51",
"E  c #C31D52",
"W  c #C32354",
"Q  c #C42955",
"!  c #CB2B5A",
"~  c #C72758",
"^  c #D12F5E",
"/  c #CE355D",
"(  c #D0305E",
")  c #D23B5D",
"_  c #D53461",
"`  c #D93965",
"'  c #D43963",
"]  c #C73261",
"[  c #824C5A",
"{  c #8E5257",
"}  c #BA4257",
"|  c #B74D58",
" . c #BB485A",
".. c #B65059",
"X. c #A94A57",
"o. c #AC745D",
"O. c #B2685C",
"+. c #B54A61",
"@. c #A66C68",
"#. c #BB7968",
"$. c #B0756C",
"%. c #8D686F",
"&. c #D1484E",
"*. c #CB4453",
"=. c #CD4265",
"-. c #D24968",
";. c #C55A75",
":. c #CD516D",
">. c #E15970",
",. c #D56A72",
"<. c #EC7B67",
"1. c #32995F",
"2. c #2E865C",
"3. c #309762",
"4. c #17BA73",
"5. c #1CBB73",
"6. c #1CAA6C",
"7. c #2CBF71",
"8. c #23BC72",
"9. c #2EB46D",
"0. c #199D66",
"q. c #59965E",
"w. c #56865A",
"e. c #6A8D59",
"r. c #678855",
"t. c #6C915A",
"y. c #61995E",
"u. c #719B5B",
"i. c #729355",
"p. c #678B4E",
"a. c #74A25D",
"s. c #76AC59",
"d. c #7AAE5C",
"f. c #73A357",
"g. c #7DB75D",
"h. c #63A85B",
"j. c #6D8667",
"k. c #49AF6B",
"l. c #78A962",
"z. c #69B561",
"x. c #7FB862",
"c. c #62B06A",
"v. c #559D5E",
"b. c #2EC071",
"n. c #20C074",
"m. c #34C271",
"M. c #39C471",
"N. c #38CA73",
"B. c #31C46F",
"V. c #4DC86E",
"C. c #49C66E",
"Z. c #50C96E",
"A. c #5DCD6D",
"S. c #4BCB70",
"D. c #5FD36F",
"F. c #64CE6C",
"G. c #6CC668",
"H. c #69D16C",
"J. c #74D36B",
"K. c #7CD56A",
"L. c #7CD96C",
"P. c #77DA6D",
"I. c #75C667",
"U. c #E3833A",
"Y. c #A68D5F",
"T. c #81BC5E",
"R. c #98856B",
"E. c #AB936D",
"W. c #9DAE63",
"Q. c #9AAF68",
"!. c #81B961",
"~. c #9BBC66",
"^. c #9AB766",
"/. c #92B178",
"(. c #AFB878",
"). c #EE9743",
"_. c #CC887A",
"`. c #D8917E",
"'. c #D88E7F",
"]. c #CFA575",
"[. c #8ACD66",
"{. c #86C765",
"}. c #98C268",
"|. c #8FD768",
" X c #8CDA69",
".X c #8BD667",
"XX c #93D369",
"oX c #91DB69",
"OX c #92D967",
"+X c #90CD73",
"@X c #91CB7A",
"#X c #92D677",
"$X c #85CE74",
"%X c #A7CF70",
"&X c #8FE26A",
"*X c #94E16A",
"=X c #C0C17B",
"-X c #A87C80",
";X c #D37383",
":X c #7C9A82",
">X c #8D958F",
",X c #AA8D88",
"<X c #90AA8E",
"1X c #96AFA0",
"2X c #B3BCA1",
"3X c #CD9889",
"4X c #D79487",
"5X c #D18886",
"6X c #E6868B",
"7X c #EC9C8F",
"8X c #CAA191",
"9X c #D6A88D",
"0X c #F8A48E",
"qX c #EBA697",
"wX c #FFAB93",
"eX c #F5A898",
"rX c #E5BB95",
"tX c #FBB29B",
"yX c #DEB3A2",
"uX c #FBBBA3",
"iX c #F1B5AA",
"pX c #97C495",
"aX c #FFC9AE",
"sX c #FEC2A9",
"dX c #FECDB1",
"fX c #FACDB9",
"gX c #FFD2B5",
"hX c #E5C2B3",
"jX c #D2C7C5",
"kX c #F4DFD9",
/* pixels */
"oXoXoXoXoXoXoXoXoXoXoXoXoXoXoXoXoXoXoXOXoX&X&XW...~ ( ` ` ` ` _ ~ W W W W E E ..W.&X&XOXoXoXoXoXoXoXoXoXoXoXoXoXoXoXoXoXoXoXoXoX",
"oXoXoXoXoXoXoXoXoXoXoXoXoXoXoXoXoXoXoXoXoX.X~.Y. .! ^ ` ` ` _ ^ ~ W Q ~ Q ~ ~ } Y.~.OXOXoXoXoXoXoXoX XoXoXoXoXoXoXoXoX XoXoXoXoX",
"oXoXoXoXoXoXoXoXoXoXoXoXoXoX#X XoXoXoXoX&X~.o. .) _ ` ` ` _ ! ~ W ~ ( _ ) ( ~ U } o.~.&X&XOXoXoXoXoXoXoXoXoXoXoXoXoXoXoXoXoXoXoX",
"oXoXoXoX XoXoXoXoXoXoXoXoXoXoXoXoXoXoX.X~.Y.} ! _ ` ` ` ) ( ! ~ Q ! _ ` _ ( W W E } Y.~.XX XoXoXoXoXoXoXoXoXoXoXoXoXoXoXoXoXoXoX",
"oXoXoXoXoXoXoXoXoXoXoXoXoXoXoXoXoXoX&X~.o.*.( ` ` ` ` _ ! ! ^ _ _ _ ` ' ^ W W W E U } o.~.oX&XoXoXoXoXoXoXoXoXoXoXoXoXoXoXoXoXoX",
" XoXoXoXoXoXoXoXoXoXoXoXoXoXoXoXoXXX~.Y.U ~ ( ` ` _ _ ( ! ! _ ` ` ` ) ! W W W Q W E W | W.&XoXoXoXoXoXoXoXoXoXoXoXoXoXoXoXoXoXoX",
"oXoXoXoXoXoXoXoXoXoXoXoXoXoXoX XoX~.o.} Q ! ^ ` ` _ ^ ! ( ) ` ` ` _ ! ~ W W E W R R E | W. XoXoXoXoXoXoXoXoXoXoXoXoXoXoX XoXoXoX",
"oXoXoXoXoXoXoXoXoXoXoXoXoXoXoXoXoXW.| E U ! _ ` _ ^ ~ ~ ( ` ` ` _ ^ ! Q =.-.Q Q =.' Q ..W.&XoXoXoXoXoXoXoXoX XoXoXoXoXoXoXoXoXoX",
"oXoXoXoXoXoXoXoXoXoXoXoXoXoXoXoX&XW.| E E Q ) _ ! Q W ~ _ ` ` _ ^ ~ E =.6X6X-.=.6X6X' | W.&XoXoXoXoXoXoXoXoXoXoXoXoXoXoX#XoXoXoX",
"oXoXoXoXoXoXoXoXoX XoXoXoXoXoXoX*XW.| E W Q ( ( Q E E ~ _ ` _ ( U P P =.5X5X] :.eXqX;.+.Q. XoX XoXoXoXoXoXoXoXoXoXoXoXoX XoXoXoX",
"oXoXoX XoXoXoXOXoXoXoXoXoXoXoX XOXW...E W Q W W Q W U ~ _ _ ! U L L L L { X.U -.qXqX$.+.^. XoXoXoXoXoXoXoXoXoXoXoXoXoXoXoXoXoXoX",
"oXoXoXoXoX.XJ..X XoXoX XoXoXoXoX&XW...E W W W W W Q / ) _ ' -.+.L p { G p L +.,.iXiX,XR.}.oXoXoXoX.XK.K..XoXoXoXoXoXoXoXoXoXoXoX",
"oXoXoXoXoXK.V.Z.K.oXoXoXoXoXoX X*XW.| W W E W E W / >.>./ -.6X5XX.v >X>Xz p _.eXuXrX%X}.XX XoXoXoXL.V.V.K.XXoXoXoXoXoXoXoXoXoXoX",
"oXoXoXoXoXJ.7.7.F.K.|.oXoXoXoX&X&XW.| W E W U W R ) <.<.) ' 6X4X$.$.jXjXG [ 9XdXuXrX%X&XoXoXoX X$XA.b.m.J.oXoXoXoXoXoXoXoXoXoXoX",
"oXoXoXoXoXJ.M.5.7.Z.K.oXoXoXoXoX&X^.| E W W W E U &.).).&.Q ' ,.6XhXkXjX+.X.4XdXuXrX%X&X XOXoXL.V.b.5.M.J.oXoXoXoXoXoXoX XoXoXoX",
"oXoXoXoXoXJ.M.4.4.M.J.oXoXoXoXXX}.Y.O.} Q E W W ~ &.U.U.*.R R ' 6XiXkXkX,.,.qXdXuXrX9XoXXX X.XA.B.4.4.M.K.oXoXoXoX XoXoXoXoXoXoX",
"oXoXoXoXoXJ.7.5.4.M.J.oXoXoXoX~.#.,.E.Y.} E W Q ^ ) &.) Q W W ! ' ;XiXfXiXqXuXdXdXtX9X].%XL.V.7.8.4.4.M.J.oXoXoXoXoXoXoXoXoXoXoX",
"oXoXoXoXoXK.Z.7.8.m.J.oXoXoXoX~.#.o.}.}.o. .Q W ^ ^ ~ W P U U U W -.qXdXgXdXdXdXaXtX3X8X}.J.M.5.4.8.m.V.H.J.K.K. XoXoXoXoXoXoXoX",
"oXoXoXoXoX X.XA.7.m.J.OXOXoXoXXX~.~.XXXX}.Y.} E ~ ! ( ~ I K T T U -.qXdXaXgXdXaXsX9X:XA..XJ.M.4.4.7.F.H.C.m.m.V.K.oXoXoXoXoXoXoX",
"oXoXoXoXoXoXoXK.V.V.K.oXoXoX+X+X#X#XoXXX}.Y.O.| .. .' ! I K Y T U :.7XaXsXuXiXqXrXpXk.b.J.J.M.8.7.V.H.F.b.4.7.V.K.oXoXoXoXoXoXoX",
"oXoXoX|.OXoXoX|.K.K. XoXoX+X<X>X1XpX#X~._.#.Y.W.^.Y. .~ E I K K T +.qXuXtX7X;X,X=X$XB.B.J.J.M.7.F.H.V.b.5.b.A.K.|.oXoXoXoXoXoXoX",
"oXoXoXoXoX X XoXoXOXoXoXoX+X<X<X1X1X#X~.o.#.~.*X#X/.{ P I K p p Y %.$.'.].9X$.R.}.P.V.Z.K.K.V.Z..XJ.m.5.b.Z..XOXoXOX XoXoXoX XoX",
"oXoXoXoXoXoXoXoXoXoXoXoXoX X+X+X#X#XoXXX~.~.OX*XpX>Xp - p D i i i i t V ^.%X~.}..X XK.K. X XK.K..XJ.m.7.A..X XoXoX XOXoXoXoXoXoX",
"oXoXoXoXoXoXoXoXoXoXoXoXoXoXoXoXOXOXoXoX*XoX#X/.>XH u r z z e 7 7 3 % g p.g..X*XoXOXOXOXOXoXOXoXoXK.C.V.K.oX X XoXoXoXoXoXoXoXoX",
"oXoXoXoXoXoXoXoXoXoXoXoXoXoXoXoXOXoXoXoX*X#X<X>Xz k k x Z z e 7 5 7 k g f m T.*XoXoXoXoXoXoXoXoXoX.XK.K. XoXoXoXoXoXoXoXoXoXoXoX",
"oXoX XoXoXoXoXoXoX XoXoXoXoXoXoXoXoXoXoXoX+X<Xj.7 % l F F z e r e l Z z r f r.T..XoXoXoXoXoXoXoXoXoXoXoXoX|.oXoXoXoXoXoX XoXoXoX",
"oXoXoXoXoXoXoXoXoXoXoXoXoXoXoXoXoXoXoXoXoXoX#Xl., % l F F z e e l Z Z Z z k f m g.*XoXoXoXoXoXoX XoXoXoXoXoXoXoXoXoXoXoXoXoXoXoX",
"oXoXoXoXoX|.oXoXoXoXoX#XoXoXoXoXoXoXoXoXoX[.!.p.f r x D z k e e l Z D D Z u % > s.*XoXoXoXoXoXoXoXoXoXoXoXoX XoXoXoXoXoXoXoXoXoX",
"oXoXoXoXoX XoXoXoXOXoXoXoXoXoXoXoXoXoXoXoXg.m , l z Z z r $ 3 r e l z Z l r . > d.*XoXoXoXoXoXoXoXoXoXoXoXoXoXoXoXoXoX XoXoXoXoX",
"oXoXoXoXoXoXoX.XK.K. XOXoX.XK.J..XoXoX*X*Xs.> @ l D D l $ + 3 5 5 e x z r $ + > d.*XoXoXoXoXoX XoXoXoXoXoXoXoXoXoXoXoX#XoXoXoXoX",
"oXoXoXoXoXoXoXK.V.C.K.oXoXK.V.V.K.oXoXoX*Xs.> + l Z F l $ o = 7 5 r e e e 3 . > d.oXoXoXoXoXoXoXoXoXoXoXoXoXoXoXoXoXoXoXoXoXoXoX",
"oXoXoXoXoXoXoXJ.M.m.J. X.XA.b.m.J.oXOXoX*Xs.> - G %.%.H - X = 7 5 3 $ $ $ % . > d.*XoXoXoXoXOXoXoXoXoXoXoXoXoXoXoXoXoXoXoXoXoXoX",
"oXoXoXoXoXoXoXJ.m.m.J.K.Z.b.8.m.J.OXoXOX&Xs.> h ,XyXyX,Xh o $ 5 @ + + + + +   > s.*X*XOXoXoXoXoXoXoXoXoXoXoXoXoXoX XoXoXoXoXoXoX",
"oXoXoXoXoXOXoXJ.m.M.J.J.M.4.4.M.J.*XOX*X*Xs.: h 8XgXgX8Xh X $ 5 % + + o X % g V u.g..X XK.K..XoXoXoXoXoXoXoXoXoXoXoXoXoXoXoXoXoX",
"oXoXoXoXoXoXoXJ.m.m.J.J.M.4.4.m.J.oXoXoX*Xs.: h 8XgXgX8Xh X $ 5 5 5 5 # o t E.,XV b T.L.Z.V.J.oXoXoXoXoXoXoXoXoXoXoXoXoXoXoXoXoX",
"oXoXoXoXoXOXoXK.V.Z..XJ.M.5.b.V..XOXoXoX*Xs.> h 8XdXgX9X{ e = 5 5 5 5 $ o h 9X3Xh : h.D.B.M.J.oXoXoXoXoXoXoXoXoXoXoXoXoXoXoXoXoX",
"oX XoXoXoXoXoX.XK..X XH.m.7.A..X XoXoXoXoXs.> h 8XaXtX0X`.@.- + 3 5 7 3 . h 4X`.t & 3.b.n.M.K.oXoXoXoXoXoXoXoXoXoXoXoXoXoX XoXoX",
"oXoXoXoXoXoXoXoXoXOXoXK.V.V.K.OXoXoX X&X*Xs.> h 3XsXwXwXwX`.{ f r 5 5 3 @ y @.$.G j 2.0.4.M.J.oXoXoXoXoX XoXoXoXoXoXoXoXoXoXoXoX",
"oXoXoXoXoX XoXOXoXoXoX.XK.K. XoXoX XoXoX*Xs.: h _.wXwX0XwX0X4X@.y + 3 5 5 = , [ #.$.j d 0.M.P.oXOXoXoXoXoXoXoXoXoXoXoXoXoXoXoXoX",
"oXoXoXoXoXoXoXoXoXoXoXoXOXoXoXoXoXoXoXoXP.h.: t _.wXwXwX0XwXwX_.h o 5 0 5 # o t @.@.y ; 1.C.H.J.J.K. XOXoXoXoXoXoXoXoXoXoXoXoXoX",
"oXoXoXoXoX XoXoXoXoXoXoXoXoXoXoXoXoXoX.XS.1.; t _.wXwX0X0XwXwX_.t O 9 9 2 O 1 7 h y X : h.J.C.m.m.V.K.oXoXoXoXoXoXoXoXoXoXoXoXoX",
"oXoXoXoXoXoXoX XJ.K. XoXoXoXoXoXoX.XL.A.B.0.d V o.`.0XwXwX0X`.@.h 2 9 9 # O 4 4 o X * m z.F.m.5.7.V.K.oXoXoXoXoXoXoXoXoXoXoXoXoX",
"oXoXoXoXoXoXoXK.V.V..XoXoXoXoXoXoXK.V.b.n.9.z.i.v [ '.wXwX`.{ g u 9 < 1 2 8 8 < . , p.z.C.7.5.b.A.K.|.oXoXoXoXoXoXoXoXoXoXoXoXoX",
"oXoXoXoXoXoXoXJ.b.b.A.K. XOXOX X.XA.b.4.4.M.K.T.m j o._._.@.g < w q # o 4 8 8 < o > g.P.M.4.m.S.$XoXoX XoXoXoXoXoX XoXoXoXoXoXoX",
"oXoXoXoXoXoXoXJ.m.5.b.V..XoXoXK.V.b.5.5.4.M.P.[.{.i.V t t k 9 a s w # o < 8 8 < . > g.K.m.b.A.K..XoXoXoXoXoXoXoXoXoXoXoXoXoXoXoX",
"oXoXoXoXoXoXoXK.V.b.5.b.A.K. XJ.M.4.5.8.M.V.H.L.P.h.:   + 6 a s w 9 1 O 6 8 8 < o > d.L.S.S..XoXoX XoXoXoXoXoXoXoXoXoXoXoXoXoXoX",
"oXoXoXoXoXoXoX.X.XA.b.5.b.V..XJ.M.5.4.m.F.H.V.M.M.1.; @ 8 w s a 6 2 4 6 8 8 8 4 . , s. XK.K. XoXoX XoXoX XoXoXoXoXoXoXoXoXoX#X X",
"oXoXoXoXoXoXoXoXoXK.Z.b.5.M.J.J.M.5.b.V.H.F.B.4.7.2.; @ q A s a O o < 8 8 8 4 2 f m g.oXoXoXoXoXoXoXoXoXoXoXoXoXoXoXoXoXoXoXoXoX",
"oX|.oXoXoXoXoXoXoX|.K.A.7.M.J.J.m.m.A.H.C.m.8.9.k.N & O q s s a # o 4 8 8 4 O : r.!.OXoXoXoXoXoXoXoXoXoXoXoXoXoXoXoXoXoXoXoXoXoX",
"oXoXoXoXoXoXoX|. XoXoXK.V.V.K.K.S.C.I.I.9.6.6.k.q.n & O a s s a 2 O < 8 8 < o > f.[.[.{.{.[.OXoXoXoXoXoXoXoXoXoXoXoXoXoXoXoXoXoX",
"oXoXoXoXoXoXoX XoXoXoX.XK.K.|. X.XI.d.y.1.3.1.q.t.n & O q s s a # o 4 8 8 < o * r.f.a.u.u.l.[.oXoXoXOXoXoX XoX XoXoXOX X|.oXoXoX",
"oXoXoXoXoXoXoXoXoXoXoXoXoXoXoX|.[.!.u.w.N w.j.r.B b 7 6 a s a 0 2 O 4 8 8 4 O * n j.e.e.e.u.!.[.oX XK.K..XoXoX XK.K..XoXoXoXoXoX",
"oX XoXoXoXoXoXoXoX XoXoXoXoXoX[.l.u.t.r.r.w.e.M > 7 0 a s a 6 1 2 8 8 8 8 < o 5 J j.j.e.e.e.u.d.[.K.Z.V.K.oXoXK.S.C.K.oXoXoXoXoX",
"oXoXoXoXoXoXoXoXoXoXoXoXoXoX[.!.u.r.e.e.e.t.t.n & # a S s q # o < 8 8 8 6 1 o = z J j.t.e.e.e.u.T.G.7.M.J. X.XF.C.C.K.oXoXoXoXoX",
"oXoXoXoXoXoXoXoXoXoXoXoXoX[.l.u.t.e.e.e.e.t.t.n & O a S S a # o 4 8 8 < # o X o 3 g M t.e.e.e.e.u.v.9.M.J.K.V.C.F.K..XoXoXoXoXoX",
"oXoXoXoXoXoXoXoXoXoXoXoXoX{.u.e.r.e.e.e.e.r.M b 7 4 9 C C 9 # o 1 4 6 6 # + + o o = b M r.e.e.e.e.q.9.M.K.J.M.7.J.oXoXoX XoXoXoX",
"oXoXoXoXoXoXoXoXoXoXoXoXoX{.u.e.e.e.e.e.e.B f 7 9 q 0 u 0 7 + X o # 5 7 5 $ 5 $ 3 $ * f B e.e.e.r.v.9.M.J.J.m.M.J.oXoXoXoXoXoXoX",
"oXoXoXoXoXoXoXoXoXoXoXoXoX[.l.u.e.e.e.e.t.n & @ 9 k 0 5 5 5 % + X o # $ $ $ 5 $ 3 # . & n e.e.e.u.h.k.V.K.K.V.V.K.oXoXoXoXoXoXoX",
"oXoXoXoX XoXoXoXoXoXoXoXoX X[.x.u.e.e.e.e.n & o 6 0 5 5 r 5 5 $ + X X + + + o o o o   & n e.e.u.x.$XK.K. X.XK.K. XoXoXoX XoXoXoX",
"oX#XoXoXoXoXoXoXoXoXoXoXoXoXoX[.l.u.e.e.e.n & o @ $ 5 $ $ $ $ # o + & * * * * & & & = f M t.u.d.[.oXoXoXoXoXoXOXoXoX|.oXoXoXoXoX",
"oXoXoXoXoXoXoXoXoXoXoX XoXoXoXoX[.T.u.e.e.n =   X + + + + o + + X & j n n n n n n n n n r.u.T.[. XoXoXoXoXoXoXoXoXoX|.oXoXoXoXoX",
"oXoXoXoXoXoXoXoXoXoXoXoXoX XoXoXoX[.d.u.a.r.b , : * * * * * * * & > B t.t.t.t.t.u.a.l.u.u.g.[.oXoXOXoXoXoXoXoXoXoXoXoXoXoXoXoXoX",
"oXoXoXoXoXoXoXoXoXoXoXoXoXOX XoXoXoX[.{.{.{.g.f.r.n n n n n n n n M r.e.e.e.e.u.!.[.[.[.{.[..XoXoX XOXoXoXoX X#XoXoXoXoXoXoXoXoX",
"oXoXoX XoXoXoXoXoXoXoXoXoXoXoXoXoXoXoXoXoXoXoX[.a.e.e.t.t.t.t.t.t.t.e.e.e.e.e.a.[.oXoXoXoXoXoXoXoXoXoXoXoXoXoXoXoXoXoXoXoXoXoXoX"
};
