/* XPM */
static char *h_right1741362324[] = {
/* columns rows colors chars-per-pixel */
"32 32 26 1 ",
"  c #91DB69",
". c #C32454",
"X c #D93965",
"o c #FDCBB0",
"O c #7A3045",
"+ c #A24B6F",
"@ c #1EBC73",
"# c #F68181",
"$ c #C7DCD0",
"% c #45293F",
"& c #FCB79E",
"* c #F9C22B",
"= c white",
"- c #AE2334",
"; c #831C5D",
": c #8D8E9E",
"> c #9BABB2",
", c #FCA790",
"< c #2E222F",
"1 c #625565",
"2 c #3E3546",
"3 c #404775",
"4 c #323353",
"5 c #6A8D59",
"6 c #2D7D5E",
"7 c #707480",
/* pixels */
"            .XXX....            ",
"           .XXX..XX..           ",
"          .XXX.XXX....          ",
"         ..XX.XXX.....          ",
"         ..X..XX..o.o.          ",
"         .....X.OOO.o+          ",
"   @     ....#.oO$%o&    @      ",
"   @@    ....*..o=-o&   @@      ",
"   @@   X ..X....oooo# @@@      ",
"    @      ..X;+.ooo&@ @@ @@    ",
"       :> X  ..;+,,+ @ @ @@     ",
"            ><122<       @      ",
"           :<11221<             ",
"            <112111<            ",
"           <11<2212<            ",
"    @  @   <11<2222<            ",
"    @ @@   <oo<2<<<<            ",
"    @ @@   <oo<222<o< @         ",
"      @    <o,,<22<,<@@         ",
"           <,,,,<22<,<@         ",
"          @<,,,,<3<4<< @@       ",
"    @    @@ <,,<3<44< @@        ",
"    @@  @@@  <<33<44< @         ",
"     @@ @@ @@<33<444<           ",
"      @ @ @@5<33<44<            ",
"         5655<33<44<555         ",
"        5555<33<444<7555 @  @   ",
"       55555<33<44<<<5555@ @    ",
"       5555<322<<2222<555@ @    ",
"        555<2222<<<<<<55        ",
"         55<<<<<<555555         ",
"            55555555            "
};
