/* XPM */
static char *h_up1741459696[] = {
/* columns rows colors chars-per-pixel */
"64 64 17 1 ",
"  c #91DB69",
". c #C32454",
"X c #D93965",
"o c #1EBC73",
"O c #F9C22B",
"+ c #9BABB2",
"@ c #8D8E9E",
"# c #831C5D",
"$ c #2E222F",
"% c #625565",
"& c #3E3546",
"* c #FDCBB0",
"= c #FCA790",
"- c #323353",
"; c #404775",
": c #6A8D59",
"> c white",
/* pixels */
"                          ..........                            ",
"                          ..........                            ",
"                      XXXXXX........XXXX                        ",
"                      XXXXXX........XXXX                        ",
"                    XXXXXX..............XX                      ",
"                    XXXXXX..............XX                      ",
"                  XXXXXX..XXXX....XXXXXX..XX                    ",
"                  XXXXXX..XXXX....XXXXXX..XX                    ",
"                  XXXX..XXXX........XXXXXX..XX                  ",
"                  XXXX..XXXX........XXXXXX..XX                  ",
"                  XX..XXXX..XX..XX....XXXX..XX                  ",
"                  XX..XXXX..XX..XX....XXXX..XX                  ",
"            oo  ....XXXX..XXXX..XX....XXXXXX..          oo      ",
"            oo  ....XXXX..XXXX..XX....XXXXXX..          oo      ",
"            oooo....XXXX..XXXXXXXXXX....XXXX..XX      oooo      ",
"            oooo....XXXX..XXXXXXXXXX....XXXX..XX      oooo      ",
"            oooooo..XXXX..XXXXXXXXXX....XXXX....      oooo      ",
"            oooooo..XXXX..XXXXXXXXXX....XXXX....      oooo      ",
"        oooo  oooo..XX....XXXX..XXXX....XX....        oo        ",
"        oooo  oooo..XX....XXXX..XXXX....XX....        oo        ",
"          oooo  ooOO........XX..XX........OO  ++@@              ",
"          oooo  ooOO........XX..XX........OO  ++@@              ",
"            oo    ..##......XX..........##..                    ",
"            oo    ..##......XX..........##..                    ",
"                      ..##..........##..@@                      ",
"                      ..##..........##..@@                      ",
"                      $$%%##......##%%$$                        ",
"                      $$%%##......##%%$$                        ",
"                    $$%%%%&&&&&&&&&&%%%%$$                      ",
"                    $$%%%%&&&&&&&&&&%%%%$$                      ",
"                  $$**$$%%&&&&&&&&&&%%$$**$$    oo    oo        ",
"                  $$**$$%%&&&&&&&&&&%%$$**$$    oo    oo        ",
"                $$====**$$&&&&&&&&&&$$**====$$  oooo  oo        ",
"                $$====**$$&&&&&&&&&&$$**====$$  oooo  oo        ",
"              $$========$$&&&&&&&&&&$$========$$oooo  oo        ",
"              $$========$$&&&&&&&&&&$$========$$oooo  oo        ",
"              $$========$$&&&&&&&&&&$$========$$  oo            ",
"              $$========$$&&&&&&&&&&$$========$$  oo            ",
"                $$====$$--&&&&&&&&&&--$$====$$                  ",
"                $$====$$--&&&&&&&&&&--$$====$$                  ",
"              oooo$$$$&&;;;;&&&&&&;;;;&&$$$$                    ",
"              oooo$$$$&&;;;;&&&&&&;;;;&&$$$$                    ",
"                oooo  &&;;;;;;;;;;;;;;&&  oooo        oo        ",
"                oooo  &&;;;;;;;;;;;;;;&&  oooo        oo        ",
"                  oo  &&--;;--$$--;;--&&  oooooo    oooo        ",
"                  oo  &&--;;--$$--;;--&&  oooooo    oooo        ",
"                      $$----$$  $$----$$oo  oooo  oooo          ",
"                      $$----$$  $$----$$oo  oooo  oooo          ",
"                      $$----$$  $$----$$oooo  oo  oo            ",
"                      $$----$$  $$----$$oooo  oo  oo            ",
"                      $$----$$  $$----$$  oo                    ",
"                      $$----$$  $$----$$  oo                    ",
"      oo    oo        $$----$$::$$----$$                        ",
"      oo    oo        $$----$$::$$----$$                        ",
"        oo  oo    ::::$$----$$::$$----$$::::                    ",
"        oo  oo    ::::$$----$$::$$----$$::::                    ",
"        oo  oo::::::::$$&&&&$$::$$&&&&$$::::::::                ",
"        oo  oo::::::::$$&&&&$$::$$&&&&$$::::::::                ",
"              ::::::::::$$$$::::::$$$$::::::::::                ",
"              ::::::::::$$$$::::::$$$$::::::::::                ",
"                  ::::::::::::::::::::::::::                    ",
"                  ::::::::::::::::::::::::::                    ",
"                      ::::::::::::::::::                        ",
"                      ::::::::::::::::::                        "
};
