/* XPM */
static char *h_up1741362324[] = {
/* columns rows colors chars-per-pixel */
"32 32 17 1 ",
"  c #91DB69",
". c #C32454",
"X c #D93965",
"o c #1EBC73",
"O c #F9C22B",
"+ c #9BABB2",
"@ c #8D8E9E",
"# c #831C5D",
"$ c #2E222F",
"% c #625565",
"& c #3E3546",
"* c #FDCBB0",
"= c #FCA790",
"- c #323353",
"; c #404775",
": c #6A8D59",
"> c white",
/* pixels */
"             .....              ",
"           XXX....XX            ",
"          XXX.......X           ",
"         XXX.XX..XXX.X          ",
"         XX.XX....XXX.X         ",
"         X.XX.X.X..XX.X         ",
"      o ..XX.XX.X..XXX.     o   ",
"      oo..XX.XXXXX..XX.X   oo   ",
"      ooo.XX.XXXXX..XX..   oo   ",
"    oo oo.X..XX.XX..X..    o    ",
"     oo oO....X.X....O +@       ",
"      o  .#...X.....#.          ",
"           .#.....#.@           ",
"           $%#...#%$            ",
"          $%%&&&&&%%$           ",
"         $*$%&&&&&%$*$  o  o    ",
"        $==*$&&&&&$*==$ oo o    ",
"       $====$&&&&&$====$oo o    ",
"       $====$&&&&&$====$ o      ",
"        $==$-&&&&&-$==$         ",
"       oo$$&;;&&&;;&$$          ",
"        oo &;;;;;;;& oo    o    ",
"         o &-;-$-;-& ooo  oo    ",
"           $--$ $--$o oo oo     ",
"           $--$ $--$oo o o      ",
"           $--$ $--$ o          ",
"   o  o    $--$:$--$            ",
"    o o  ::$--$:$--$::          ",
"    o o::::$&&$:$&&$::::        ",
"       :::::$$:::$$:::::        ",
"         :::::::::::::          ",
"           :::::::::            "
};
