/* XPM */
static char *h_up1741379524[] = {
/* columns rows colors chars-per-pixel */
"64 64 210 2 ",
"   c #2D2234",
".  c #2D263B",
"X  c #372E3E",
"o  c #392E3E",
"O  c #31253A",
"+  c #3A3937",
"@  c #3A343A",
"#  c #3D3C38",
"$  c #40313F",
"%  c #54263F",
"&  c #29433C",
"*  c #3D4339",
"=  c #37483B",
"-  c #444C3C",
";  c #41463D",
":  c #47513D",
">  c #2F2C49",
",  c #342D44",
"<  c #312D49",
"1  c #382F40",
"2  c #3D3445",
"3  c #3C344B",
"4  c #3A3648",
"5  c #323353",
"6  c #3E3952",
"7  c #393858",
"8  c #3A3D64",
"9  c #373B62",
"0  c #552D48",
"q  c #443A4B",
"w  c #523A44",
"e  c #5D3746",
"r  c #523852",
"t  c #6C3155",
"y  c #733D62",
"u  c #316A4C",
"i  c #3E436C",
"p  c #3E4572",
"a  c #324B42",
"s  c #464E40",
"d  c #434640",
"f  c #5A464E",
"g  c #5F4649",
"h  c #4A5146",
"j  c #505F47",
"k  c #59584A",
"l  c #4F4552",
"z  c #5A4E5E",
"x  c #574957",
"c  c #604545",
"v  c #625648",
"b  c #635B4C",
"n  c #536E45",
"m  c #5B734E",
"M  c #5F7951",
"N  c #607B51",
"B  c #5F5363",
"V  c #404877",
"C  c #404776",
"Z  c #654A62",
"A  c #707063",
"S  c #E27D3A",
"D  c #9D1D59",
"F  c #AE1D57",
"G  c #85275C",
"H  c #962350",
"J  c #A32553",
"K  c #B72155",
"L  c #BB2155",
"P  c #B72A57",
"I  c #A63D59",
"U  c #9D3567",
"Y  c #C61D53",
"T  c #C33B4C",
"R  c #C42454",
"E  c #C92557",
"W  c #C72857",
"Q  c #C82857",
"!  c #CB2B5A",
"~  c #CC2559",
"^  c #D12D5E",
"/  c #D2265D",
"(  c #CD315C",
")  c #C43157",
"_  c #D0305E",
"`  c #D5395B",
"'  c #D62D60",
"]  c #D43461",
"[  c #DB3465",
"{  c #D53C64",
"}  c #D93965",
"|  c #98435C",
" . c #855959",
".. c #964D58",
"X. c #BB4758",
"o. c #AF4C5B",
"O. c #AA6C5A",
"+. c #B27058",
"@. c #886A65",
"#. c #A36D67",
"$. c #A77367",
"%. c #BA7F67",
"&. c #D4454E",
"*. c #CA4B4B",
"=. c #C94F62",
"-. c #C74E61",
";. c #C95864",
":. c #C86166",
">. c #C36D50",
",. c #349A5F",
"<. c #1C9763",
"1. c #309D62",
"2. c #17BB73",
"3. c #1CBC73",
"4. c #1AAA6B",
"5. c #27BD72",
"6. c #2FAE6C",
"7. c #658554",
"8. c #668955",
"9. c #6A8D54",
"0. c #6A8D59",
"q. c #678858",
"w. c #6C9059",
"e. c #6E9357",
"r. c #729C5C",
"t. c #729755",
"y. c #63A85B",
"u. c #74A15C",
"i. c #7AAE5C",
"p. c #75AA58",
"a. c #7EBA5D",
"s. c #7CB35C",
"d. c #4B996A",
"f. c #50AD65",
"g. c #7BAF60",
"h. c #63B661",
"j. c #68AC60",
"k. c #5B975E",
"l. c #16C174",
"z. c #2EC171",
"x. c #20C175",
"c. c #35C271",
"v. c #39C370",
"b. c #39C972",
"n. c #4DC96E",
"m. c #47C76F",
"M. c #50C96E",
"N. c #5DCD6D",
"B. c #5ED16E",
"V. c #4ACB70",
"C. c #65CD6C",
"Z. c #69D16C",
"A. c #74D36B",
"S. c #7CD56A",
"D. c #7BDA6C",
"F. c #76D96D",
"G. c #71C166",
"H. c #E8823B",
"J. c #D9AB3E",
"K. c #81B95D",
"L. c #B5AA4C",
"P. c #999469",
"I. c #BA8067",
"U. c #AC9264",
"Y. c #A8877D",
"T. c #B09467",
"R. c #80B962",
"E. c #84B560",
"W. c #9DBE68",
"Q. c #9AB764",
"!. c #93AD6A",
"~. c #A2B568",
"^. c #A0B565",
"/. c #A68B5E",
"(. c #CC8779",
"). c #CC8B7C",
"_. c #D98E7F",
"`. c #D58C7E",
"'. c #DA917F",
"]. c #C2A841",
"[. c #89CB65",
"{. c #87C865",
"}. c #9CC068",
"|. c #8CD366",
" X c #8FD768",
".X c #8CDB69",
"XX c #80DC6C",
"oX c #90DC67",
"OX c #93D469",
"+X c #91DB69",
"@X c #93D267",
"#X c #90CB75",
"$X c #90D377",
"%X c #8EE169",
"&X c #93E26B",
"*X c #A7D25A",
"=X c #985C82",
"-X c #908284",
";X c #91AC90",
":X c #96B0A0",
">X c #D39787",
",X c #DBA995",
"<X c #FBA68F",
"1X c #F4A18C",
"2X c #FEA790",
"3X c #FFAB93",
"4X c #F5A892",
"5X c #FCB198",
"6X c #95C195",
"7X c #FFC2A7",
/* pixels */
"+X+X+X+X+X+X+X+X+X+X+X+X+X+X+X+X+X+X+X+X+X+X+X%X%XQ.o.R R R L R R Y Y X.Q.%X%X%X+X+X+X+X+X+X+X+X+X+X+X+X+X+X+X+X+X+X+X$X+X+X+X+X",
"+X+X+X+X+X+X.X+X+X+X+X+X+X+X+X+X+X+X+X.X+XOXW.~.~.T.X.E R R R R R R Y X.U.Q.~.W.OX+X+X+X+X+X+X+X+X+X+X+X+X+X+X+X+X+X+X+X+X+X.X+X",
"+X+X+X+X+X+X+X+X+X+X+X+X+X+X+X+X+X+X+X.X%X}.I.;.;.;.=.' W R R R L R R T =.:.:.I.}.%X.X+X+X+X+X+X+X+X+X+X+X.X+X+X+X+XOX+X+X+X+X+X",
"+X+X+X+X+X+X+X+X+X+X+X+X+X+X+X+X+X+X+XOXW.T.;.[ [ [ ] ^ R R R L R R L R ^ ' ^ =.T.}.OX+X.X+X+X+X+X+X+X+X+X+X+X+X+X+X+X+X+X+X+X+X",
"+X+X+X+X+X+X+X+X+X+X+X+X+X$X+X+X+X+X%X}.%.=.{ } [ [ ! Q R L R R R R R R Q Q E ( =.%.}.%X.X+X+X+X+X+X+X+X+X+X+X+X+X+X+X+X+X+X+X+X",
"+X+X+X+X+X+X+X+X+X+X+X+X+X+X+X.X+XOX}.T.;.[ } } ] _ Q Q ! Q E R R R W Q Q Q E Q ^ =.U.}.OX.X+X+X+X+X+X+X+X+X+X+X+X+X+X+X+X+X+X+X",
"+X.X+X+X+X+X+X+X+X+X+X+X+X+X+X+X+XW.%.=.} } } ] ! ! ] ] ] _ Q L R E ( ] ] ] _ _ ! ( =.I.}.&X+X+X+X+X+X+X+X+X+X+X.X+X+X+X+X+X+X+X",
"+X+X+X+X+X+X+X+X+X+X+X+X+X+X+X.X+X~.;.[ } } ] _ Q ! ] } ] ( Q R L R ( } } } } ] ! ~ ^ =.U.W.+X+X.X+X+X+X+X+X+X+X+X+X+X+X+X+X+X+X",
"+X+X+X+X+X+X+X+X+X+X+X+X+X+X+X+X+X~.;.[ } ] ! ! ( ] } ] ! W R R R R R ! ] } } } ] _ ! ( =.%.W.+X.X+X+X+X+X+X+X+X+X+X+X+X+X+X+X+X",
"+X+X+X+X+X+X+X+X+X+X+X+X+X+X+X.X.XW.:.} ] ' Q ! ] } ] ] ! W R L W W R W ( ] } } } _ W E ' :.~.+X+X+X+X+X+X+X+X+X+X+X+X+X+X+X+X+X",
"+X+X+X+X+X+X+X+X+X.X+X.X+X+X+X&X%XQ.;.] ! ! _ ] } ] ! ! ( ( W W ( _ W R E ! ] } } ] W E ] ;.~.+X.X+X+X+X+X+X+X+X+X+X+X+X+X+X+X.X",
"+X+X+X+X+X+X+X+X+X+X+X.XS.S..X@XQ.U.;.' ~ ! [ } [ _ ! ! ] ] W Q ` _ W R R Q ] } } ] ! Q ( ;.~..X+X+X+X+X X+X+X|.D.S..X+X+X+X+X+X",
"+X+X+X+X+X+X+X+X+X+X+XS.n.n.D.Q.+.T ) ! ( ] [ ] ! ! ( ] } _ Q Q ] ] Q L R Q ] } } } ] ^ ! X.Q.%X.X+X+X+X+X+XoXS.M.M.S.+X+X+X+X+X",
"+X+X+X+X+X+X+X+X+X+X+XA.c.z.N.!.X.Y Y W ] } } ] Q Q ] { } ] ! ! ] [ ! Q R W ( } } } } ] Q X./.W.OX+X+X+XoX XXXN.5.5.A.+X+X+X+X+X",
"+X+X+X+X+X+X+X+X+X+X+XA.v.3.z.k.I Y R W ] } } ] W W ] } } } ] ] } } ] ! W R R ! ] } } _ Q ) -.%.}..X+X+X+XXXM.5.5.v.A.+X+X+X+X+X",
"+X+X+X+X+X+X+X+X+X+X+XA.v.2.2.6.A I P W ] } } ] W W ] } } } { } } } } ] Q R L Q ] } } ] Q E ^ ;.~.&X.X+X+XD.6.3.3.v.A.+X+X+X+X+X",
"+X+X+X+X+XOX$XoX+XoX+XS.6.x.2.3.1.A I ~ ] } } ] W W ] } } } } } } } } ] ~ R R W _ } } ` Q R E X.^.oX.XoX+XA.6.2.2.c.A.+X+X+X+X+X",
"+X+X+X+X+X+X.X.XS.S.S.Z.n.c.5.l.l.d.| E ] [ [ ! W Q ] [ } } ] ] } } } ] Q L R W ] } ] _ R P X.+.Q.oX+X+XoXA.m.x.z.M.S.+XoX+X+X+X",
"+X+X+X+X+X+XoXS.M.5.c.n.Z.C.c.2.l.d...R ] } ! W R Q ` } } ] ! ! ] } } ] Q R R W ] ] ! R Y P /.@X@X+X+XoX+XA.c.z.N.XX|.+X+X+X+X+X",
"+X+X+X+X+XoX+XS.M.5.3.c.C.Z.V.z.l.d.O.&.` ( W L R Q ! } } _ Q W ] } ] ( E L R ~ _ ` &.*.X.%.}.6X#X#X+X+XoXS.n.n.S.oX+X+X+X+X+X+X",
"+X+X+X+X+X+X+X.XXXN.5.5.z.n.Z.N.z.f.].H.&.E R Y L R R ! ] _ W W ] ] ! Q R R L R ~ &.H.J.L.!.:X:X;X;X#XoXoX.XS.S..X+X+X.X+X+X+X+X",
"+X+X+X+X+X+X+X+XoXS.M.5.3.v.A.D.V.h.].S T K L R R R R Q ] ` Q W ! ( W R R R R L K T S J.*X$X6X:X;X;X#X+X X+X+X+X+X+X+X+X+X+X+X+X",
"+X+X+X+X+X.X+X+XoX XXXN.5.v.A. XD.K.+.T H D K R R R R Q ] ] Q R W W R R R R R P D D P >.^.%X$X#XW.#X$X+XoX+X+X+X+X+X@X+X+X+X+X+X",
"+X+X+X+X+X+X+X+X@X+X+XS.n.n.S.oX&X^.+.| ..U P R L L L Q _ _ R R R R R L K K R P G | o.+.Q.oXoX+XXX X+X.XoXoX+X+X+X+X+X+X+X+X+X+X",
"+X+X+X+X+X+X+X+X$XoX+X.XS.S..X+XoX@XQ.!.!./.X.K D D K R Q R R R R R E K D D L P =X-X!.Q.@X+X+X+X+X+X+X+X+X+X+X+X+X+X+X+X+X+X+X+X",
"+X+X+X+X+X+X+X+X+X.X+X+X+X+X+X XoX+XoX&XoX^...H G G J K R R R E R L L D G G H | -X;X$X+X+X+X+X+X+X+X+X+X+X+X+X+X+X+X+X+X+X+X+X+X",
"+X+X+X+X+X+X+X+X+X.X+X+X+X+X+X+X+X+X+X&X&XK.: % t y G D L E R E R L J D y r 0 c g.$X+X+X+X+X+X+X+X+X+X+X+X+X+X+X+X+X+X+X.X+X+X+X",
"+X+X+X+X+X+X+X+X+X+X+X+X+X+X+X+XoX+X+X|.K.9.s q x Z t G H J J J J H t t Z z 2 s 9.a.|.+X+X+X.X+X+X+X+X+X+X+X+X+X+X.X+X+X+X+X+X+X",
"+X+X+X+X+X+X+X+X+X+X+X+X+X+X+X+X+X+X&XR.n d l z B z r 0 0 e 0 e e 0 0 r Z B z l - n K.&X+X+X+X+X+X+X+X@X+X+X+X+X+X+X+X+X+X+X+X+X",
"+X+X+X+X+X+X+X+X+X+X+X+X+X X+X+X&X|.a.t.b f l x B z q 2 4 3 1 4 3 4 4 q z B z l x b t.a.|.oX+X.XS.S..XoX+X|.S.S.|.+X+X+X+X+X+X+X",
"+X X+X+X+X+X+X.X+X+X+X+X+X.X+X+X&XK.n b Y.Y.f q x B q 2 4 2 2 2 2 2 2 q B x 2 f Y.Y.b n K.&X+XS.n.M.S.oX+XS.n.n.A.+X+X+X+X+X+X+X",
"+X+X+X+X+X+X+X+X+X+X+X+X+X+X+X|.a.9.k  .,X,X@.f l l q 3 2 2 2 2 2 2 2 q l f f @.,X,X .v 9.K.|.A.v.5.N.XX.XA.c.c.A.+X+X+X+X+X+X+X",
"+X+X+X+X+X+X+X+X+X+X+X+XoXoX&Xa.n k $.'.4X5X,XY.f o 2 2 2 2 2 2 2 2 2 2 X f Y.,X5X4X'.$.k n K.D.v.x.c.M.S.A.6.c.A.oXoX+X+X+X+X+X",
"+X+X+X+X+X+X+X+X+X+X+X+X+X|.a.t.k  .`.3X4X5X7X>Xc   O 2 2 2 q 2 2 2 2 X   g >X7X5X2X3X'. .v t.j.6.l.2.v.S.A.b.v.A.+X+X+X+X+X+X+X",
"+X+X+X+X+X+X+X.X+X+X+X+X+Xa.n v $.`.1X3X3X3X5X).c   X 2 2 2 2 2 2 2 2 1   g >X4X3X2X2X1X`.$.v u 1.2.2.v.S.A.m.5.A.+XoX+X+X+X+X+X",
"+X+X+X+X+X+X+X+X+X+X+X+X&Xp.* e (.3X3X<X<X3X2X(.c   X 2 q 2 2 q 2 2 2 1   g (.3X2X<X<X3X3X(.e & ,.c.x.v.A.S.n.n.S.+X+X+X+X+X+X+X",
"+X+X+X+X+X+X+X+X+X+X+X+X&Xp.* e (.3X3X<X2X3X3X(.c   X 2 2 2 2 2 q 1 q 1   c `.3X3X<X<X3X5X(.e * y.B.z.c.A. XXXS..X@X+X+X+X+X+X+X",
"+X+X+X+X+X+X+X+X+X+X+X+X+Xa.n b $._.1X3X3X1X'.$.w O o 2 q 2 2 2 3 q 1 1   $ $.'.1X3X3X1X>X$.v n a.D.n.n.S.oXoX+X.X+X+X+X+X+X+X+X",
"+X+X+X&X+X+X+X+X+X+X+X+X+X|.K.t.v  ._.3X3X'. .w 3 < 2 2 2 2 2 2 1 q 3 1 , 3 $  .'.3X3X_. .g e.a.|..XS.S..XoX+X+X+X.X+X+X+X+X+X+X",
"+X+X+X.X+X+X+X+X+X+X+X+X+X.XD.h.u h $.(.(.$.$ . 5 7 6 3 2 2 2 2 q 1 q 7 7 3 O : #.(.(.$.v n a.&XoXoXoX+X XoX+X+X+X+X+X+X+X+X+X+X",
"+X+X$X+X+X+X+X+X+X+X+X+X+XS.M.6.<.u h e e w $ 3 8 p i i 2 2 2 2 1 q 8 i C 9 3 o w e e b e.a.|.&X+X+X+X+XoXoX+X+X+X@X+X+X+X+X+X+X",
"+X+X+X+X+X+X+X.X+X+X+X+X+XS.M.5.x.4.u & = ; 2 3 i V p p q 6 6 6 q 8 i C C i 3 q ; * = u h.%X.X+X+X+X+X+X+X|.S.S..XoX+X+X+X+X+X+X",
"+X+X+X+X+X+X+X+X+X+X+X+X+X XS.N.b.2.<.1.y.0.h q i V p p p i i i i C C C V p 7 h 9.y.,.<.6.M.|.oX+X+X+X+X+XXXM.n.A.+X+X+X+X+X+X+X",
"+X+X+X+X+X+X+X+X+X+X+X.X+X+X+XXXM.z.x.b.F.a.k 7 8 p p p p i 8 8 8 8 C C 8 8 6 j K.D.b.l.3.5.N.XX X+X+X|.S.C.5.v.A.+X+X+X+X+X+X+X",
"+X+X+X+X+X+X+X+X+X+X+X+X+X+X+X.XS.N.z.v.F.E.j 6 5 9 p p 9 5 , > 5 8 p p 9 5 3 k K.D.b.2.2.5.5.M.S.oXoXXXM.5.5.v.A.+X+X+X+X+X+X+X",
".X+X+X+X+X+X+X+X+X+X+X X+X+X+X+X+XS.n.M.D.s.k , > 9 9 8 5 4 * * 2 5 8 9 7 < < h y.Z.V.c.3.2.2.v.A. XS.C.5.5.5.M.S.+X+X+X+X+X+X+X",
"+X+X+X+X+X+X+X+X+X+X+X+X+X+X+X+X+X.XS.D..Xi.s . > 5 7 5 . ; 9.9.d , 5 5 5 > , a ,.V.Z.Z.c.2.2.v.A.XXM.5.5.5.N.XX X+X+X+X+X+X+X+X",
"+X+X+X+X+X+X+X+X+X+X+X+X+X+X+X+X+X+X+X+X&Xp.-   > 5 5 >   : a.s.-   > 5 5 >   & <.b.Z.Z.n.5.5.c.A.A.v.5.5.M.S.+X+X+X+X+X.X+X+X+X",
"+X+X+X+X+X+X+X+X+X+X+X+X+X+X+X+X+X+X+X&X+Xi.-   < 5 5 >   - s.s.-   > 5 5 >   & <.x.c.V.Z.C.c.6.A.A.6.c.N.S..X+X+X+X.X+X+X+X+X+X",
"+X+X+X+X+X+X+X+X+X+X.X+X+X+X+X+X+X+X+X+X+Xs.-   < 5 5 >   : s.s.s . > 5 5 >   = ,.z.x.v.A.XXM.M.S.S.M.n.S.+X+X+X@X+X+X+X+X+X+X+X",
"+X+X+X+X+X+X+X+X+X.X+X+X+X+X+X+X+X+X+X+X&Xi.-   > 5 5 >   : s.s.:   > 5 5 >   - y.C.z.c.A..XXXS..X XD.S. X+X+X+X+X+X+X+X+X+X+X+X",
"+X+X+X+X+X XS.A.|.+X+X|.S.S..X+X+X+X+X+X&Xi.-   > 5 5 >   - u.p.s   > 5 5 >   : s.D.n.n.S.+X+X+X+X+X+XoX+X.X+X+X+X+X+X+X+X+X+X+X",
"+X.X+X+X+XS.V.n.XXoXOXS.n.M.S.+X+X+X+X&X&Xp.:   > 5 5 >   * 7.7.*   > 5 5 <   - s.%XD.S..X+X+X+X+X+XoX+X+X+X+X+X+X+X+X+X+X+X+X+X",
"+X+X+X+X+XS.n.m.C.S. XA.c.5.S.+X+X+X[.[.[.u.-   > 5 5 <   # m m #   > 5 5 <   ; u.[.[.[.+X+X+X+XoX X.X+X+X+X+X+X+X+X+X+X+X+X+X+X",
"+X+X+X+X+X.XA.C.m.M.XXA.v.v.A.+X+X[.i.u.u.7.$   > 5 5 <   # m m # . > 5 5 <   # 7.u.u.E.[.+X+X+XoX+X+X+X+X+X+X+X+X+X+X+X+X+X+X+X",
"+X+X+X+X+X+X+XA.c.c.A.A.v.5.G.[.{.a.r.q.9.m +   < 5 5 <   # m M #   < 5 5 <   + m 0.q.e.R.[.[.[.|.+X+X+X+X+X+X+X+X+X+X+X.X+X+X+X",
"+X+X+X+X+X+X+XA.5.v.A.S.c.5.f.r.u.r.w.0.0.m #   1 3 3 1   $ m m +   1 2 3 1   + m 0.0.0.r.r.r.g.[..X+X+X+X+X+X+X+X+X+X+X+X+X+X$X",
"+X+X+X+X+X+X+XS.M.M.S.S.n.f.w.q.q.q.0.0.0.N s + o o 1 o # : N N s + o o 1 1 + s N 0.0.0.0.q.q.r.{.&X+X+X+X+X+X+X+X+X+X+X+X+X+X+X",
"+X+X+X+X+X+X+X.XS.S.|..XD.G.r.q.q.0.0.0.0.q.N j +     + n N q.q.N n o     @ j N q.0.0.0.q.q.q.r.{.+X+X+X+X+X+X+X+X+X+X+X+X+X+X+X",
"+X+X+X+X.X@X+X+X+X+XoX+X.X[.g.r.r.r.w.q.0.0.w.N s + + - N 0.w.0.w.N - + + s N 0.0.0.0.w.r.r.r.g.[.+X+X+X+X+X+X+X+X+X+X+X+X.X+X+X",
"+X+X+X+X+X.X+X+X+XoX+X+X+X@X[.[.[.R.r.q.q.q.0.q.N m m N q.0.0.0.0.q.N m m N q.0.q.q.q.w.a.[.{.[..X+X+X+X+X+X+X+X+X+X+X+X+X+X+X+X",
"+X+X+X+X+X+X+X+X+X+X+X+X+X+X+X.X+X[.g.r.u.r.e.0.0.0.0.0.0.0.0.0.0.0.0.w.0.0.0.e.r.j.u.E.[.&X+X+X+X+X.X+X+X+X+X+X+X+X+X+X+X+X+X+X",
"+X+X+X.X+X+X+X+X+X+X+X+X.X+X+X+X+X+X[.[.[.R.r.0.0.0.0.0.0.0.0.0.0.0.0.w.0.0.0.r.R.[.[.[.OX+X+X+X+XOX+X+X+X+X.X+X+X+X+X+X+X+X+X+X",
"+X+X+X+X+X+X+X+X+X+X+X+X+X+X+X+X+X+X+X&X+X[.r.0.0.0.0.0.0.0.0.0.0.0.0.0.0.0.0.r.[.+X&X+X+X.X.X+X+X+X+X+X+X+X+X+X+X+X+X+X+X+X+X+X"
};
