/* XPM */
static char *p_down1741459696[] = {
/* columns rows colors chars-per-pixel */
"64 64 13 1 ",
"  c #91DB69",
". c #222034",
"X c #3D3A46",
"o c #464554",
"O c #1EBC73",
"+ c #555165",
"@ c black",
"# c #9BABB2",
"$ c #8D8E9E",
"% c #E2EBFD",
"& c #9BADB7",
"* c #6A8D59",
"= c white",
/* pixels */
"                                                                ",
"                                                                ",
"                                                                ",
"                                                                ",
"                                                                ",
"                                                                ",
"                                                                ",
"                                                                ",
"                        ....        ....                        ",
"                        ....        ....                        ",
"                      ..XXoo..    ..ooXX..                      ",
"                      ..XXoo..    ..ooXX..                      ",
"            OO      ..XX++++XX....XX++++XX..            OO      ",
"            OO      ..XX++++XX....XX++++XX..            OO      ",
"            OOOO      ....XXooooooooXX....            OOOO      ",
"            OOOO      ....XXooooooooXX....            OOOO      ",
"            OOOOOO    ..ooXX@@oooo@@XXoo..            OOOO      ",
"            OOOOOO    ..ooXX@@oooo@@XXoo..            OOOO      ",
"        OOOO  OOOO  ..ooXXXX@@++++@@XXXXoo..          OO        ",
"        OOOO  OOOO  ..ooXXXX@@++++@@XXXXoo..          OO        ",
"          OOOO  OO  OO..ooXXoo++++ooXXoo..    ##$$              ",
"          OOOO  OO  OO..ooXXoo++++ooXXoo..    ##$$              ",
"            OO      ..ooXXXXoo++++ooXXXXoo..                    ",
"            OO      ..ooXXXXoo++++ooXXXXoo..                    ",
"                      ..oo..oo++++oo..oo..                      ",
"                      ..oo..oo++++oo..oo..                      ",
"                        ..XX..++++..XX..                        ",
"                        ..XX..++++..XX..                        ",
"                        ..XXXX@@@@XXXX..                        ",
"                        ..XXXX@@@@XXXX..                        ",
"                      ..XXooooooooooooXX..      OO    OO        ",
"                      ..XXooooooooooooXX..      OO    OO        ",
"                      ..XXoo++%%%%++ooXX..      OOOO  OO        ",
"                      ..XXoo++%%%%++ooXX..      OOOO  OO        ",
"                  OO..oooo%%%%%%%%%%%%oooo..    OOOO  OO        ",
"                  OO..oooo%%%%%%%%%%%%oooo..    OOOO  OO        ",
"                  OOOO..++oo%%%%%%%%oo++..        OO            ",
"                  OOOO..++oo%%%%%%%%oo++..        OO            ",
"                  OO..oooo++XX%%%%XX++oooo..                    ",
"                  OO..oooo++XX%%%%XX++oooo..                    ",
"              OOOO  OO..++oo..%%%%..oo++..OO                    ",
"              OOOO  OO..++oo..%%%%..oo++..OO                    ",
"                OOOO  ..++oo..&&&&..oo++..OOOO        OO        ",
"                OOOO  ..++oo..&&&&..oo++..OOOO        OO        ",
"                  OO  ..++..  @@..@@..++..OOOOOO    OOOO        ",
"                  OO  ..++..  @@..@@..++..OOOOOO    OOOO        ",
"                      ..++..@@..@@  ..++..  OOOO  OOOO          ",
"                      ..++..@@..@@  ..++..  OOOO  OOOO          ",
"                      ..++..@@..@@  ..++..OO  OO  OO            ",
"                      ..++..@@..@@  ..++..OO  OO  OO            ",
"                      ..++..  @@    ..++..OO                    ",
"                      ..++..  @@    ..++..OO                    ",
"      OO    OO        ..++..        ..++..                      ",
"      OO    OO        ..++..        ..++..                      ",
"        OO  OO        ..oo..********..oo..                      ",
"        OO  OO        ..oo..********..oo..                      ",
"        OO  OO      **..%%..********..%%..                      ",
"        OO  OO      **..%%..********..%%..                      ",
"                  ******..************..****                    ",
"                  ******..************..****                    ",
"                    **********************                      ",
"                    **********************                      ",
"                        **************                          ",
"                        **************                          "
};
