/* XPM */
static char *p_down1741379525[] = {
/* columns rows colors chars-per-pixel */
"64 64 177 2 ",
"   c #06040C",
".  c #0B0B0E",
"X  c #08070C",
"o  c #100E18",
"O  c #121014",
"+  c #19191E",
"@  c #12111B",
"#  c #0B0913",
"$  c #1E2B1A",
"%  c #1B2518",
"&  c #212E1C",
"*  c #23331C",
"=  c #243819",
"-  c #1B1B21",
";  c #1D1A2B",
":  c #181627",
">  c #1F1C33",
",  c #201F26",
"<  c #231D35",
"1  c #241E38",
"2  c #21242C",
"3  c #252136",
"4  c #2C2A34",
"5  c #272439",
"6  c #2A263C",
"7  c #2D293E",
"8  c #312E3C",
"9  c #2E3438",
"0  c #33333E",
"q  c #343D3D",
"w  c #3C5C2B",
"e  c #36423C",
"r  c #38443F",
"t  c #3B4B3F",
"y  c #384B36",
"u  c #3F602D",
"i  c #537D3E",
"p  c #2F2C40",
"a  c #332F42",
"s  c #253E43",
"d  c #2F3040",
"f  c #353342",
"g  c #393644",
"h  c #3B3945",
"j  c #3B3748",
"k  c #353B49",
"l  c #3D3C4A",
"z  c #403E4C",
"x  c #423E53",
"c  c #1E4442",
"v  c #254343",
"b  c #3A4542",
"n  c #354A40",
"m  c #3C4C41",
"M  c #3E5041",
"N  c #1C604E",
"B  c #1D7959",
"V  c #3A674B",
"C  c #236E52",
"Z  c #43414F",
"A  c #454353",
"S  c #484557",
"D  c #4A4957",
"F  c #46445A",
"G  c #494459",
"H  c #4C495B",
"J  c #504D5F",
"K  c #485A4B",
"L  c #4F6C49",
"P  c #526E4A",
"I  c #51704A",
"U  c #59754F",
"Y  c #566955",
"T  c #5B7750",
"R  c #5D7A51",
"E  c #514E61",
"W  c #545264",
"Q  c #535961",
"!  c #5C5C6C",
"~  c #585469",
"^  c #4B4C60",
"/  c #636374",
"(  c #676A7A",
")  c #667577",
"_  c #57833F",
"`  c #1B9563",
"'  c #189D67",
"]  c #339B61",
"[  c #1BA269",
"{  c #17BA73",
"}  c #1CBB73",
"|  c #19B370",
" . c #37A765",
".. c #23BE72",
"X. c #2CBF71",
"o. c #5D8949",
"O. c #5F8052",
"+. c #658656",
"@. c #628B53",
"#. c #6A8D59",
"$. c #6C925A",
"%. c #6F9B5A",
"&. c #699755",
"*. c #719C5C",
"=. c #5FA75D",
"-. c #63A85D",
";. c #74A15D",
":. c #75AD5B",
">. c #7AAD5E",
",. c #72AD52",
"<. c #76B65F",
"1. c #79B45E",
"2. c #7DBA5F",
"3. c #78B658",
"4. c #7BAF60",
"5. c #7EBB60",
"6. c #7CB160",
"7. c #2EC071",
"8. c #23C274",
"9. c #35C271",
"0. c #38C470",
"q. c #32C873",
"w. c #4DC86E",
"e. c #47C76F",
"r. c #50C96E",
"t. c #5DCD6D",
"y. c #4BCB70",
"u. c #5FD06E",
"i. c #64CE6C",
"p. c #63C669",
"a. c #76CC68",
"s. c #76CB67",
"d. c #6AD26D",
"f. c #65D26E",
"g. c #74D36B",
"h. c #7CD56A",
"j. c #7BD96C",
"k. c #80BA5F",
"l. c #80BA62",
"z. c #89CC66",
"x. c #8BD266",
"c. c #8FD768",
"v. c #8BD969",
"b. c #90DC67",
"n. c #91DB69",
"m. c #90D66C",
"M. c #90CC73",
"N. c #91CA7A",
"B. c #93D377",
"V. c #95E26B",
"C. c #98E66C",
"Z. c #6F7081",
"A. c #737285",
"S. c #7A8993",
"D. c #888B99",
"F. c #8EAC88",
"G. c #90A298",
"H. c #97BF94",
"J. c #989EAF",
"K. c #9293A6",
"L. c #919AAA",
"P. c #96AEA0",
"I. c #9CA0B3",
"U. c #A2A7B8",
"Y. c #A2A6B7",
"T. c #A7AFC0",
"R. c #B7BDCE",
"E. c #B5C6D1",
"W. c #C3CADB",
"Q. c #C1C7D9",
"!. c #C8CFE1",
"~. c #CBD2E2",
"^. c #DAE3F5",
"/. c #DFE8F7",
"(. c #E3ECFE",
"). c #E7F0FF",
"_. c #E9F3FF",
/* pixels */
"n.n.n.n.n.n.n.n.n.m.n.n.n.n.m.V.n.n.n.n.n.n.n.n.n.n.n.n.n.n.n.n.n.n.n.n.n.n.n.n.n.n.n.n.n.n.n.n.n.n.n.n.n.n.n.n.n.n.n.n.m.n.n.n.",
"n.n.n.n.n.n.n.n.n.n.n.n.n.n.n.n.n.n.n.n.n.n.n.n.n.n.m.n.n.n.n.n.v.n.n.n.n.n.n.n.c.V.n.n.n.n.n.n.n.n.n.n.n.n.n.n.n.n.n.n.n.n.n.n.",
"n.n.n.n.n.n.n.n.n.n.n.n.n.n.n.n.n.n.v.n.n.n.n.n.v.n.n.n.V.n.n.b.n.n.n.n.n.n.n.n.c.v.V.c.n.n.n.n.n.n.n.n.n.n.n.n.v.n.n.n.n.n.n.n.",
"n.n.n.n.n.n.n.n.n.n.n.v.v.n.n.n.n.n.n.n.n.n.n.n.n.n.n.n.v.n.n.b.n.n.n.n.n.n.n.n.V.c.c.c.n.v.n.n.n.n.n.n.V.m.n.v.n.n.n.n.n.n.n.n.",
"n.c.v.n.n.n.n.n.n.n.n.n.n.n.n.n.n.n.n.n.c.c.c.c.n.n.c.V.v.c.c.c.n.n.n.n.n.V.v.n.c.v.V.V.c.V.n.n.n.n.n.n.n.n.n.n.n.n.n.n.n.v.n.n.",
"n.n.n.n.n.n.n.n.n.n.n.n.n.n.n.n.n.n.n.n.V.V.c.V.n.V.V.c.V.c.b.V.n.c.n.n.n.m.n.V.V.b.c.c.c.c.n.n.n.n.n.n.n.n.n.n.n.n.n.n.m.V.n.n.",
"n.n.n.n.n.n.n.n.n.n.n.v.n.n.n.n.n.n.n.b.c.b.c.c.V.n.n.c.c.c.c.c.n.c.n.n.n.n.V.n.c.c.c.V.V.c.n.n.n.m.V.n.n.n.n.n.n.m.n.n.n.n.n.n.",
"n.n.n.n.n.n.n.n.n.n.V.m.n.n.n.n.V.v.n.b.c.b.V.x.5.:.4.5.v.n.V.c.c.V.v.x.5.:.:.5.x.V.b.c.b.c.n.n.n.n.v.n.n.n.n.n.v.V.n.n.n.n.n.n.",
"n.n.n.n.n.n.n.n.n.n.n.n.n.n.n.n.n.n.n.c.n.b.V.2.P n r L l.V.n.n.c.n.V.5.P r t P 5.V.n.n.b.n.n.n.n.n.n.n.n.n.n.n.n.n.n.n.n.n.n.n.",
"n.n.n.n.n.n.n.n.n.n.n.n.n.n.n.n.n.n.n.n.V.x.2.@.r < 3 b @.k.x.n.V.v.5.@.b 1 < q @.5.x.n.n.c.c.n.n.n.c.n.n.n.n.n.n.n.n.n.n.n.n.n.",
"n.n.n.n.n.n.n.n.n.v.n.n.n.n.n.v.n.n.b.n.V.2.I r f a j l b I k.V.C.5.I b l g f 0 b P 5.V.V.c.n.n.n.n.n.n.n.c.n.b.n.n.n.n.n.n.n.n.",
"n.n.n.n.n.n.n.n.n.n.n.v.h.h.v.n.n.n.b.x.2.O.r 6 j A H l 6 t @.1.4.o.r 7 z D S j 6 b o.2.x.n.n.n.n.n.n.n.c.n.n.v.h.h.v.n.n.n.n.v.",
"n.m.n.n.n.n.n.n.n.n.n.h.r.r.h.n.n.n.n.2.P q 0 j S J E H j 0 r t m n 0 h G W E G j f q P 2.b.n.n.n.n.v.n.c.V.b.h.w.w.h.n.n.n.n.n.",
"n.n.n.n.n.n.n.n.n.n.n.g.9.X.t.v.n.V.n.2.L q g j A H J H A h 8 5 3 7 j A H H H A k g q P 2.n.n.n.n.n.n.n.c.v.h.t.X.0.g.n.n.n.n.n.",
"n.n.n.n.n.n.n.n.n.n.n.h.9.} X.r.h.n.n.x.2.@.t 3 6 a j z A Z z z l l A A Z h f 6 3 t @.2.x.n.n.n.n.n.n.n.n.z.r.X...X.g.n.n.n.n.n.",
"n.n.n.n.n.n.c.n.n.n.n.g.0.{ { X.t.h.c.n.C.1.t < 1 8 h h 0 h z A F A g 0 h g 7 3 < t :.V.n.n.n.n.n.n.n.n.n.g.0.{ } 0.g.n.n.n.n.n.",
"n.n.n.n.n.n.n.n.n.n.n.h.0.{ { ..X.r.h.V.C.1.t 3 8 z z 4 + + z A D h - + 4 z z f 3 t 1.C.V.b.n.n.n.n.n.n.n.a.0.{ { 9.g.b.b.n.n.n.",
"n.n.n.n.n.n.n.v.h.g.h.i.w.X...} ..X.g.x.k.@.b a z z z 4 . O 0 J H 0 O . 4 z Z h p b @.<.x.n.n.b.n.n.n.n.n.g.0...7.r.h.b.n.n.n.n.",
"n.v.n.n.n.n.n.h.w.9.9.e.d.i.X.} { 0.h.2.P b l l z z z 4 . O z J W z O . 4 z z h l l b L <.n.n.b.n.n.n.n.n.g.9.7.t.v.v.b.n.n.n.n.",
"n.n.n.n.n.n.n.h.w.X.} 9.i.d.w.X...0.g.6.V s k l h z z 8 + , z ~ ~ z , + 4 z z z l l b P 5.n.B.N.N.M.n.n.n.h.w.w.h.n.c.c.n.n.n.n.",
"n.n.n.n.n.n.n.v.h.t.X.} 9.e.f.i.9.0.d.a. .B v a z z z 0 f h J ~ W H z 0 0 z Z l p b &.5.x.B.H.P.G.F.M.b.b.v.h.h.c.n.n.c.n.n.n.n.",
"n.n.n.n.n.m.n.n.n.v.w.X.} 9.h.j.w.y.j.a. .B v 8 z z z h A H E E W J H x z z Z h 7 b @.2.x.B.H.P.G.F.M.n.c.n.n.n.n.v.n.n.n.n.n.n.",
"n.n.n.n.n.c.n.n.n.c.h.t.X.9.g.c.h.h.v.5.V s k l z h h z A D E W ~ E D A l h l l l l b I <.n.B.N.N.M.m.n.b.b.n.n.n.n.c.n.n.c.n.n.",
"n.c.n.n.n.n.n.c.n.n.n.h.e.r.h.n.n.n.n.6.L b l l z h g j z D E ~ W E D z g g l l l k b L 2.V.n.V.n.b.n.n.b.b.n.n.n.n.n.n.n.n.n.n.",
"n.n.n.n.n.n.n.n.v.n.n.v.h.h.v.n.n.n.n.x.2.@.b 7 l l 7 7 z G E E W E D z 8 7 l l 7 b o.5.x.n.n.c.n.n.n.n.n.n.n.n.n.n.n.n.n.n.n.n.",
"n.n.n.n.n.n.n.m.n.n.n.n.n.n.n.n.n.n.n.n.V.2.I b l k 7 7 k x J ~ ~ J x f 6 7 j l b I 5.V.n.v.c.n.n.n.n.n.n.n.n.n.n.n.n.v.n.n.n.n.",
"n.n.n.n.n.n.n.n.n.n.n.n.n.n.n.n.n.n.n.n.V.x.2.@.b 6 0 0 4 f H ~ ~ H a 8 7 0 7 b @.2.x.V.n.n.n.n.n.n.n.n.n.n.n.n.n.V.c.c.n.n.n.n.",
"n.n.c.n.n.n.n.n.n.n.n.n.n.n.n.n.n.n.n.n.c.V.V.1.t 3 f f 7 7 j z z j 7 7 g g 3 t <.V.V.n.n.n.n.n.n.n.n.n.n.n.n.n.n.c.c.V.n.n.n.n.",
"n.n.n.n.n.n.n.n.n.n.n.n.n.n.n.n.n.n.n.n.n.n.V.1.t 3 8 h g 4 + O O + 4 g h 0 < t 1.C.n.c.b.c.b.c.n.n.n.c.n.n.n.n.n.n.n.n.n.n.n.n.",
"n.n.n.n.n.n.n.n.n.n.n.v.n.n.n.n.n.n.n.n.n.x.5.@.t 7 g z z 0 + . X + 0 z Z g 6 t @.5.x.c.n.b.b.v.h.h.c.n.n.v.h.h.v.n.n.n.n.n.v.n.",
"n.v.V.n.n.n.n.n.n.n.n.n.n.n.n.n.n.n.n.n.V.2.L r 0 g z A Z z 0 0 8 0 z A A z g 0 r L 2.V.n.n.n.h.w.w.h.n.n.h.e.y.h.n.n.n.n.n.n.n.",
"n.n.n.n.v.n.n.n.n.n.n.n.n.n.m.n.n.n.n.n.V.:.t < f z Z Z S J / ( ( / J A A z z 0 < t :.V.n.b.c.g.9.X.t.v.c.g.9.9.g.n.n.n.n.n.n.n.",
"n.n.n.n.n.n.n.n.n.n.n.n.n.n.n.n.c.c.n.n.V.1.b < 8 z z x S ( Y.Q.W.U.( S z z z 8 < b 1.V.n.n.n.g.9.} 7.r.v.g.9.9.g.n.b.n.n.n.c.n.",
"n.n.n.n.n.n.n.n.n.n.n.n.n.n.n.n.c.v.v.s.<.@.b p f D / Z.A.K.~._._.~.K.Z.Z./ D j 7 m o.5.x.n.n.g.0.{ } 0.g.g.9.9.g.n.n.n.n.n.n.n.",
"n.n.n.n.n.n.n.n.n.n.n.n.n.n.n.n.V.j.w. .V b l l z / Y.Q.Q.W.^.(.).^.!.Q.W.U./ z l l h L 5.n.n.g.0.{ { 0.h.g.0.X.g.n.b.n.n.n.n.n.",
"n.n.n.n.n.n.n.n.n.n.n.n.n.n.n.n.b.g.0.' N s k z S / Y.~.(._.(.(.(.(._.(.~.U./ z l l b P 6.V.n.v.r.7.} 0.a.h.r.w.g.b.n.n.n.n.n.n.",
"n.n.n.n.n.n.n.n.n.n.n.n.n.n.n.n.n.g.0.| [ B v a S ~ / D.~._.(.(.(.)._.~.K./ ~ S a b #.s.x.n.n.c.h.t.7.9.g.c.v.g.x.n.n.n.n.n.n.n.",
"m.n.n.n.n.n.n.v.n.n.n.c.c.n.b.n.n.g.0.| [ B n a S H S / J.W.^.(.(.^.W.J.! S H S a b @.5.x.V.n.n.n.h.w.w.h.b.b.n.b.n.n.n.n.n.n.n.",
"n.n.n.n.n.n.c.n.n.n.n.n.n.n.n.n.n.g.0.[ N s l z S H H E ! D.W.).).Q.D.! W H G S b l b L 2.n.n.n.n.c.h.h.v.n.n.n.n.c.m.n.n.n.n.n.",
"n.n.v.n.n.n.n.n.n.n.n.n.n.v.h.g.h.f.e. .N s k z A H J S 0 ! E.)._.R.! f S J H A l k s V 5.n.n.n.n.n.n.n.n.n.n.n.n.n.n.n.n.n.n.n.",
"n.n.n.v.n.n.n.n.n.n.n.n.n.h.w.9.9.w.f.p. .B v f G E H l 6 W R.)._.E.W 4 l H J S a v B  .a.n.n.n.n.n.n.n.n.n.n.n.n.c.n.n.n.n.n.c.",
"n.n.n.n.n.n.n.n.n.n.n.n.n.h.w.7.} 7.i.d.y.] v 6 F W H j < ^ T.^.^.U.J 5 l H E G 6 v ` q.u.h.n.n.n.n.n.n.n.v.h.h.v.n.n.n.n.n.n.n.",
"m.n.n.n.n.n.n.n.n.n.n.V.n.c.h.t.7.} 9.y.f.-.n 7 F E H j 3 F K.E.E.L.F 3 l H E G p c ` 8.7.r.v.n.n.n.n.n.n.h.w.w.h.n.b.n.n.n.n.n.",
"V.n.n.n.n.n.n.n.n.n.n.v.n.n.n.h.r.7.} 0.j.:.t p x E A b m K ) S.S.( f ; a x E G 6 c ` } } X.t.h.x.n.b.c.h.t.7.9.g.b.n.n.n.n.n.n.",
"n.n.n.n.m.v.n.n.n.n.n.c.n.n.b.v.h.t.7.0.g.1.t 7 G G f b &.@.y 4 k d @ # ; g H G p v ` } } 8.7.w.h.n.b.v.w.7.} 0.g.n.n.n.n.n.n.n.",
"n.n.n.n.V.n.n.n.n.c.n.n.n.n.n.n.n.h.w.w.j.:.t p F S p e o.o.$   @ - $ $ 2 p G G 6 v ] q...} } 0.g.c.h.t.9.} 7.w.h.n.n.n.n.c.n.n.",
"m.n.n.n.n.n.n.n.n.n.n.n.n.c.n.n.b.v.h.h.c.:.t 6 F G 7 2 * & - @   $ o.o.e p F A p n -.f.9.{ { 0.g.v.r.7.} 7.i.h.c.n.n.n.v.n.n.n.",
"n.n.n.n.n.n.n.n.n.n.n.n.n.n.n.c.n.n.n.V.V.:.b p F H 7 : X X ; :   = ,.<.m 7 F F 6 b -.d.y.7.} 0.g.g.0.} 7.r.h.n.n.n.c.n.V.n.n.n.",
"n.n.n.n.n.n.n.n.n.n.n.n.n.n.n.n.c.V.b.V.n.:.t 7 F H p : X X ; :   = ,.1.b p G G 7 v ] y.f.u.9.0.g.g.9.X.t.v.v.n.c.b.v.n.n.n.n.n.",
"n.n.n.v.c.n.n.n.n.n.c.n.n.b.n.n.c.c.c.V.V.:.r p F F p 2 & & - - % w 3.1.m p G G 7 c ` q.h.h.w.w.h.h.w.w.h.n.c.c.c.V.n.n.n.n.n.n.",
"n.n.n.n.c.n.n.n.n.n.c.n.b.b.n.c.c.V.n.n.c.:.t 7 F F 7 e o.i % % i 3.x.1.m 7 G G 7 c ` 0.j.c.h.h.v.v.h.h.v.n.b.c.c.n.n.n.n.n.n.n.",
"n.n.n.n.c.v.h.h.v.n.n.v.h.j.v.n.n.n.n.n.V.:.t 7 A F 7 M <.3.w w 3.C.C.:.m 7 G G 7 v ] w.j.n.n.b.n.n.n.n.n.c.n.n.b.b.v.V.n.n.n.n.",
"n.n.n.n.n.h.e.r.h.b.n.h.w.w.h.n.b.n.n.n.c.:.r p G G 7 M <.x.3.3.x.V.V.:.t 7 F F p n =.h.v.c.V.n.n.n.n.n.n.n.c.b.n.n.m.n.n.n.n.n.",
"n.n.n.n.n.h.y.e.i.v.c.d.9.9.g.n.n.c.n.V.V.<.t 6 x x 7 r ;.z.x.z.z.z.z.%.r 7 A l 6 m >.n.V.c.c.c.n.n.n.n.n.n.n.n.n.n.n.n.n.n.n.n.",
"m.n.v.n.n.v.h.i.e.w.v.g.0.0.g.n.n.b.c.b.V.:.t 5 l l p f O.;.;.;.;.;.;.O.k 6 l l 3 t :.V.V.c.c.n.n.n.n.c.n.n.n.n.n.v.n.n.n.n.n.n.",
"V.n.n.n.n.n.n.g.9.9.a.h.X.X.g.n.b.c.V.c.x.%.r f ! ! p d P #.#.#.#.#.#.P d a ! ! a t :.V.b.V.c.c.n.n.n.n.n.n.n.n.n.n.n.n.n.n.n.n.",
"n.n.n.c.n.n.b.g.9.9.g.g.9.9.g.n.n.n.n.x.6.R 0 F I.I.G 9 P #.#.#.#.#.#.P 9 G I.I.F r :.b.b.c.c.V.n.n.v.n.n.n.n.n.n.n.n.n.n.n.n.n.",
"n.n.n.n.n.n.n.h.e.w.h.h.w.w.a.n.n.c.z.l.*.U m Q J.J.Q m T #.#.#.#.#.#.T m Q J.J.Q K ;.z.v.V.n.n.n.n.n.n.n.n.n.v.n.n.n.n.v.n.n.n.",
"n.n.n.n.n.n.n.v.h.h.c.v.h.h.b.b.n.z.4.$.$.+.R Y Q Q Y R +.#.#.#.#.#.#.+.R Y Q Q Y R #.4.z.n.n.n.n.n.n.n.n.n.m.V.n.n.n.n.n.n.n.n.",
"n.n.n.n.n.n.c.n.n.n.n.n.b.n.b.b.n.z.4.%.#.#.#.R m b R $.#.#.#.#.#.#.#.#.$.R b b T $.*.4.z.n.n.c.m.n.n.n.n.n.n.n.n.n.m.V.n.n.n.n.",
"n.c.n.n.n.c.n.n.n.n.n.n.n.n.n.n.n.c.z.5.%.#.#.+.T T +.#.#.#.#.#.#.#.#.#.#.+.T T R *.6.x.c.n.n.n.V.n.n.n.n.n.n.n.n.n.n.n.n.n.n.m.",
"n.n.n.n.n.n.n.n.n.n.n.n.n.n.n.n.c.n.V.z.>.;.*.*.$.#.#.#.#.#.#.#.#.#.#.#.#.$.*.;.4.6.x.n.n.n.n.n.n.n.n.n.n.n.n.n.n.n.n.n.n.n.v.V.",
"n.n.n.n.n.n.n.n.n.n.n.n.n.n.n.n.n.n.n.c.z.z.z.l.*.#.#.#.#.#.#.#.#.#.#.#.#.*.l.z.z.z.c.n.n.v.n.n.n.n.n.n.n.n.n.m.n.n.n.n.n.n.n.n.",
"c.n.n.n.n.n.n.n.n.n.n.n.n.n.n.n.n.c.n.n.n.n.n.z.*.#.#.#.#.#.#.#.#.#.#.#.#.*.z.n.n.n.n.n.n.n.n.n.n.n.n.v.n.n.n.n.n.n.n.n.n.n.n.n."
};
