/* XPM */
static char *p_down1741362324[] = {
/* columns rows colors chars-per-pixel */
"32 32 13 1 ",
"  c #91DB69",
". c #222034",
"X c #3D3A46",
"o c #464554",
"O c #1EBC73",
"+ c #555165",
"@ c black",
"# c #9BABB2",
"$ c #8D8E9E",
"% c #E2EBFD",
"& c #9BADB7",
"* c #6A8D59",
"= c white",
/* pixels */
"                                ",
"                                ",
"                                ",
"                                ",
"            ..    ..            ",
"           .Xo.  .oX.           ",
"      O   .X++X..X++X.      O   ",
"      OO   ..XooooX..      OO   ",
"      OOO  .oX@oo@Xo.      OO   ",
"    OO OO .oXX@++@XXo.     O    ",
"     OO O O.oXo++oXo.  #$       ",
"      O   .oXXo++oXXo.          ",
"           .o.o++o.o.           ",
"            .X.++.X.            ",
"            .XX@@XX.            ",
"           .XooooooX.   O  O    ",
"           .Xo+%%+oX.   OO O    ",
"         O.oo%%%%%%oo.  OO O    ",
"         OO.+o%%%%o+.    O      ",
"         O.oo+X%%X+oo.          ",
"       OO O.+o.%%.o+.O          ",
"        OO .+o.&&.o+.OO    O    ",
"         O .+. @.@.+.OOO  OO    ",
"           .+.@.@ .+. OO OO     ",
"           .+.@.@ .+.O O O      ",
"           .+. @  .+.O          ",
"   O  O    .+.    .+.           ",
"    O O    .o.****.o.           ",
"    O O   *.%.****.%.           ",
"         ***.******.**          ",
"          ***********           ",
"            *******             "
};
