/* XPM */
static char *p_left1741362324[] = {
/* columns rows colors chars-per-pixel */
"32 32 12 1 ",
"  c #91DB69",
". c #1EBC73",
"X c #222034",
"o c #555165",
"O c #464554",
"+ c black",
"@ c #3D3A46",
"# c #E2EBFD",
"$ c #9BADB7",
"% c #6A8D59",
"& c #2D7D5E",
"* c white",
/* pixels */
"                                ",
"                                ",
"                                ",
"                                ",
"                                ",
"                                ",
"   .       XX            .      ",
"   ..  XXXXoOX     .    ..      ",
"   XXXX+@OXoOOX    ..  ...      ",
"  +oooo+O@OXOX      .. .. ..    ",
"  +OOOOO@O@oXoX      . . ..     ",
"   X@@@@O@o@oX           .      ",
"    XXXXOo@oOoX XXXXX           ",
"        @o@OoOoXoooooXX         ",
"        @@oOoOoXoooooooX        ",
"    .  .XoOoOoOoooooooooX       ",
"    . .X#OoOoOooooooooo@X       ",
"    . ..X#OoOooooooooo@oOXX     ",
"      . X#oOooooooooOoXo@OOX    ",
"         X#oooooooOXXoX@oXX     ",
"          XOoX#$#OX@XoXo@OOX    ",
"    .    .+XoX$ $ +@XoXOO@OX    ",
"    ..  ..+XoX    +@XoXOoOX     ",
"     .. ..+XoX    +@XoXXOoX     ",
"      . . +XoX    +@XoXXoooX    ",
"          +XoX%%%%+@XoX XXX     ",
"         %+XoX%%%%+#XoX%%.  .   ",
"        %%+XOX%%%%%+XOX%%& .    ",
"       %%%%X#X%%%%%%X#X%%&%.    ",
"        %%%%X%%%%%%%%X%%%%      ",
"         %%%%%%%%%%%%%%%%       ",
"            %%%%%%%%%%          "
};
