/* XPM */
static char *p_left1741379525[] = {
/* columns rows colors chars-per-pixel */
"64 64 199 2 ",
"   c #050209",
".  c #0B090E",
"X  c #0E0C12",
"o  c #110E17",
"O  c #151C12",
"+  c #161A18",
"@  c #072C1A",
"#  c #1C2815",
"$  c #1C3218",
"%  c #213317",
"&  c #23331A",
"*  c #171424",
"=  c #1B1927",
"-  c #1E1C31",
";  c #201E2E",
":  c #221E34",
">  c #251F39",
",  c #103221",
"<  c #1E3D39",
"1  c #2A3922",
"2  c #283325",
"3  c #252236",
"4  c #292633",
"5  c #272A33",
"6  c #2D2A34",
"7  c #272339",
"8  c #2A263C",
"9  c #2C293E",
"0  c #2D3736",
"q  c #32333D",
"w  c #333A3C",
"e  c #2B2B36",
"r  c #3C5C2B",
"t  c #2D4136",
"y  c #35443E",
"u  c #39453E",
"i  c #3B4A3F",
"p  c #3F5239",
"a  c #41543C",
"s  c #2E2C40",
"d  c #312E42",
"f  c #353243",
"g  c #393645",
"h  c #363248",
"j  c #383748",
"k  c #3D3B4B",
"l  c #3B3A46",
"z  c #413E4C",
"x  c #423E52",
"c  c #1C4141",
"v  c #195B4A",
"b  c #244341",
"n  c #264841",
"m  c #3B4543",
"M  c #3D4A43",
"N  c #394647",
"B  c #205D49",
"V  c #397E5C",
"C  c #3C6A4C",
"Z  c #42404E",
"A  c #404C47",
"S  c #475947",
"D  c #454353",
"F  c #494657",
"G  c #474358",
"H  c #49455A",
"J  c #4C4A5B",
"K  c #504C5F",
"L  c #4E6942",
"P  c #4F6C49",
"I  c #4E6741",
"U  c #516F4A",
"Y  c #51654C",
"T  c #55724B",
"R  c #5A754F",
"E  c #557546",
"W  c #566955",
"Q  c #54605E",
"!  c #5B7751",
"~  c #5D7951",
"^  c #477954",
"/  c #617E52",
"(  c #4D4B61",
")  c #524E62",
"_  c #455E65",
"`  c #555165",
"'  c #535961",
"]  c #5C5C6D",
"[  c #5A566B",
"{  c #446165",
"}  c #586562",
"|  c #6B6B7E",
" . c #656476",
".. c #148D56",
"X. c #2F915A",
"o. c #189865",
"O. c #288263",
"+. c #319C61",
"@. c #368C61",
"#. c #17BA73",
"$. c #1CBC73",
"%. c #18B26F",
"&. c #33A666",
"*. c #2CBF71",
"=. c #22BE73",
"-. c #32BE70",
";. c #32B06A",
":. c #5D864B",
">. c #45875D",
",. c #5A8A5A",
"<. c #5C8557",
"1. c #58965F",
"2. c #648555",
"3. c #638C54",
"4. c #6A8D59",
"5. c #658A59",
"6. c #6C925B",
"7. c #6F9A5A",
"8. c #659359",
"9. c #719C5C",
"0. c #64934B",
"q. c #5EA75C",
"w. c #5AA050",
"e. c #6DA54E",
"r. c #6EA84D",
"t. c #71A74F",
"y. c #74A15D",
"u. c #75AD5B",
"i. c #7AAE5F",
"p. c #7AB45D",
"a. c #7DB95E",
"s. c #77B258",
"d. c #78877F",
"f. c #4CAB66",
"g. c #64AA61",
"h. c #79AB63",
"j. c #7DB562",
"k. c #7EBB60",
"l. c #72B462",
"z. c #1FC074",
"x. c #2EC171",
"c. c #22C175",
"v. c #34C271",
"b. c #39C370",
"n. c #4AC76F",
"m. c #4DC86E",
"M. c #44C66F",
"N. c #50C96E",
"B. c #5DCD6D",
"V. c #5EC469",
"C. c #5FD26F",
"Z. c #4FCE71",
"A. c #51CE71",
"S. c #64CE6C",
"D. c #6CC568",
"F. c #68D16D",
"G. c #75D36B",
"H. c #7CD56A",
"J. c #7ED96B",
"K. c #79CC68",
"L. c #80BB5F",
"P. c #80BC62",
"I. c #80B660",
"U. c #80C060",
"Y. c #86C865",
"T. c #89CC66",
"R. c #8BD266",
"E. c #8FD668",
"W. c #8BD969",
"Q. c #80DC6D",
"!. c #91DB69",
"~. c #91D766",
"^. c #93D476",
"/. c #95D976",
"(. c #8FE06C",
"). c #95E16A",
"_. c #6E6D82",
"`. c #747485",
"'. c #7A9088",
"]. c #858799",
"[. c #8C929B",
"{. c #91BE8A",
"}. c #8D94A5",
"|. c #989EAF",
" X c #949AA8",
".X c #98A1AF",
"XX c #9CA1B4",
"oX c #95A1B0",
"OX c #A3A8BA",
"+X c #A5BDB5",
"@X c #99C794",
"#X c #9ACC8F",
"$X c #A9C4BA",
"%X c #AAADC1",
"&X c #B8BECF",
"*X c #B0B7CA",
"=X c #B8C4CE",
"-X c #C7CEDB",
";X c #C9D9E2",
/* pixels */
"!.!.!.!.!.!.!.!.!.!.!.!.!.!.!.!.!.!.!.!.!.!.!.!.!.!.!.!.!.!.!.!.!.!.!.!.!.W.!.!.!.!.W.!.!.!.!.!.!.!.!.!.!.(.!.!.!.!.!.!.!.!.!.!.",
"!.!.!.!.!.!.!.!.!.E.!.!.E.!.!.!.!.!.E.!.!.!.!.!.!.!.!.!.!.!.!.!.!.!.!.!.^.W.!.!.!.!.!.!.!.!.!.!.!.!.!.!.!.!.!.!.!.!.!.!.!.!.!.!.",
"!.!.!.!.!.!.!.!.!.!.!.!.!.!.!.!.!.!.!.!.!.!.!.E.!.!.!.!.!.!.!.!.!.!.!.!.!.!.!.!.!.!.!.!.!.!.!.!.E.!.!.!.!.!.!.!.!.!.!.!.!.!.!.!.",
"!.!.!.!.!.!.E.!.!.!.!.!.(.!.!.!.!.!.!.!.!.!.!.!.!.!.!.W.!.!.!.!.!.!.!.!.!.!.!.!.!.!.!.!.!.!.!.!.!.!.!.!.!.!.!.!.!.!.!.E.!.!.!.!.",
"!.W.!.!.!.!.!.!.!.!.!.!.!.!.!.!.!.!.!.!.W.!.!.!.!.!.!.!.!.!.!.!.!.!.!.!.!.!.!.!.!.!.!.!.!.!.!.!.!.!.!.!.!.!.!.!.!.!.!.!.!.!.!.!.",
"!.!.!.!.!.!.!.!.!.!.!.!.!.!.!.!.!.!.!.!.!.!.!.!.!.!.!.!.!.!.!.!.!.!.!.!.!.!.!.!.!.!.!.E.!.!.!.!.!.!.E.!.!.!.!.E.!.!.!.!.!.!.!.!.",
"!.!.!.!.!.!.!.!.!.!.!.!.!.!.!.!.!.!.!.!.!.!.!.!.!.!.!.!.!.!.!.!.!.!.!.!.!.!.!.W.!.!.!.!.!.!.!.!.!.!.!.!.!.!.!.!.!.!.!.!.!.!.!.!.",
"!.!.!.!.!.!.!.!.!.!.!.!.!.!.!.!.!.!.!.!.!.!.!.!.!.!.!.!.!.!.!.!.!.!.!.!.!.!.!.!.!.!.!.!.!.!.!.!.!.!.!.!.!.!.!.!.W.^.!.!.!.!.!.!.",
"!.!.!.!.!.!.!.!.!.!.!.!.!.!.W.!.!.!.!.!.!.!.!.!.!.!.!.!.!.!.!.!.!.!.!.!.!.!.!.!.!.!.!.!.!.!.!.!.!.!.!.!.!.!.!.!.W.!.!.!.!.!.!.E.",
"!.!.!.!.!.!.!.!.W.^.!.!.!.!.!.!.!.!.!.!.!.!.).!.!.!.!.!.W.!.!.!.!.!.!.!.!.!.!.!.!.!.!.W.!.!.!.W.!.!.!.!.!.E.!.!.!.!.!.!.!.!.!.!.",
"!.W.!.W.!.!.!.!.W.!.!.!.!.!.!.!.!.!.!.W.W.!.!.!.).(.!.~.~.!.!.!.!.!.!.!.!.!.!.!.!.!.!.!.!.!.!.!.!.!.!.!.!.!.!.!.!.!.!.!.!.!.!.!.",
"!.!.!.!.!.R.H.H.W.!.!.!.!.!.!.!.!.!.).!.!.E.a.u.u.a.R.).!.!.!.!.!.!.!.!.!.~.!.!.!.!.!.!.!.!.!.!.!.E.G.H.W.!.!.!.!.!.!.!.!.!.!.!.",
"!.!.!.!.!.H.m.m.H.!.!.!.!.!.!.).).!.).!.).a.P m y U a.).!.!.W.!.!.!.!.!.!.!.!.!.!.!.!.!.!.!.!.~.!.H.m.m.H.!.!.!.!.!.!.!.!.!.(.!.",
"!.!.!.!.!.G.b.x.C.J.W.).!.R.k.u.u.s.u.p.p.3.N 7 3 u 3.a.E.!.!.!.!.!.!.!.!.W.H.H.R.!.!.!.!.!.!.E.Q.B.-.-.G.!.!.!.!.!.!.!.!.!.!.!.",
"!.!.!.!.!.H.v.=.x.A.J.).).k.T M i i M i M M D G k j m T a.).).W.^.!.!.!.!.H.n.n.H.!.!.!.!.!.!.H.m.-.$.b.G.!.!.!.!.!.!.!.!.!.!.!.",
"!.!.!.!.!.K.&.o.o.+.q.u.p.:.0 * - 7 7 7 - 9 H ` J k 9 y 3.a.R.!.W.W.!.!.!.G.b.*.B.H.W.!.!.R.Q.B.x.#.#.b.H.!.!.!.E.!.E.!.!.!.!.!.",
"!.!.!.!.).a.C c s n n M p 0 + o 4 f l f 7 9 H ` F D k l N P a.!.!.!.!.!.~.G.-.$.*.N.Q.!.!.H.N.x.=.$.#.b.G.~.!.~.!.!.!.!.!.!.!.!.",
"!.!.~.R.s.:.u 9 9 s 9 s s ; . X 6 z Z k 9 f x F H D D l m P a.!.!.!.!.!.!.H.N.-.$.*.S.H.!.G.b.#.$.=.-.n.F.G.H.H.W.!.!.~.!.!.!.!.",
"!.!.!.s.r 2 k F F x F F H f X X q D Z k k j s f z k d N 3.k.R.).!.!.!.~.!.W.Q.S.-.$.-.N.Q.K.b.#.$.x.S.F.m.v.v.m.H.!.!.!.!.!.!.!.",
"!.!.).e.% o l ` ` ) ) ` ` z ; + f D z z D k f s j g d A 3.k.R.W.!.!.!.!.!.!.~.Q.N.*.$.b.G.G.b.$.-.n.F.S.x.$.*.m.H.!.!.!.!.!.!.!.",
"!.).).e.% X f J J J F J J D l f l z Z Z k z D x d d x D M P a.!.!.!.!.!.!.!.!.W.Q.V.x.v.G.H.b.-.B.F.m.-.$.x.V.J.R.!.!.!.!.!.!.!.",
"!.!.!.s.r 2 q k x x Z Z Z D Z D z z Z Z Z D J D d d x D N P a.).).!.).!.!.!.!.).~.Q.m.m.H.H.n.m.Q.G.v.#.x.N.Q.!.!.!.!.!.!.!.!.!.",
"!.W.!.R.s.:.u 9 g z z z Z z z z Z z z Z J F D D G x d M 3.P.R.!.).!.).!.!.).!.!.).W.H.H.W.W.H.Q.E.G.v.-.B.Q.R.!.!.W.!.!.!.!.!.!.",
"!.!.!.!.).k.U u q q 9 q q q q f Z D z Z J K Z D K J d M 8.U.E.E.a.u.u.u.u.u.s.u.u.a.~.!.!.!.!.!.!.H.m.m.H.~.!.!.!.!.!.W.!.!.!.!.",
"!.!.!.!.).R.a.3.u 3 : 3 4 3 3 9 z F J J Z Z K K F F F D N T k.U.U i m i i M i i u U P.).).!.!.!.!.R.H.H.E.!.!.W.!.!.!.!.!.!.!.!.",
"!.!.!.W.!.!.).a.U i i i M i M M Z F ) K z z F K K F K H h N 8.0.M 7 8 s 8 9 8 8 8 N 3.u.u.L.R.!.!.!.!.!.!.!.!.!.!.!.!.!.!.!.!.W.",
"!.!.!.!.!.!.).R.a.u.u.u.u.u.s.8.S z K K Z z D J K K J F G D M M D G G H G H G G H D N m i U L.).).!.!.!.!.W.!.!.!.!.!.!.!.!.!.!.",
"!.!.!.!.!.W.~.!.!.).).!.).).).a.Y z F F Z Z D F ) K F J ) F 9 8 F ` ` ` ` ` ` ` ` J h s 8 N 3.L.R.!.!.!.!.!.!.!.!.!.!.!.!.!.!.!.",
"!.!.!.!.!.E.W.!.!.!.!.!.!.).).a.Q z z x H J F F ) ) F F ` H 9 9 x [ ` ` ` ` ` ` ` ) ( x G D m U a.).).!.!.!.!.!.!.!.!.!.!.!.!.!.",
"!.!.!.!.!.!.!.R.H.J.W.!.!.!.J.g.S 9 z x K K J F K J J F ) F h h ( ` ` ` ` ` ` ` ` ` ) ` ` H h m 3.a.R.!.!.!.!.!.!.W.!.!.!.!.!.!.",
"!.!.!.!.!.!.!.H.m.n.H.!.!.J.N.+.t s x K F F K K J F ) K F F F H ) ` ` ` ` ` ` ` ` ` ` ` ` ) H D M U a.!.!.!.!.!.!.!.!.!.!.!.!.!.",
"!.!.!.!.!.!.!.G.b.b.G.W.Q.V.&.O.{ ) ) J F K K K F J J K J J ` ` ` ` ` ` ` ` ` ` ` ` ` ` ` ) ) x 7 y s.).).!.!.E.!.!.!.!.!.!.!.!.",
"!.!.!.!.!.).!.G.v.v.G.J.Z.&.B { |.XX .D J ` J F ) J J F ) ) ` ` ` ` ` ` ` ` ` ` ` ` ` ` ` ) D g > i u.).).!.!.W.!.!.!.!.!.!.!.!.",
"!.!.!.!.!.~.!.G.v.v.G.G.v.o.B { |.%X'. .` J F J J ` F H ) ` ` ) ` ` ` ` ` ` ` ` ` ` ` ) ) H x k 9 A 3.u.u.a.R.(.!.!.~.!.!.!.!.!.",
"!.!.!.!.!.~.!.G.v.v.G.H.b.%.o.O._ _.OXOX .F J K F J ( ) ) ` ` ` ) ` ` ` ` ` ` ` ` ` ` ) D G F F x k a u u T k.).!.!.W.!.!.!.!.!.",
"!.!.!.!.!.!.~.H.m.N.H.H.b.c.v.+.< ( =X-X`.D J K J J ) ` ` ` ` ` ` ` ` ` ` ` ` ` ) ) ` H l l K ) F z 9 7 > m 3.a.R.!.!.!.!.!.!.!.",
"!.!.!.!.!.!.!.W.H.H.~.G.v.x.C.w.w ) &X-X`.H H F J ` ` ` ` ` ` ` ` ` ` ` ` ` ` ` H ) ) F f d H ) Z k k k k j y P a.!.!.!.!.!.!.!.",
"!.!.!.!.!.W.~.!.!.!.!.H.m.N.J.a.P }  X%X[.| ` J ` ` ` ) ) ) ) ) ) ) ` ` ) ( x x k D ) F 9 8 D J D z k k k k m T a.).!.!.!.!.!.!.",
"!.W.!.!.!.!.(.~.).~.!.W.H.H.W.R.k.8.} _.%X%X_.) ) ` ` ` ( ) ) ) ) ) ` ) K x h d 9 f H F 9 8 g D K G f 7 8 M 3.a.R.!.!.!.!.!.!.!.",
"!.!.!.!.!.!.!.!.~.~.).~.!.!.~.).).a.L ' XXXX| J ` ) H ` | `._._.`._.[ F x g 9 > : s H F s 4 g D J D f 4 7 N 8.a.R.!.!.!.!.!.!.W.",
"!.!.!.!.!.W.!.!.~.!.!.!.!.!.!.!.W.E.a.8.} ` J J ) H f ) XX&XoXoX&XOX .x 9 q q 9 4 9 H H 9 9 x J D z k k k k M T a.!.!.!.!.!.!.!.",
"!.!.!.!.!.!.!.W.H.H.W.!.!.~.!.!.!.W.J.q.t = d D ) G 8 ( %X;X$X$X;X&X'.A 4 ; q f 4 d H H s s D J Z z x D F j 3 y u.).!.!.!.!.!.!.",
"!.!.!.!.!.!.!.H.m.n.H.!.!.!.!.!.).J.A.+., X ; h H G 8 G }.=X#X#X$X+XP.5.% o q f 4 d H H s 8 N F D Z x z D k > y u.).!.!.!.!.!.!.",
"!.!.!.W.!.!.!.G.b.x.B.H.~.!.!.W.H.S.v...@   * 9 F G s N '.@XW.^.{.+X/.t.% . 6 f 7 9 H H s 8 k F F D N k k l m T a.W.!.!.!.!.!.!.",
"!.!.!.!.!.!.~.H.v.$.-.m.H.!.!.H.n.x.z...@   * s H H s m h./.!.!.^.^.!.t.& . 6 q 7 d H H s 7 k H K J F l 9 M 3.k.R.!.!.!.!.!.!.!.",
"!.!.!.!.!.!.!.H.m.-.$.-.B.J.!.G.v.z.z...@   * s H H s m h.).!.!.!.!.!.e.% . 6 g 7 9 H H 9 8 f D J ) J k 7 i s.).!.!.!.!.!.!.!.!.",
"!.!.!.!.!.~.W.W.Q.B.-.$.x.N.J.G.v.z.z...@   * d H F 9 i u.W.!.!.!.).).e.% . 6 f 7 9 F J d : 4 d D H ) D 8 M p.).).W.!.!.!.!.!.!.",
"W.!.!.!.!.!.!.!.!.H.N.x.$.b.H.H.v.z.v.X.@   * d H G s i u.).!.!.!.!.).e.% . 6 f 7 9 J F 9 : - 8 k ) ` H h M 3.k.R.!.!.!.W.!.!.!.",
"!.!.!.!.!.!.W.!.!.E.Q.B.*.-.G.H.-.v.C.w.&   * s H H s M s.).!.!.!.).).t.& . 6 q 7 d H H 9 - - 8 G ` ` ` H D m P j.(.!.!.!.!.!.!.",
"!.!.!.!.!.E.!.!.!.!.!.H.m.m.H.H.n.Z.Q.t.&   * s H H 9 y 9.T.T.Y.T.T.R.0.# . 6 q 7 9 H H 9 5 y A D F G G F D m P a.!.!.!.!.!.!.!.",
"!.!.!.!.!.!.!.!.!.!.!.E.H.H.W.W.H.J.).t.&   * s H G s w 2.9.y.9.9.y.y.E # . 5 w 7 9 H H 9 u 3.8.N s s 8 8 m 3.a.R.!.!.W.W.!.!.!.",
"!.!.!.!.!.!.!.!.!.W.!.!.!.!.!.E.!.!.E.0.$   * s H G 9 w T 4.4.5.4.6.4.I O + K [ f 9 G H 9 i y.i.I 0 d b y T a.).J.H.W.!.!.!.!.!.",
"!.!.!.!.!.!.!.!.!.~.!.!.!.!.!.!.!.R.j.E #   * f H H s q T 6.4.4.4.4.4.I O 6  XXXJ 9 D F 9 w 2.9.<.V O.+.q.a.~.H.m.n.H.!.!.!.!.!.",
"!.!.!.!.!.W.!.!.!.!.!.!.!.!.!.E.T.P.9.L O   * s G D 8 w T 4.4.4.4.4.4.E 1 u [.[.D 9 x D 9 w T 4.4.1.&.-.J.(.J.F.M.n.H.!.!.!.!.!.",
"!.!.!.!.!.!.!.!.!.!.!.W.!.!.!.T.h.9.6.L #   * 9 k k s q ! 4.6.4.4.4.4.2.E S i 9 3 s k k 8 q T 6.4.,.@.f.K.J.m.M.S.H.W.!.!.!.!.!.",
"!.!.!.!.!.!.!.!.!.!.!.!.!.!.T.L.9.4.4.E 1 + = j ] ] h 0 W 6.4.4.4.4.4.4.6.E 1 + = h ] ] d q R 6.4.<.V >.l.D.x.v.G.!.!.!.!.!.!.!.",
"!.!.!.!.!.!.!.!.!.!.!.!.!.T.i.7.4.4.4.2.E a 4 F XXXXH 6 T 4.4.4.4.4.4.4.4.2.E a 4 H XXXXH 0 U 6.4.,.V @.8.f.;.b.G.!.!.!.!.!.!.!.",
"W.!.!.!.!.!.!.!.!.!.!.!.!.T.i.7.6.4.4.4.6.~ A ` |.|.' A ! 6.4.4.4.4.4.4.4.4.6.R a ' |.|.' N R 4.4.5.^ >.8.g.f.m.H.!.!.!.!.!.!.!.",
"!.!.!.!.!.!.!.!.!.W.!.!.!.E.T.j.9.2.4.4.6.2.~ W ' ' W ~ 2.4.4.4.4.4.4.4.4.4.4.2.~ W ` ` W ~ 5.4.4.5.,.8.k.Y.H.H.E.!.!.!.!.!.!.!.",
"!.!.!.!.!.!.!.!.!.!.!.!.!.!.!.T.i.7.4.4.4.4.4.~ M u ~ 6.4.4.5.4.4.4.4.4.4.4.4.6.6.R i a ! 4.4.4.5.6.9.h.R.(.!.!.!.!.W.!.!.~.!.!.",
"!.!.!.!.!.!.!.!.!.!.!.W.!.!.!.E.R.P.7.4.4.4.4.2.R R 2.6.4.4.4.4.4.4.4.4.4.4.4.4.4.2.R R 2.4.4.5.5.9.I.T.E.!.!.!.!.W.E.!.!.!.!.!.",
"!.!.!.!.!.!.E.!.!.!.!.!.!.!.!.!.!.T.h.9.9.y.9.9.6.4.4.4.4.4.4.4.4.4.4.4.4.4.4.2.4.4.4.6.9.y.9.9.9.j.T.!.!.!.!.!.!.!.!.!.!.!.!.!.",
"!.E.!.!.!.!.!.!.!.!.!.!.!.!.W.!.!.~.T.T.T.Y.T.P.9.4.4.4.4.4.4.4.4.4.4.4.4.4.4.4.5.4.4.9.P.T.T.T.Y.T.!.!.!.E.!.!.!.!.!.!.!.!.!.!.",
"!.!.!.!.!.!.!.!.!.!.!.!.!.!.!.!.!.!.!.!.!.!.!.T.9.4.2.4.4.4.4.4.4.4.4.4.4.4.4.4.4.4.4.y.T.!.!.!.!.!.!.!.!.!.!.!.!.!.!.!.!.!.!.!."
};
