/* XPM */
static char *p_left1741459696[] = {
/* columns rows colors chars-per-pixel */
"64 64 12 1 ",
"  c #91DB69",
". c #1EBC73",
"X c #222034",
"o c #555165",
"O c #464554",
"+ c black",
"@ c #3D3A46",
"# c #E2EBFD",
"$ c #9BADB7",
"% c #6A8D59",
"& c #2D7D5E",
"* c white",
/* pixels */
"                                                                ",
"                                                                ",
"                                                                ",
"                                                                ",
"                                                                ",
"                                                                ",
"                                                                ",
"                                                                ",
"                                                                ",
"                                                                ",
"                                                                ",
"                                                                ",
"      ..              XXXX                        ..            ",
"      ..              XXXX                        ..            ",
"      ....    XXXXXXXXooOOXX          ..        ....            ",
"      ....    XXXXXXXXooOOXX          ..        ....            ",
"      XXXXXXXX++@@OOXXooOOOOXX        ....    ......            ",
"      XXXXXXXX++@@OOXXooOOOOXX        ....    ......            ",
"    ++oooooooo++OO@@OOXXOOXX            ....  ....  ....        ",
"    ++oooooooo++OO@@OOXXOOXX            ....  ....  ....        ",
"    ++OOOOOOOOOO@@OO@@ooXXooXX            ..  ..  ....          ",
"    ++OOOOOOOOOO@@OO@@ooXXooXX            ..  ..  ....          ",
"      XX@@@@@@@@OO@@oo@@ooXX                      ..            ",
"      XX@@@@@@@@OO@@oo@@ooXX                      ..            ",
"        XXXXXXXXOOoo@@ooOOooXX  XXXXXXXXXX                      ",
"        XXXXXXXXOOoo@@ooOOooXX  XXXXXXXXXX                      ",
"                @@oo@@OOooOOooXXooooooooooXXXX                  ",
"                @@oo@@OOooOOooXXooooooooooXXXX                  ",
"                @@@@ooOOooOOooXXooooooooooooooXX                ",
"                @@@@ooOOooOOooXXooooooooooooooXX                ",
"        ..    ..XXooOOooOOooOOooooooooooooooooooXX              ",
"        ..    ..XXooOOooOOooOOooooooooooooooooooXX              ",
"        ..  ..XX##OOooOOooOOoooooooooooooooooo@@XX              ",
"        ..  ..XX##OOooOOooOOoooooooooooooooooo@@XX              ",
"        ..  ....XX##OOooOOoooooooooooooooooo@@ooOOXXXX          ",
"        ..  ....XX##OOooOOoooooooooooooooooo@@ooOOXXXX          ",
"            ..  XX##ooOOooooooooooooooooOOooXXoo@@OOOOXX        ",
"            ..  XX##ooOOooooooooooooooooOOooXXoo@@OOOOXX        ",
"                  XX##ooooooooooooooOOXXXXooXX@@ooXXXX          ",
"                  XX##ooooooooooooooOOXXXXooXX@@ooXXXX          ",
"                    XXOOooXX##$$##OOXX@@XXooXXoo@@OOOOXX        ",
"                    XXOOooXX##$$##OOXX@@XXooXXoo@@OOOOXX        ",
"        ..        ..++XXooXX$$  $$  ++@@XXooXXOOOO@@OOXX        ",
"        ..        ..++XXooXX$$  $$  ++@@XXooXXOOOO@@OOXX        ",
"        ....    ....++XXooXX        ++@@XXooXXOOooOOXX          ",
"        ....    ....++XXooXX        ++@@XXooXXOOooOOXX          ",
"          ....  ....++XXooXX        ++@@XXooXXXXOOooXX          ",
"          ....  ....++XXooXX        ++@@XXooXXXXOOooXX          ",
"            ..  ..  ++XXooXX        ++@@XXooXXXXooooooXX        ",
"            ..  ..  ++XXooXX        ++@@XXooXXXXooooooXX        ",
"                    ++XXooXX%%%%%%%%++@@XXooXX  XXXXXX          ",
"                    ++XXooXX%%%%%%%%++@@XXooXX  XXXXXX          ",
"                  %%++XXooXX%%%%%%%%++##XXooXX%%%%..    ..      ",
"                  %%++XXooXX%%%%%%%%++##XXooXX%%%%..    ..      ",
"                %%%%++XXOOXX%%%%%%%%%%++XXOOXX%%%%&&  ..        ",
"                %%%%++XXOOXX%%%%%%%%%%++XXOOXX%%%%&&  ..        ",
"              %%%%%%%%XX##XX%%%%%%%%%%%%XX##XX%%%%&&%%..        ",
"              %%%%%%%%XX##XX%%%%%%%%%%%%XX##XX%%%%&&%%..        ",
"                %%%%%%%%XX%%%%%%%%%%%%%%%%XX%%%%%%%%            ",
"                %%%%%%%%XX%%%%%%%%%%%%%%%%XX%%%%%%%%            ",
"                  %%%%%%%%%%%%%%%%%%%%%%%%%%%%%%%%              ",
"                  %%%%%%%%%%%%%%%%%%%%%%%%%%%%%%%%              ",
"                        %%%%%%%%%%%%%%%%%%%%                    ",
"                        %%%%%%%%%%%%%%%%%%%%                    "
};
