/* XPM */
static char *p_right1741362324[] = {
/* columns rows colors chars-per-pixel */
"32 32 12 1 ",
"  c #91DB69",
". c #1EBC73",
"X c #222034",
"o c #464554",
"O c #555165",
"+ c #3D3A46",
"@ c black",
"# c #E2EBFD",
"$ c #9BADB7",
"% c #6A8D59",
"& c #2D7D5E",
"* c white",
/* pixels */
"                                ",
"                                ",
"                                ",
"                                ",
"                                ",
"                                ",
"      .            XX       .   ",
"      ..    .     XoOXXXX  ..   ",
"      ...  ..    XooOXo+@XXXX   ",
"    .. .. ..      XoXo+o@OOOO@  ",
"     .. . .      XOXO+o+ooooo@  ",
"      .           XO+O+o++++X   ",
"           XXXXX XOoO+OoXXXX    ",
"         XXOOOOOXOoOo+O+        ",
"        XOOOOOOOXOoOoO++        ",
"       XOOOOOOOOOoOoOoOX.  .    ",
"       X+OOOOOOOOOoOoOo#X. .    ",
"     XXoO+OOOOOOOOOoOo#X.. .    ",
"    Xoo+OXOoOOOOOOOOoO#X .      ",
"     XXO+XOXXoOOOOOOO#X         ",
"    Xoo+OXOX+Xo#$#XOoX          ",
"    Xo+ooXOX+@ $ $XOX@.    .    ",
"     XoOoXOX+@    XOX@..  ..    ",
"     XOoXXOX+@    XOX@.. ..     ",
"    XOOOXXOX+@    XOX@ . .      ",
"     XXX XOX+@%%%%XOX@          ",
"   .  .%%XOX#@%%%%XOX@%         ",
"    . &%%XoX@%%%%%XoX@%%        ",
"    .%&%%X#X%%%%%%X#X%%%%       ",
"      %%%%X%%%%%%%%X%%%%        ",
"       %%%%%%%%%%%%%%%%         ",
"          %%%%%%%%%%            "
};
