/* XPM */
static char *p_right1741379525[] = {
/* columns rows colors chars-per-pixel */
"64 64 199 2 ",
"   c #050209",
".  c #0B090E",
"X  c #0E0C12",
"o  c #110E17",
"O  c #151C12",
"+  c #161A18",
"@  c #072C1A",
"#  c #1C2815",
"$  c #1C3218",
"%  c #213317",
"&  c #23331A",
"*  c #171424",
"=  c #1B1927",
"-  c #1E1C31",
";  c #201E2E",
":  c #221E34",
">  c #251F39",
",  c #103221",
"<  c #1E3D39",
"1  c #2A3922",
"2  c #283325",
"3  c #252236",
"4  c #292633",
"5  c #272A33",
"6  c #2D2A34",
"7  c #272339",
"8  c #2A263C",
"9  c #2C293E",
"0  c #2D3736",
"q  c #32333D",
"w  c #333A3C",
"e  c #2B2B36",
"r  c #3C5C2B",
"t  c #2D4136",
"y  c #35443E",
"u  c #39453E",
"i  c #3B4A3F",
"p  c #3F5239",
"a  c #41543C",
"s  c #2E2C40",
"d  c #312E42",
"f  c #353243",
"g  c #393645",
"h  c #363248",
"j  c #383748",
"k  c #3D3B4B",
"l  c #3B3A46",
"z  c #413E4C",
"x  c #423E52",
"c  c #1C4141",
"v  c #195B4A",
"b  c #244341",
"n  c #264841",
"m  c #3B4543",
"M  c #3D4A43",
"N  c #394647",
"B  c #205D49",
"V  c #397E5C",
"C  c #3C6A4C",
"Z  c #42404E",
"A  c #404C47",
"S  c #475947",
"D  c #454353",
"F  c #494657",
"G  c #474358",
"H  c #49455A",
"J  c #4C4A5B",
"K  c #504C5F",
"L  c #4E6942",
"P  c #4F6C49",
"I  c #4E6741",
"U  c #516F4A",
"Y  c #51654C",
"T  c #55724B",
"R  c #5A754F",
"E  c #557546",
"W  c #566955",
"Q  c #54605E",
"!  c #5B7751",
"~  c #5D7951",
"^  c #477954",
"/  c #617E52",
"(  c #4D4B61",
")  c #524E62",
"_  c #455E65",
"`  c #555165",
"'  c #535961",
"]  c #5C5C6D",
"[  c #5A566B",
"{  c #446165",
"}  c #586562",
"|  c #6B6B7E",
" . c #656476",
".. c #148D56",
"X. c #2F915A",
"o. c #189865",
"O. c #288263",
"+. c #319C61",
"@. c #368C61",
"#. c #17BA73",
"$. c #1CBC73",
"%. c #18B26F",
"&. c #33A666",
"*. c #2CBF71",
"=. c #22BE73",
"-. c #32BE70",
";. c #32B06A",
":. c #5D864B",
">. c #45875D",
",. c #5A8A5A",
"<. c #5C8557",
"1. c #58965F",
"2. c #648555",
"3. c #638C54",
"4. c #6A8D59",
"5. c #658A59",
"6. c #6C925B",
"7. c #6F9A5A",
"8. c #659359",
"9. c #719C5C",
"0. c #64934B",
"q. c #5EA75C",
"w. c #5AA050",
"e. c #6DA54E",
"r. c #6EA84D",
"t. c #71A74F",
"y. c #74A15D",
"u. c #75AD5B",
"i. c #7AAE5F",
"p. c #7AB45D",
"a. c #7DB95E",
"s. c #77B258",
"d. c #78877F",
"f. c #4CAB66",
"g. c #64AA61",
"h. c #79AB63",
"j. c #7DB562",
"k. c #7EBB60",
"l. c #72B462",
"z. c #1FC074",
"x. c #2EC171",
"c. c #22C175",
"v. c #34C271",
"b. c #39C370",
"n. c #4AC76F",
"m. c #4DC86E",
"M. c #44C66F",
"N. c #50C96E",
"B. c #5DCD6D",
"V. c #5EC469",
"C. c #5FD26F",
"Z. c #4FCE71",
"A. c #51CE71",
"S. c #64CE6C",
"D. c #6CC568",
"F. c #68D16D",
"G. c #75D36B",
"H. c #7CD56A",
"J. c #7ED96B",
"K. c #79CC68",
"L. c #80BB5F",
"P. c #80BC62",
"I. c #80B660",
"U. c #80C060",
"Y. c #86C865",
"T. c #89CC66",
"R. c #8BD266",
"E. c #8FD668",
"W. c #8BD969",
"Q. c #80DC6D",
"!. c #91DB69",
"~. c #91D766",
"^. c #93D476",
"/. c #95D976",
"(. c #8FE06C",
"). c #95E16A",
"_. c #6E6D82",
"`. c #747485",
"'. c #7A9088",
"]. c #858799",
"[. c #8C929B",
"{. c #91BE8A",
"}. c #8D94A5",
"|. c #989EAF",
" X c #949AA8",
".X c #98A1AF",
"XX c #9CA1B4",
"oX c #95A1B0",
"OX c #A3A8BA",
"+X c #A5BDB5",
"@X c #99C794",
"#X c #9ACC8F",
"$X c #A9C4BA",
"%X c #AAADC1",
"&X c #B8BECF",
"*X c #B0B7CA",
"=X c #B8C4CE",
"-X c #C7CEDB",
";X c #C9D9E2",
/* pixels */
"!.!.!.!.!.!.!.!.!.!.!.!.!.!.!.!.!.!.!.!.E.!.W.!.!.!.!.!.!.!.!.!.^.E.!.!.!.!.!.!.!.!.!.!.!.!.!.!.!.!.!.!.!.!.!.!.^.W.!.!.W.!.!.!.",
"!.!.!.!.!.!.!.!.!.E.!.!.E.!.!.!.!.!.!.!.!.!.!.!.!.!.!.!.!.!.!.!.!.W.!.!.!.!.!.!.!.!.!.!.!.!.!.!.!.!.!.!.!.!.!.!.!.!.!.!.!.!.!.!.",
"!.!.!.!.!.!.!.!.!.!.!.!.!.!.!.!.!.!.!.E.!.!.!.!.!.!.!.!.!.!.!.!.!.!.!.!.!.!.!.!.W.!.!.!.!.!.!.!.!.!.!.E.!.!.!.!.!.!.!.!.!.!.!.!.",
"!.!.!.!.!.!.E.!.!.!.!.!.(.!.!.!.!.!.!.!.!.!.!.!.!.!.!.!.!.!.!.!.!.!.!.W.!.!.!.!.!.!.!.!.!.!.!.!.!.!.!.!.!.!.!.!.!.!.!.!.!.!.!.!.",
"!.W.!.!.!.!.!.!.!.!.!.!.!.!.!.!.!.!.!.!.!.!.!.!.!.!.!.!.!.!.!.!.!.!.!.!.!.!.!.!.!.!.!.!.!.!.!.!.!.!.!.!.!.!.!.!.!.!.!.!.!.!.!.!.",
"!.!.!.!.!.!.!.!.!.!.!.!.!.!.!.!.!.!.!.!.!.E.!.!.!.!.!.!.!.!.!.!.!.!.!.!.!.!.!.!.!.!.!.!.!.!.!.W.!.!.!.!.!.!.!.!.!.!.!.!.!.!.!.!.",
"!.!.!.!.!.!.!.!.!.!.!.!.!.!.!.!.!.!.!.!.!.!.!.!.!.!.!.!.!.!.!.!.!.!.!.!.!.!.!.!.!.!.!.!.!.!.!.!.!.E.!.!.!.!.!.!.!.!.E.!.!.!.!.!.",
"!.!.!.!.!.!.!.!.!.!.!.!.!.!.!.!.!.!.!.!.!.!.!.!.!.!.!.!.!.!.!.!.!.!.!.!.!.(.!.!.!.!.!.!.!.!.!.!.!.!.!.!.!.(.!.!.!.!.!.!.!.!.!.!.",
"!.!.!.!.!.!.!.!.!.!.!.!.!.!.!.!.!.!.!.!.!.!.!.!.!.!.!.!.!.!.!.!.!.!.!.!.!.!.!.!.!.!.!.!.!.!.!.!.!.!.!.!.!.!.!.!.!.E.!.!.!.!.!.!.",
"!.!.!.!.!.!.!.!.W.^.W.!.!.!.!.!.!.!.!.!.!.!.!.!.!.!.!.!.!.!.!.!.!.!.!.W.!.!.!.).!.!.!.!.!.!.!.!.!.!.!.!.!.!.~.!.!.!.!.!.!.!.!.!.",
"!.!.!.!.!.!.!.!.W.!.!.!.~.!.!.!.!.!.!.!.!.!.!.!.!.!.!.!.!.!.!.!.!.!.!.E.~.W.!.!.).!.!.W.~.W.W.~.!.!.!.!.!.W.!.!.!.!.!.W.E.!.!.!.",
"!.!.!.!.!.!.!.!.!.!.!.W.H.H.W.!.!.W.~.!.!.W.!.!.!.!.!.!.W.!.!.!.!.!.!.!.).R.k.u.u.a.R.).).!.).).!.!.!.~.!.!.!.W.J.H.W.!.!.!.!.!.",
"W.!.!.!.!.!.!.!.!.!.!.H.m.m.H.~.!.!.!.!.!.!.!.!.~.~.!.!.!.!.!.!.!.E.~.(.).a.U y y U k.).).).(.).!.!.!.!.!.!.!.H.m.m.H.!.!.!.!.!.",
"!.!.!.!.!.!.!.!.!.!.!.G.v.x.B.Q.!.!.!.!.!.!.!.W.H.H.W.!.!.!.!.!.!.!.).E.a.3.N > 7 m 3.u.u.u.u.u.u.k.R.).!.W.Q.S.x.v.G.!.!.!.!.!.",
"!.!.!.!.!.!.!.!.!.!.!.H.v.=.-.N.H.!.!.W.!.!.~.H.m.m.H.!.!.!.!.!.E.!.).k.T m l k x F M M M M M M M T k.).).Q.A.v.z.v.H.!.!.!.!.!.",
"!.!.!.!.!.!.!.!.~.~.~.G.b.#.#.x.B.H.~.!.!.~.H.B.*.v.G.!.!.!.!.!.!.E.k.<.y s k J ` H s - 3 7 3 ; * 0 :.p.u.q.+.o.o.&.K.!.!.W.!.!.",
"!.!.!.!.!.!.E.!.~.!.!.G.b.#.$.=.-.m.H.~.!.H.N.x.$.v.G.~.!.!.!.!.!.a.P m k k D F ) H 8 : q z g 4 o o 0 p A i t c c C k.).!.!.~.W.",
"!.!.!.!.!.!.!.W.H.G.H.F.m.-.=.#.#.b.G.E.W.B.x.$.-.m.H.!.~.!.!.!.!.p.P m k k D G H x d s z D z 6 X . - s 9 9 s s 8 l :.s.R.!.!.!.",
"!.!.!.E.!.!.!.H.m.v.b.m.F.S.v.#.#.b.G.H.N.x.$.x.S.H.W.!.!.!.!.!.!.R.P.3.M 9 z x h d g z z z D q X X f G H x H H G k 2 r s.).).!.",
"!.!.!.!.!.!.!.H.m.*.$.x.S.F.m.*.=.b.H.G.b.$.*.N.Q.~.!.!.!.!.!.!.!.R.k.8.M s j j d d z z z z Z q + ; N ` ` ` K K ` l o % e.).!.!.",
"!.!.!.!.!.!.!.W.H.B.x.$.x.m.F.B.x.b.G.G.b.*.B.H.W.!.!.!.!.!.!.!.).p.U M D x d d x D z z D Z z z g l D H K F J J J f X % e.).!.!.",
"!.!.!.!.!.!.W.!.!.J.N.x.$.b.G.J.m.m.H.H.m.m.Q.!.!.!.!.).!.).!.!.).p.P M x x d g D J D z z z z z D D D z Z Z x x k w 2 r s.!.!.!.",
"!.!.!.!.!.E.!.!.!.~.H.B.x.v.G.~.H.H.!.~.H.H.!.!.!.).).).).!.!.!.!.R.k.8.A d z F D D K H D z z z z z z z z z z g 9 y :.s.R.!.!.W.",
"!.!.!.!.!.!.!.!.!.!.~.H.m.m.H.!.!.!.!.!.!.R.a.u.u.u.u.u.u.u.u.a.E.E.U.3.A f H J D D H J x z F x g q q d q q q q y T a.).!.!.!.!.",
"!.!.!.!.!.!.!.E.!.E.!.W.H.H.W.!.!.!.!.).).P.U i i i i M m u u U k.k.T M F G J F J J z D J J H z 9 3 3 3 3 3 : y 3.a.R.!.!.!.!.!.",
"!.!.!.!.!.!.!.!.!.!.!.!.!.!.!.!.).R.a.s.u.3.m 8 8 s 8 8 s s 8 A 0.8.N d G ) J J K J z z K K J z M i M i M i u U a.).).~.!.!.!.!.",
"!.!.!.!.!.E.!.!.!.!.W.!.!.!.!.!.).a.U u m M G x G x G G x H H H A M D G F J J J K D z z K K z S 4.s.p.u.u.u.s.a.R.!.!.!.~.!.!.!.",
"!.W.!.!.!.!.!.!.!.!.!.!.~.!.).E.a.3.m 8 s h H ` [ [ ` ` ` ` [ x 8 9 F ` J F ) ` F D z D J x z Y P.).).!.).!.!.).!.!.!.!.W.!.!.!.",
"!.!.!.E.!.!.!.!.!.!.!.E.!.).!.P.T m D x G H ) [ ) ` ` ` ` [ [ x 9 9 F ) F F ) ) F F K F z z g S L.).).!.!.!.).!.!.!.!.!.!.!.W.!.",
"!.!.!.!.!.!.!.!.!.!.!.!.W.R.P.3.m d H [ ) [ ` ) ) ` ` ` ` ` ` H f f F K J F J J J H K J x z f C g.J.W.!.!.W.H.H.W.!.!.!.!.!.!.!.",
"!.!.!.!.!.!.!.!.!.!.!.!.!.a.U m D H ) ` ` [ ) ) ` ` ` ` ` ` ` ) J G F J ( ( J J K K J J K x 9 n +.Z.Q.!.!.H.m.m.H.!.!.!.!.!.!.!.",
"!.!.!.!.!.!.!.!.!.!.!.).).l.i 7 x ) ` ` ` ) ) [ ` ` ` ` ` ` ` ` ` ` J J ( J J J K J J H J ) ` { O.+.D.Q.~.G.v.x.G.!.!.!.!.!.!.!.",
"!.!.!.!.!.!.!.!.!.!.!.).).u.i > g F ) ` ` ` ` ` ` ` ` ` ) ) ) [ ` ` ) J J J J J F J ( J G  .XXoX_ v &.N.Q.K.v.v.G.~.~.!.!.!.!.!.",
"!.!.!.!.!.!.~.!.!.E.L.u.u.3.A 9 g D H ) ) ` ` ` ` ` ` ` ` [ ) ) ` ` ` ) J J J ( J J J [  .'.%XoX_ v o.b.G.G.v.v.G.~.!.!.!.!.!.!.",
"!.!.!.!.!.~.!.!.).a.U u i A N x F J D D ) ` ` ` ` ` ` ` ` ` [ ) ` ` ` ) ` J J J K J F  .XXOX_.{ O.o.%.b.H.G.v.v.G.~.!.!.!.!.!.!.",
"!.!.!.!.!.W.!.R.a.3.u 7 7 9 k F ) J l g J ` ) ` ` ` ` ` ` ` ) ) ` ) ` ` ` K J J J J D `.-X&X) 0 +.v.c.b.G.H.N.N.H.!.~.).!.!.!.!.",
"!.!.!.!.!.!.).a.P y l k k k k Z K J d d F ) J J ) [ ` ` [ ) ) [ [ ` ) ` ` ` ) J J F F `.-X&XJ t q.C.v.v.G.W.Q.H.W.!.!.!.!.!.!.!.",
"!.!.!.!.!.!.!.a.P m k k k k k D J x 9 9 G ) G k x H ) ) ) ` ) ) ) ) ) ) ` ` ` ) J ` | [.%X X} E a.J.m.m.H.!.!.!.!.!.!.!.!.!.!.!.",
"!.!.W.!.W.!.!.R.a.3.m 7 8 f F J D g 4 9 F H f 8 8 h x J ) ) ) K ) ) ) ) ` ` ` ) J _.%X%X_.' 8.a.R.W.H.H.W.!.!.!.!.~.W.!.!.!.!.!.",
"!.!.!.!.!.!.!.E.U.8.M 7 7 f D J D g 8 9 F J 9 : 3 9 j x F [ _.`.| | `._.` F ) ` ( | OX.X} L a.).).W.!.!.W.!.!.!.!.W.!.!.!.!.!.!.",
"!.!.!.!.!.!.).k.T M l k k k z D K z 9 9 F H s 7 9 q 9 9 z  .OX&X|.oX&XXX( h G ) ( J ` } 7.a.W.(.!.!.!.!.!.!.!.~.!.!.~.!.!.!.W.!.",
"!.!.!.!.!.!.!.u.y 3 k D G N k Z K D 9 d F F 9 7 g q ; 4 A d.=X;X$X$X;X%X( s x ) G 9 = t q.J.(.~.~.!.!.~.!.~.H.H.W.!.!.!.!.!.!.!.",
"!.!.!.!.!.!.).u.y 3 k F x k Z D F z 8 9 H H s 8 g 6 o & 0.{.+X=X#X#X=X}.x s G J h - X , X.Z.Q.).!.!.!.!.!.H.m.m.H.!.!.!.!.!.!.!.",
"!.!.!.!.W.).W.j.U m k k l D F F F z 8 9 G F s 4 g 6 . % t./.{.{.^.^.@X'.N s F H 9 *   @ ..v.S.H.W.!.!.E.Q.B.*.v.G.~.!.!.!.!.!.!.",
"!.!.!.!.!.!.!.R.k.3.M 9 k F J ) J k 8 9 H H s 8 g 6 . % t././.^.W.W.^.h.m 8 G H s *   @ ..c.x.m.H.!.~.Q.N.*.$.v.G.!.!.!.!.!.!.!.",
"!.W.!.!.!.!.~.).).p.i 7 k J ( J Z f 7 s F H s 8 q 6 . % t.).!.!.W.).).u.i s G H d *   @ ..$.#.v.G.!.H.S.-.$.*.N.H.~.!.!.!.!.!.!.",
"!.!.!.!.!.!.W.).).u.M s x ) J D d 7 3 s H F s 7 g 6   % t.).!.!.!.!.).u.i s G H s *   @ ..z.z.b.K.Q.N.x.$.*.S.Q.W.!.!.!.!.!.!.!.",
"!.!.!.!.!.!.!.R.k.3.m h H ) J N 8 - - d H F 9 7 q 6 . % r.).!.!.!.).).u.i 9 G H s *   , X.v.z.v.G.G.b.$.-.N.H.!.!.!.W.!.!.!.!.!.",
"!.!.!.!.!.!.!.a.P m D J ` ` ` G 8 - - 9 J F s 8 f 6 . % t.!.!.!.W.).).u.m s H H s *   $ w.S.-.-.G.G.b.*.B.H.~.!.!.!.!.!.!.!.!.!.",
"!.!.!.!.!.!.).a.P m D G G G G F A y 5 9 F F 9 7 q 6   % 0.Y.T.T.Y.T.T.y.y s G H s *   & t.Q.A.N.H.H.m.m.Q.~.!.!.~.!.!.!.!.!.!.!.",
"!.!.!.!.!.!.!.R.a.3.m 8 8 9 8 M 8.3.y s H H d 7 q 4 . # E I.y.9.9.y.y.~ w s H H s *   & t.!.Q.Q.W.!.H.H.W.!.!.!.W.!.!.!.!.!.!.!.",
"W.!.!.!.W.W.H.H.W.P.T y b c w S u.y.M 8 H G s d [ K + O I 4.4.4.4.4.4.T w s H H s *   $ 0.E.!.!.!.!.~.~.!.!.W.!.!.!.!.!.!.!.!.!.",
"!.!.!.!.!.H.n.N.H.~.a.q.+.@.^ ~ 9.:.w s ( H 8 J XX X6 + a 6.4.4.4.4.4.T w s G H s *   # E I.R.!.!.!.!.!.!.!.!.!.!.!.!.!.W.!.!.!.",
"!.!.!.!.E.H.m.M.F.H.).G.-.&.1.6.4.W w s x N 8 D [.[.a 1 T 6.4.4.4.4.4.! 0 s x G s *   + I 9.P.T.~.!.!.!.~.!.!.!.!.E.!.!.!.!.!.!.",
"!.!.!.!.!.W.H.S.M.m.J.K.f.@.,.6.6.T q s k k 9 3 q a S E 2.4.4.4.4.4.4.! w 8 k k 9 *   # L 6.9.i.R.!.W.!.~.!.!.!.!.!.!.!.!.!.!.!.",
"!.!.!.!.!.!.~.G.v.v.l.l.@.V ,.6.4.W 0 h ] ] h = O & T 4.4.4.4.4.4.4.4.U f h ] } h - + 1 U 4.4.9.p.R.!.!.W.!.!.!.!.!.!.!.!.!.!.!.",
"!.!.!.!.!.!.!.G.v.;.q.1.@.V ,.4.4.R 0 G XXXXH 5 a E 2.4.4.4.4.4.4.4.4.U q F XXXXF 5 a E 2.4.4.4.9.u.T.!.!.!.!.!.!.!.!.!.!.!.!.!.",
"!.!.!.!.!.~.!.H.Z.f.g.8.>.^ 5.4.4.~ M ' |.|.` a ~ 6.4.5.4.4.4.4.4.4.4.! M ' |.|.' A ~ 6.4.4.4.4.9.h.T.!.!.!.!.!.!.!.!.!.E.!.!.!.",
"!.!.!.!.!.!.!.W.G.G.Y.k.8.,.5.4.4.2.~ W ' ' W ~ 2.4.4.4.4.4.4.4.4.4.4.4.~ W ' ' W ~ 2.4.4.4.4.7.I.T.W.!.!.!.W.!.!.!.!.!.!.!.!.!.",
"!.!.!.!.!.!.!.!.(.).).T.h.9.4.4.4.4.4.R u m ~ 6.4.4.4.4.4.4.4.4.4.4.4.4.6.~ i m ~ 4.4.4.4.4.9.i.T.!.!.!.!.!.!.!.!.!.!.!.E.!.!.!.",
"!.!.!.!.!.E.!.!.!.!.!.W.T.P.9.4.4.4.4.2.R R 2.4.4.4.4.4.4.4.4.4.4.4.2.4.4.2.R R 2.4.4.4.4.9.k.T.E.!.!.!.!.!.!.!.!.!.!.!.!.!.!.!.",
"!.!.!.!.!.!.!.!.!.!.E.!.!.T.h.9.9.y.y.9.6.4.4.4.4.4.4.4.4.4.4.4.4.4.4.4.4.4.4.6.9.y.9.y.9.h.T.!.!.!.!.!.!.!.!.!.!.!.!.!.!.!.!.!.",
"!.!.E.!.!.!.!.!.!.!.!.!.!.!.T.T.T.Y.Y.P.9.4.4.4.4.4.4.4.4.4.4.4.4.4.4.4.4.4.4.9.L.Y.Y.Y.Y.T.E.!.!.!.W.!.!.!.!.!.!.!.!.!.(.!.!.!.",
"!.!.!.!.!.!.!.!.!.!.!.!.!.!.!.!.!.!.!.T.9.4.4.4.4.4.4.4.4.4.4.4.4.4.4.4.4.4.4.y.Y.).).!.!.!.!.!.!.!.!.!.!.W.^.!.!.!.!.!.!.!.!.!."
};
