/* XPM */
static char *p_right1741459696[] = {
/* columns rows colors chars-per-pixel */
"64 64 12 1 ",
"  c #91DB69",
". c #1EBC73",
"X c #222034",
"o c #464554",
"O c #555165",
"+ c #3D3A46",
"@ c black",
"# c #E2EBFD",
"$ c #9BADB7",
"% c #6A8D59",
"& c #2D7D5E",
"* c white",
/* pixels */
"                                                                ",
"                                                                ",
"                                                                ",
"                                                                ",
"                                                                ",
"                                                                ",
"                                                                ",
"                                                                ",
"                                                                ",
"                                                                ",
"                                                                ",
"                                                                ",
"            ..                        XXXX              ..      ",
"            ..                        XXXX              ..      ",
"            ....        ..          XXooOOXXXXXXXX    ....      ",
"            ....        ..          XXooOOXXXXXXXX    ....      ",
"            ......    ....        XXooooOOXXoo++@@XXXXXXXX      ",
"            ......    ....        XXooooOOXXoo++@@XXXXXXXX      ",
"        ....  ....  ....            XXooXXoo++oo@@OOOOOOOO@@    ",
"        ....  ....  ....            XXooXXoo++oo@@OOOOOOOO@@    ",
"          ....  ..  ..            XXOOXXOO++oo++oooooooooo@@    ",
"          ....  ..  ..            XXOOXXOO++oo++oooooooooo@@    ",
"            ..                      XXOO++OO++oo++++++++XX      ",
"            ..                      XXOO++OO++oo++++++++XX      ",
"                      XXXXXXXXXX  XXOOooOO++OOooXXXXXXXX        ",
"                      XXXXXXXXXX  XXOOooOO++OOooXXXXXXXX        ",
"                  XXXXOOOOOOOOOOXXOOooOOoo++OO++                ",
"                  XXXXOOOOOOOOOOXXOOooOOoo++OO++                ",
"                XXOOOOOOOOOOOOOOXXOOooOOooOO++++                ",
"                XXOOOOOOOOOOOOOOXXOOooOOooOO++++                ",
"              XXOOOOOOOOOOOOOOOOOOooOOooOOooOOXX..    ..        ",
"              XXOOOOOOOOOOOOOOOOOOooOOooOOooOOXX..    ..        ",
"              XX++OOOOOOOOOOOOOOOOOOooOOooOOoo##XX..  ..        ",
"              XX++OOOOOOOOOOOOOOOOOOooOOooOOoo##XX..  ..        ",
"          XXXXooOO++OOOOOOOOOOOOOOOOOOooOOoo##XX....  ..        ",
"          XXXXooOO++OOOOOOOOOOOOOOOOOOooOOoo##XX....  ..        ",
"        XXoooo++OOXXOOooOOOOOOOOOOOOOOOOooOO##XX  ..            ",
"        XXoooo++OOXXOOooOOOOOOOOOOOOOOOOooOO##XX  ..            ",
"          XXXXOO++XXOOXXXXooOOOOOOOOOOOOOO##XX                  ",
"          XXXXOO++XXOOXXXXooOOOOOOOOOOOOOO##XX                  ",
"        XXoooo++OOXXOOXX++XXoo##$$##XXOOooXX                    ",
"        XXoooo++OOXXOOXX++XXoo##$$##XXOOooXX                    ",
"        XXoo++ooooXXOOXX++@@  $$  $$XXOOXX@@..        ..        ",
"        XXoo++ooooXXOOXX++@@  $$  $$XXOOXX@@..        ..        ",
"          XXooOOooXXOOXX++@@        XXOOXX@@....    ....        ",
"          XXooOOooXXOOXX++@@        XXOOXX@@....    ....        ",
"          XXOOooXXXXOOXX++@@        XXOOXX@@....  ....          ",
"          XXOOooXXXXOOXX++@@        XXOOXX@@....  ....          ",
"        XXOOOOOOXXXXOOXX++@@        XXOOXX@@  ..  ..            ",
"        XXOOOOOOXXXXOOXX++@@        XXOOXX@@  ..  ..            ",
"          XXXXXX  XXOOXX++@@%%%%%%%%XXOOXX@@                    ",
"          XXXXXX  XXOOXX++@@%%%%%%%%XXOOXX@@                    ",
"      ..    ..%%%%XXOOXX##@@%%%%%%%%XXOOXX@@%%                  ",
"      ..    ..%%%%XXOOXX##@@%%%%%%%%XXOOXX@@%%                  ",
"        ..  &&%%%%XXooXX@@%%%%%%%%%%XXooXX@@%%%%                ",
"        ..  &&%%%%XXooXX@@%%%%%%%%%%XXooXX@@%%%%                ",
"        ..%%&&%%%%XX##XX%%%%%%%%%%%%XX##XX%%%%%%%%              ",
"        ..%%&&%%%%XX##XX%%%%%%%%%%%%XX##XX%%%%%%%%              ",
"            %%%%%%%%XX%%%%%%%%%%%%%%%%XX%%%%%%%%                ",
"            %%%%%%%%XX%%%%%%%%%%%%%%%%XX%%%%%%%%                ",
"              %%%%%%%%%%%%%%%%%%%%%%%%%%%%%%%%                  ",
"              %%%%%%%%%%%%%%%%%%%%%%%%%%%%%%%%                  ",
"                    %%%%%%%%%%%%%%%%%%%%                        ",
"                    %%%%%%%%%%%%%%%%%%%%                        "
};
