/* XPM */
static char *p_up1741379525[] = {
/* columns rows colors chars-per-pixel */
"64 64 173 2 ",
"   c #050508",
".  c #0E130B",
"X  c #0F0E12",
"o  c #100F14",
"O  c #120F18",
"+  c #121216",
"@  c #14131A",
"#  c #1E251D",
"$  c #202D1D",
"%  c #23311F",
"&  c #171524",
"*  c #1B1A21",
"=  c #1C1628",
"-  c #1D192B",
";  c #201E28",
":  c #221D36",
">  c #1F222B",
",  c #21252B",
"<  c #282B2F",
"1  c #273522",
"2  c #293623",
"3  c #2A3922",
"4  c #2B342D",
"5  c #262435",
"6  c #2E2E37",
"7  c #272339",
"8  c #2A253C",
"9  c #2D293D",
"0  c #292637",
"q  c #312F3D",
"w  c #2E3438",
"e  c #2D3937",
"r  c #33343D",
"t  c #333B3C",
"y  c #34373A",
"u  c #36413D",
"i  c #38443F",
"p  c #354A3F",
"a  c #3B4B3F",
"s  c #3E5136",
"d  c #344B26",
"f  c #43583B",
"g  c #2F2B41",
"h  c #312D42",
"j  c #253E44",
"k  c #353343",
"l  c #393546",
"z  c #3C3A45",
"x  c #3B3748",
"c  c #353B49",
"v  c #3E3C4A",
"b  c #413E4C",
"n  c #423E51",
"m  c #1E4442",
"M  c #244343",
"N  c #284646",
"B  c #3B4543",
"V  c #364B40",
"C  c #3D4A43",
"Z  c #3D4254",
"A  c #1C604E",
"S  c #1D7758",
"D  c #1E7A5A",
"F  c #24604C",
"G  c #39664A",
"H  c #217B59",
"J  c #42414E",
"K  c #454353",
"L  c #494556",
"P  c #47435A",
"I  c #494559",
"U  c #4C4A5B",
"Y  c #504C5E",
"T  c #4E6C48",
"R  c #536E4A",
"E  c #586F4E",
"W  c #567347",
"Q  c #54714C",
"!  c #59754F",
"~  c #5B7B4A",
"^  c #566955",
"/  c #5A7750",
"(  c #5D7951",
")  c #487954",
"_  c #524E61",
"`  c #555265",
"'  c #545962",
"]  c #5C686C",
"[  c #6B757F",
"{  c #2A8C5F",
"}  c #1B9664",
"|  c #189D67",
" . c #339D62",
".. c #1BA269",
"X. c #19B370",
"o. c #17BA73",
"O. c #1CBB73",
"+. c #38A665",
"@. c #33A565",
"#. c #23BE72",
"$. c #2CBF71",
"%. c #5A8742",
"&. c #5F8B4B",
"*. c #5A8544",
"=. c #648655",
"-. c #628B53",
";. c #6A8D59",
":. c #6D925B",
">. c #6F995A",
",. c #719B5C",
"<. c #62A95D",
"1. c #73A15C",
"2. c #75AD5B",
"3. c #7AAE5E",
"4. c #71A753",
"5. c #77B65F",
"6. c #7AB45D",
"7. c #7DB95F",
"8. c #77B85F",
"9. c #48BE6D",
"0. c #66AB62",
"q. c #7BAF60",
"w. c #7FBB61",
"e. c #7CB160",
"r. c #2EC071",
"t. c #23C274",
"y. c #35C271",
"u. c #38C470",
"i. c #32C873",
"p. c #44C66F",
"a. c #4AC76F",
"s. c #4DC86E",
"d. c #50C96E",
"f. c #5DCD6D",
"g. c #5FD06E",
"h. c #4ACB70",
"j. c #51D271",
"k. c #64CE6C",
"l. c #63C669",
"z. c #76CB67",
"x. c #75CB68",
"c. c #65D26E",
"v. c #6AD26D",
"b. c #74D36B",
"n. c #7CD56A",
"m. c #7CD96C",
"M. c #80BA5F",
"N. c #80BD61",
"B. c #8ACC66",
"V. c #84CE67",
"C. c #8BD266",
"Z. c #8FD768",
"A. c #8BD969",
"S. c #80DE6D",
"D. c #90DC67",
"F. c #90D66C",
"G. c #91DB69",
"H. c #91D767",
"J. c #90CC73",
"K. c #91CA7A",
"L. c #93D377",
"P. c #95E26A",
"I. c #98E56B",
"U. c #8A919C",
"Y. c #8EAC88",
"T. c #90A298",
"R. c #97BF94",
"E. c #999EAF",
"W. c #9A9EB1",
"Q. c #96AEA0",
"!. c #98A5B1",
"~. c #A7B0BD",
"^. c #ACB5C3",
/* pixels */
"G.G.G.G.G.G.G.G.F.G.G.G.G.F.P.G.G.G.G.G.G.G.G.G.G.G.G.G.G.G.G.G.G.G.G.G.G.G.G.G.G.G.G.G.G.G.G.G.G.G.G.G.G.G.G.G.G.G.G.F.P.G.G.G.",
"G.G.G.G.G.G.G.G.G.G.G.G.G.G.G.G.G.G.G.G.G.G.G.G.G.G.G.G.G.G.G.G.G.G.G.G.G.G.G.G.A.G.G.G.G.G.G.G.G.G.G.G.G.G.G.G.G.G.G.G.G.G.G.G.",
"G.G.G.G.G.G.G.G.G.G.G.G.G.G.G.G.G.G.G.G.G.G.G.G.G.G.G.G.G.G.G.G.G.G.G.G.G.G.G.G.G.G.G.G.G.G.G.G.A.G.G.G.G.G.F.G.G.G.G.A.G.A.G.G.",
"G.G.G.G.G.G.G.G.G.G.A.G.G.G.A.G.A.G.G.G.G.G.G.G.G.G.G.A.G.G.G.G.G.G.A.G.G.G.G.G.G.G.G.G.G.G.G.G.G.G.G.G.G.A.P.G.G.G.G.G.G.G.G.G.",
"G.G.G.A.G.G.G.G.G.G.G.G.G.G.G.G.G.G.G.G.G.G.G.G.G.G.G.G.G.G.G.G.G.G.G.G.G.G.G.G.G.G.G.G.G.G.A.G.G.G.G.F.G.G.G.G.G.G.G.G.G.G.G.G.",
"G.Z.G.G.G.G.G.G.G.G.G.G.G.G.G.G.G.Z.G.G.G.D.A.G.P.F.G.G.G.A.G.G.G.G.Z.G.G.G.G.P.G.D.Z.G.G.G.G.G.G.G.G.G.G.G.G.G.G.G.G.G.G.G.G.G.",
"G.G.G.G.G.G.G.G.G.G.G.G.G.G.G.G.G.G.G.G.G.G.D.A.P.A.P.Z.G.G.G.G.G.Z.G.G.P.A.P.G.A.G.G.G.G.G.G.G.G.G.G.G.G.G.G.G.G.F.G.G.G.G.G.G.",
"G.G.G.G.G.G.G.G.G.G.A.P.F.G.G.G.G.G.G.D.G.G.P.C.w.2.2.w.Z.G.G.A.A.G.A.C.w.2.2.w.C.P.G.G.G.G.G.G.G.G.G.G.G.G.G.G.A.P.G.G.G.G.F.G.",
"G.G.G.G.G.G.G.G.G.G.G.G.G.G.G.G.G.G.G.Z.G.P.P.w.Q B i R 7.P.G.D.G.G.P.7.R u V R 7.P.G.G.D.G.G.G.G.G.G.G.G.G.G.G.G.G.G.G.G.G.G.G.",
"G.G.G.G.G.G.G.G.G.G.G.G.G.G.G.G.G.G.Z.G.G.C.w.-.u : 7 B -.7.Z.G.P.Z.7.-.B 7 : B -.7.C.P.G.G.Z.G.G.Z.G.G.G.G.G.D.G.G.G.G.G.G.G.G.",
"G.G.G.G.G.G.G.G.G.A.F.G.G.G.G.A.G.D.G.G.P.7.R u r k n K C Q M.I.I.7.Q C K n l k u Q 7.P.G.Z.G.G.G.G.G.G.G.Z.H.G.G.G.G.G.Z.G.G.G.",
"F.G.G.G.G.G.G.G.G.G.G.A.n.m.Z.G.G.G.G.C.7.-.u 8 x I _ I g u -.3.6.-.u g I _ L x 8 u -.7.C.G.G.G.G.G.G.G.Z.G.D.Z.m.n.A.G.G.G.G.Z.",
"G.G.G.G.G.G.G.G.G.G.H.n.s.s.n.G.G.G.P.7.R u r x L _ ` U b k t a a u k x U ` ` K x r t T 7.G.P.G.G.G.G.A.G.G.G.n.s.s.n.G.G.G.G.G.",
"G.G.G.G.G.G.G.G.G.G.G.b.y.r.f.S.G.G.G.7.T u k x K U Y Y n x h 9 9 h x L Y Y P K z k u T 7.P.G.G.G.G.G.G.D.Z.S.f.r.y.b.G.G.G.G.G.",
"G.G.G.G.G.G.G.G.G.G.H.b.y.O.$.d.n.G.G.C.7.-.B 5 8 k n U _ _ I n P P U U U K k 8 7 B -.7.C.G.G.G.G.G.G.G.G.n.d.$.#.y.b.G.G.G.G.G.",
"G.G.F.G.G.G.G.D.D.D.H.n.y.O.O.$.f.n.Z.G.P.6.V : 8 k x L ` ` ` ` ` ` ` _ L v k 7 : a 6.P.G.A.D.G.G.G.G.G.H.b.y.o.O.y.b.G.G.G.G.G.",
"G.G.G.G.G.G.F.G.H.G.G.n.y.O.O.#.$.d.n.G.I.6.a 8 v P b b Y ` ` ` _ ` ` Y K b P v 8 V 6.I.P.G.G.G.G.G.G.G.H.n.y.O.o.y.b.G.G.G.H.G.",
"G.G.G.G.G.G.A.A.n.n.n.k.s.$.#.o.o.u.b.C.N.-.J h K U b n Y ` ` ` ` ` ` U b b I K k B -.w.C.G.G.G.G.G.G.G.G.b.u.O.$.s.m.G.G.G.G.G.",
"G.G.G.G.G.G.G.m.s.$.$.s.v.l.y.o.o.u.b.w.R B L L K b J L _ ` ` ` ` ` ` Y L J b K P K B T 7.A.P.G.D.G.G.G.H.b.y.$.k.V.A.G.G.G.G.G.",
"G.G.G.G.G.G.G.n.d.$.#.$.k.v.s.$.#.u.b.w.G M Z L J J K L _ _ ` ` ` ` ` _ U K b K P K B T w.G.L.L.K.J.F.G.D.n.s.s.b.D.G.G.G.G.G.G.",
"G.G.G.Z.G.G.G.D.n.f.$.#.$.d.k.k.r.u.b.b.+.D N k n Y L U _ ` ` ` ` ` ` _ L L U K k B -.w.C.L.R.Q.T.Y.J.D.G.A.n.n.A.G.G.G.G.G.G.G.",
"G.G.G.G.G.D.G.D.H.S.d.$.#.$.n.S.d.d.n.m.j. .M 8 I _ U K P I I P I I I I P U ` P g V 6.P.D.L.R.T.T.Y.J.G.G.D.G.G.G.Z.G.G.G.G.G.G.",
"G.G.G.G.G.G.G.G.G.G.n.f.$.y.b.G.n.n.A.A.m.<.V 8 I _ U b h q 9 q 9 g g h v U _ P 8 V 6.P.P.F.L.K.K.J.H.G.D.G.G.D.G.G.G.G.G.G.G.G.",
"G.G.G.G.G.G.G.Z.G.H.G.n.s.s.b.G.G.G.G.C.w.;.B k P U n k q : 5 5 5 7 0 8 x n U I k B -.w.C.A.D.D.D.D.G.G.G.G.G.G.G.G.G.G.G.G.G.G.",
"G.G.G.G.G.G.G.A.G.G.G.A.m.n.Z.G.G.G.P.7.T B K I K x g 9 r r k q k k r q 9 q x L P K B T w.Z.P.D.D.G.G.G.G.G.G.G.G.G.G.G.G.G.G.A.",
"G.Z.G.G.G.G.G.G.G.F.G.G.G.G.G.G.G.G.G.7.T B K n x r 0 9 r z b b z b b k 9 0 r k K K B T w.G.G.G.G.G.G.G.G.G.G.G.G.G.G.G.G.G.G.G.",
"G.G.G.G.G.G.G.G.G.G.G.G.G.G.G.A.G.G.G.C.7.-.C 0 5 9 r k z b J J K J z z k r 0 0 7 C -.7.C.G.G.G.G.G.G.G.G.G.G.G.G.G.G.G.G.G.G.G.",
"A.G.G.G.G.G.G.G.G.G.G.G.G.G.G.G.G.D.G.G.P.w.Q t 5 0 k z z Z J K L J b z z k 0 5 u Q 7.P.A.G.G.G.G.G.G.G.G.G.G.G.G.Z.Z.G.G.G.G.G.",
"G.G.G.G.G.G.G.G.G.G.G.G.G.G.G.G.G.G.G.G.G.Z.7.-.u 5 r b b J L L L L J b b r 7 t -.N.D.P.G.D.G.D.H.G.G.G.G.G.G.G.G.A.G.G.G.G.G.G.",
"G.G.G.G.G.G.G.A.A.G.G.G.G.G.G.G.G.G.G.G.G.C.V.-.a 8 k J L L L U K L U L b k 8 a -.w.C.A.G.G.D.A.n.n.Z.H.G.C.b.n.A.G.G.G.G.G.G.G.",
"G.G.G.G.G.G.G.P.G.G.G.G.G.G.G.G.G.G.G.G.G.7.Q i r l b L U Y _ _ ` U _ Y K b k z i Q 7.G.G.G.G.b.s.s.m.D.G.n.s.h.b.G.G.G.G.G.G.G.",
"G.G.G.G.G.G.G.F.G.G.G.G.G.G.G.F.G.G.G.G.P.6.i : k b K L ` ` Y U U _ ` _ L K b r : a 6.I.G.G.G.b.y.r.c.V.G.b.y.u.b.G.G.G.G.G.G.G.",
"G.G.G.G.G.G.G.G.G.G.G.G.G.G.G.G.G.D.D.P.I.2.a 7 l L L I _ _ K b J L Y Y U L J l 7 a 2.P.G.G.G.n.y.O.$.d.V.m.y.y.b.G.G.G.G.G.G.G.",
"G.G.F.G.G.G.G.G.G.G.G.G.G.G.G.G.G.Z.b.z.8.-.B g b L L L Y L J z z b L Y U L U J g V -.w.C.G.H.b.u.O.O.y.b.b.y.y.b.G.G.G.G.G.G.G.",
"G.G.G.G.G.G.G.G.G.G.G.G.G.G.G.G.G.m.s.+.G B v K U ` _ Y K b J J z z b K U _ _ U n v u R 7.G.G.b.$.O.O.y.b.b.y.y.b.H.G.G.G.D.G.G.",
"G.A.G.G.G.G.G.G.G.G.G.G.G.G.D.G.G.b.y.| A j x b U _ ` Y b z J J b z z b Y ` _ U K z B Q 7.G.G.S.d.$.#.y.b.n.s.s.n.D.G.G.G.G.G.G.",
"G.G.G.G.G.G.G.G.G.G.G.G.G.G.G.G.G.b.u.X...D N h n U ` U J z z v J J z J Y ` U n h V -.N.Z.G.G.A.S.l.r.y.b.D.S.V.A.G.G.G.G.G.G.G.",
"G.G.G.G.G.G.G.G.G.G.G.G.Z.G.G.G.D.b.u.X...H M h n P U K b z b b J J b J K I U v 9 B -.N.C.G.G.G.H.n.s.s.n.D.D.G.Z.G.Z.G.G.G.G.G.",
"G.G.G.G.G.G.G.G.G.G.G.Z.G.D.G.G.G.b.u.| A j c n U P l k v L J J z J J Z h l P U n v a R 7.G.G.G.H.Z.m.m.C.G.G.G.G.Z.G.G.G.G.G.G.",
"G.P.F.G.G.A.G.G.G.G.G.G.G.A.V.b.b.v.h.+.F j c K Y P g 5 q z J J J z k 9 7 g I _ n c j G 5.P.G.G.G.G.D.H.A.G.G.G.G.G.G.G.G.G.G.G.",
"A.G.G.G.G.G.G.G.G.G.G.G.G.n.s.$.u.s.v.l.@.D N h U I g - @ * r J J k @ @ - g I U h j S +.x.G.G.G.G.G.H.G.D.G.H.D.G.A.G.G.G.G.G.G.",
"G.G.G.G.G.G.P.F.G.G.G.G.G.n.s.$.O.y.k.v.h. .M 8 I I g &   X 6 J J k # + & 0 I I h m } y.k.n.Z.G.G.G.G.G.G.Z.n.n.A.G.G.G.G.G.G.G.",
"G.G.G.G.G.G.A.G.G.G.G.G.G.Z.b.k.$.O.y.h.v.<.V 9 I I g &   X r J J z k 5 + * n I 9 m } t.y.d.S.G.D.H.H.D.G.n.s.s.b.G.G.G.G.G.G.G.",
"G.G.G.G.G.G.G.G.G.G.G.G.G.G.G.S.d.r.O.y.m.3.C g I I g , 1 1 w k z J L z @ @ q k 0 M } O.O.$.f.n.Z.G.D.Z.S.f.$.y.b.G.G.G.G.G.G.G.",
"G.G.G.G.G.G.G.G.G.G.A.G.Z.G.G.Z.S.f.r.u.b.2.a 9 P I 8 u &.%.1 * v Y U v 5 & @ @ - M } O.O.#.y.s.b.G.G.V.d.$.#.y.b.H.G.G.G.G.G.G.",
"G.G.G.G.G.G.G.G.G.G.G.G.G.G.Z.G.H.b.s.d.m.6.a 9 I I g t &.%.2 ; J _ U v 5 & @ @ - N @.y.#.O.o.u.b.G.m.c.$.O.$.d.n.G.G.G.G.G.G.G.",
"A.G.F.G.G.G.G.G.G.G.G.G.G.Z.G.D.G.D.n.m.A.2.a 9 P I g , $ 2 z J K U _ v @ @ w x 7 V <.c.y.o.o.u.z.S.d.r.#.$.f.S.Z.G.G.G.G.G.G.G.",
"G.G.G.G.G.G.G.G.G.G.G.G.G.G.G.G.G.D.G.G.P.3.V 8 I I g > $ 2 t K U U U v + @ K I g V <.v.h.r.O.u.b.b.u.O.$.d.n.G.G.G.G.G.G.G.G.G.",
"G.G.G.G.G.G.G.G.G.G.G.G.G.G.G.G.Z.G.G.G.P.2.a 9 P I 8 u *.%.1 - n _ Y r o + b U g M  .h.v.f.$.$.b.b.u.$.f.n.Z.G.G.G.G.G.G.G.A.G.",
"G.G.P.F.Z.G.G.G.G.G.Z.G.G.G.G.Z.G.G.G.G.P.2.V 9 I P 9 V 1.4.d # r L ' ' J k b k 8 m } u.b.V.f.d.n.n.s.d.n.G.G.G.G.G.Z.G.G.G.G.G.",
"G.G.A.G.G.G.H.G.D.G.G.G.D.D.G.Z.G.G.G.G.P.6.a 9 I I g t =.>.~ s $ 0 [ !.^.U.z O = m } i.b.Z.S.n.Z.G.n.b.A.G.G.G.G.G.G.G.G.G.G.G.",
"G.G.G.G.G.A.n.b.A.G.D.A.n.m.A.G.G.G.G.G.B.>.i 9 I I 9 t Q :.:.Q % 4 ] U.~.U.z O = M { 9.n.P.G.G.G.G.D.H.G.Z.G.G.G.G.G.G.G.G.G.G.",
"G.G.G.G.G.b.s.s.S.D.G.b.s.s.b.H.G.G.G.B.q.( t 9 I I g w E :.:.=.~ f 4 6 t z B k 7 t ) 0.V.G.G.G.G.D.D.G.D.G.G.G.G.G.G.G.G.G.G.G.",
"G.G.G.G.G.n.s.a.l.m.D.b.y.y.b.G.G.H.C.N.,.E t 8 n n 9 r E ;.;.;.:.W 3 .   @ v n 8 y E ,.N.B.F.G.G.G.A.G.G.G.G.G.G.G.G.G.G.G.G.G.",
"G.G.G.G.G.A.m.k.a.s.V.m.y.y.b.G.G.B.q.,.>.E t 7 k l 0 t ! ;.;.;.:.=.W f , - k l 5 t E >.>.q.B.G.G.Z.G.G.G.G.G.G.G.G.G.F.G.G.G.G.",
"G.G.G.G.F.G.G.b.y.y.b.b.y.u.b.H.B.w.,.;.;.Q t h ` ` h y Q :.:.;.;.;.;.E w k ` ` h t ^ ;.;.>.w.B.Z.G.G.G.G.G.G.G.G.A.G.G.G.G.G.G.",
"G.G.G.G.G.G.G.b.y.y.b.b.u.y.b.B.q.:.;.;.;.E w I W.E.I w E :.;.;.;.;.:.Q y I W.W.P w Q :.;.;.>.q.C.F.G.G.G.G.G.G.G.G.G.G.G.G.G.G.",
"G.G.G.G.G.G.D.n.s.s.m.b.d.s.n.B.q.>.;.;.;./ C ' E.E.' C / ;.;.;.;.;.:.! a ' E.E.' C / ;.;.:.>.q.V.G.G.G.G.G.G.G.G.G.G.G.G.G.G.G.",
"G.G.G.G.G.D.D.A.n.n.D.C.b.m.Z.Z.B.w.>.;.;.=.( ^ ' ' ^ ( =.;.;.;.;.;.;.=.( ^ ' ' ^ ( =.;.;.>.w.B.A.G.G.G.G.G.G.G.G.G.G.G.G.G.F.P.",
"F.G.G.G.G.H.G.G.H.G.D.D.G.G.G.G.G.B.q.>.;.;.:./ a i ( :.;.;.;.;.;.;.;.;.:.! a i / ;.;.:.>.3.B.G.G.F.G.G.G.G.F.G.G.G.G.G.G.G.G.A.",
"G.G.G.G.G.G.G.G.G.G.D.G.G.G.G.G.G.Z.B.w.,.=.;.=.! ! =.;.;.;.=.;.;.;.;.;.;.=.! ! =.;.;.>.w.C.G.G.G.G.G.G.G.G.G.G.G.G.G.G.G.G.G.G.",
"G.G.G.G.G.G.G.G.G.G.G.G.G.G.G.G.G.G.G.C.e.1.,.,.:.;.;.;.;.;.;.;.;.;.;.;.;.;.;.:.,.,.,.q.B.G.G.G.G.G.G.G.G.A.G.G.A.G.G.F.G.G.G.G.",
"G.G.G.G.D.G.G.G.G.G.G.G.G.G.G.H.G.G.G.H.B.B.B.N.,.;.;.;.;.;.;.;.;.;.;.;.=.;.;.,.w.B.B.B.Z.G.G.A.Z.G.G.G.G.G.G.G.P.G.G.G.G.G.G.G.",
"Z.G.G.G.G.G.G.G.G.G.G.G.G.G.G.G.G.G.G.G.G.G.G.B.1.;.=.;.;.;.;.;.;.;.;.;.;.;.;.1.B.G.G.G.G.G.G.G.G.G.G.G.G.G.G.G.G.G.G.G.G.G.G.G."
};
