/* XPM */
static char *p_up1741362324[] = {
/* columns rows colors chars-per-pixel */
"32 32 13 1 ",
"  c #91DB69",
". c #222034",
"X c #3D3A46",
"o c #555165",
"O c #1EBC73",
"+ c #464554",
"@ c #9BABB2",
"# c #8D8E9E",
"$ c black",
"% c #6A8D59",
"& c #9BADB7",
"* c #E2EBFD",
"= c white",
/* pixels */
"                                ",
"                                ",
"                                ",
"                                ",
"            ..    ..            ",
"           .Xo.  .oX.           ",
"      O   .XooX..XooX.      O   ",
"      OO   ..+oooo+..      OO   ",
"      OOO  .oXooooXo.      OO   ",
"    OO OO .oX+oooo+Xo.     O    ",
"     OO O O.o+oooo+o.  @#       ",
"      O    .o+....+o.           ",
"          .oX.XXXX.Xo.          ",
"           ..XX++XX..           ",
"            .X++++X.            ",
"           .X+oooo+X.   O  O    ",
"           .++oXXo++.   OO O    ",
"         O.+ooX+XXoo+.  OO O    ",
"         OO.+oXX+Xo+.    O      ",
"         O.+o.++X+.o+.          ",
"       OO O.o.$X+$.o.O          ",
"        OO .o.$+X+$o.OO    O    ",
"         O .o. $o+.$.OOO  OO    ",
"           .o.$o+o$o. OO OO     ",
"           .o. $o+$o.O O O      ",
"           .o.%%$&*$.O          ",
"   O  O   %.o.%%%$$o.%          ",
"    O O  %%.X.%%%%.X.%%         ",
"    O O %%%.*.%%%%.*.%%%        ",
"         %%%.%%%%%%.%%%         ",
"          %%%%%%%%%%%%          ",
"            %%%%%%%%            "
};
