/* XPM */
static char *p_up1741459696[] = {
/* columns rows colors chars-per-pixel */
"64 64 13 1 ",
"  c #91DB69",
". c #222034",
"X c #3D3A46",
"o c #555165",
"O c #1EBC73",
"+ c #464554",
"@ c #9BABB2",
"# c #8D8E9E",
"$ c black",
"% c #6A8D59",
"& c #9BADB7",
"* c #E2EBFD",
"= c white",
/* pixels */
"                                                                ",
"                                                                ",
"                                                                ",
"                                                                ",
"                                                                ",
"                                                                ",
"                                                                ",
"                                                                ",
"                        ....        ....                        ",
"                        ....        ....                        ",
"                      ..XXoo..    ..ooXX..                      ",
"                      ..XXoo..    ..ooXX..                      ",
"            OO      ..XXooooXX....XXooooXX..            OO      ",
"            OO      ..XXooooXX....XXooooXX..            OO      ",
"            OOOO      ....++oooooooo++....            OOOO      ",
"            OOOO      ....++oooooooo++....            OOOO      ",
"            OOOOOO    ..ooXXooooooooXXoo..            OOOO      ",
"            OOOOOO    ..ooXXooooooooXXoo..            OOOO      ",
"        OOOO  OOOO  ..ooXX++oooooooo++XXoo..          OO        ",
"        OOOO  OOOO  ..ooXX++oooooooo++XXoo..          OO        ",
"          OOOO  OO  OO..oo++oooooooo++oo..    @@##              ",
"          OOOO  OO  OO..oo++oooooooo++oo..    @@##              ",
"            OO        ..oo++........++oo..                      ",
"            OO        ..oo++........++oo..                      ",
"                    ..ooXX..XXXXXXXX..XXoo..                    ",
"                    ..ooXX..XXXXXXXX..XXoo..                    ",
"                      ....XXXX++++XXXX....                      ",
"                      ....XXXX++++XXXX....                      ",
"                        ..XX++++++++XX..                        ",
"                        ..XX++++++++XX..                        ",
"                      ..XX++oooooooo++XX..      OO    OO        ",
"                      ..XX++oooooooo++XX..      OO    OO        ",
"                      ..++++ooXXXXoo++++..      OOOO  OO        ",
"                      ..++++ooXXXXoo++++..      OOOO  OO        ",
"                  OO..++ooooXX++XXXXoooo++..    OOOO  OO        ",
"                  OO..++ooooXX++XXXXoooo++..    OOOO  OO        ",
"                  OOOO..++ooXXXX++XXoo++..        OO            ",
"                  OOOO..++ooXXXX++XXoo++..        OO            ",
"                  OO..++oo..++++XX++..oo++..                    ",
"                  OO..++oo..++++XX++..oo++..                    ",
"              OOOO  OO..oo..$$XX++$$..oo..OO                    ",
"              OOOO  OO..oo..$$XX++$$..oo..OO                    ",
"                OOOO  ..oo..$$++XX++$$oo..OOOO        OO        ",
"                OOOO  ..oo..$$++XX++$$oo..OOOO        OO        ",
"                  OO  ..oo..  $$oo++..$$..OOOOOO    OOOO        ",
"                  OO  ..oo..  $$oo++..$$..OOOOOO    OOOO        ",
"                      ..oo..$$oo++oo$$oo..  OOOO  OOOO          ",
"                      ..oo..$$oo++oo$$oo..  OOOO  OOOO          ",
"                      ..oo..  $$oo++$$oo..OO  OO  OO            ",
"                      ..oo..  $$oo++$$oo..OO  OO  OO            ",
"                      ..oo..%%%%$$&&**$$..OO                    ",
"                      ..oo..%%%%$$&&**$$..OO                    ",
"      OO    OO      %%..oo..%%%%%%$$$$oo..%%                    ",
"      OO    OO      %%..oo..%%%%%%$$$$oo..%%                    ",
"        OO  OO    %%%%..XX..%%%%%%%%..XX..%%%%                  ",
"        OO  OO    %%%%..XX..%%%%%%%%..XX..%%%%                  ",
"        OO  OO  %%%%%%..**..%%%%%%%%..**..%%%%%%                ",
"        OO  OO  %%%%%%..**..%%%%%%%%..**..%%%%%%                ",
"                  %%%%%%..%%%%%%%%%%%%..%%%%%%                  ",
"                  %%%%%%..%%%%%%%%%%%%..%%%%%%                  ",
"                    %%%%%%%%%%%%%%%%%%%%%%%%                    ",
"                    %%%%%%%%%%%%%%%%%%%%%%%%                    ",
"                        %%%%%%%%%%%%%%%%                        ",
"                        %%%%%%%%%%%%%%%%                        "
};
